<svg width="176" height="160" viewBox="0 0 176 160" fill="none" xmlns="http://www.w3.org/2000/svg">
<path d="M93.1234 160C138.835 160 175.892 140.156 175.892 115.677C175.892 91.1979 138.835 71.3538 93.1234 71.3538C47.4115 71.3538 10.3547 91.1979 10.3547 115.677C10.3547 140.156 47.4115 160 93.1234 160Z" fill="#F5F5F5"/>
<path d="M107.983 152.425L148.59 130.685C149.479 130.208 149.479 129.435 148.59 128.959L71.7113 87.7868C71.212 87.5519 70.6601 87.4294 70.1003 87.4294C69.5404 87.4294 68.9885 87.5519 68.4892 87.7868L27.8825 109.527C26.9933 110.004 26.9933 110.777 27.8825 111.253L104.761 152.425C105.261 152.66 105.813 152.783 106.372 152.783C106.932 152.783 107.484 152.66 107.983 152.425Z" fill="#E0E0E0"/>
<path d="M35.6475 110.352L38.8324 108.647C38.8324 108.647 39.61 102.325 39.0928 97.4285C38.3487 90.5509 33.5714 82.2723 27.8566 84.2151C22.1417 86.1579 30.461 93.1667 32.3213 99.0021C34.1816 104.838 35.6475 110.352 35.6475 110.352Z" fill="#5566FF"/>
<path opacity="0.15" d="M35.6475 110.352L38.8324 108.647C38.8324 108.647 39.61 102.325 39.0928 97.4285C38.3487 90.5509 33.5714 82.2723 27.8566 84.2151C22.1417 86.1579 30.461 93.1667 32.3213 99.0021C34.1816 104.838 35.6475 110.352 35.6475 110.352Z" fill="black"/>
<path d="M37.3145 109.634C37.2638 109.633 37.2159 109.612 37.1811 109.578C37.1464 109.544 37.1274 109.498 37.1284 109.451C37.6865 94.164 29.5012 86.472 29.4007 86.3961C29.3826 86.3797 29.3682 86.3601 29.3584 86.3385C29.3486 86.3168 29.3435 86.2936 29.3435 86.2701C29.3435 86.2466 29.3486 86.2234 29.3584 86.2018C29.3682 86.1801 29.3826 86.1606 29.4007 86.1442C29.4369 86.1111 29.4857 86.0925 29.5365 86.0925C29.5874 86.0925 29.6361 86.1111 29.6723 86.1442C29.7542 86.2235 38.0809 94.0225 37.5154 109.465C37.5125 109.512 37.4898 109.556 37.4522 109.588C37.4147 109.62 37.3652 109.636 37.3145 109.634Z" fill="white"/>
<path d="M33.9656 111.574L36.198 110.359C36.198 110.359 36.5701 106.021 34.293 100.752C32.2951 96.1621 27.3429 92.3558 24.8501 93.1599C22.3573 93.9639 22.4317 95.5893 23.6484 97.3147C24.865 99.0402 32.2541 103.129 33.9656 111.574Z" fill="#5566FF"/>
<path d="M35.1451 111.118C35.0938 111.118 35.0446 111.099 35.0083 111.066C34.972 111.032 34.9516 110.986 34.9516 110.939C34.9963 101.276 25.2111 94.7403 25.1106 94.6747C25.0695 94.6471 25.0417 94.6055 25.0334 94.559C25.025 94.5125 25.0367 94.4648 25.066 94.4263C25.0804 94.407 25.0989 94.3906 25.1203 94.3781C25.1417 94.3655 25.1655 94.3571 25.1905 94.3532C25.2155 94.3494 25.241 94.3502 25.2656 94.3556C25.2902 94.361 25.3134 94.371 25.3339 94.3849C25.4343 94.4504 35.3795 101.09 35.3386 110.949C35.3349 110.995 35.313 111.037 35.2772 111.068C35.2414 111.1 35.1943 111.117 35.1451 111.118Z" fill="white"/>
<path d="M144.367 18.8794L147.574 20.6049C147.555 20.4745 147.545 20.3431 147.544 20.2115V19.3246C147.544 17.7924 148.705 17.1713 150.149 17.9443C150.764 18.2962 151.291 18.767 151.693 19.3246C151.927 17.399 153.553 16.6812 155.536 17.7407C157.676 18.8864 159.413 21.6747 159.413 23.9522V25.2394C159.427 25.7544 159.314 26.2655 159.082 26.7337L161.746 28.1589C162.164 28.4114 162.512 28.7517 162.761 29.1523C163.011 29.5528 163.155 30.0022 163.182 30.4641C163.182 31.3164 162.539 31.6581 161.746 31.2336L144.367 21.9542C143.949 21.7016 143.601 21.3613 143.352 20.9608C143.102 20.5603 142.958 20.1109 142.931 19.649C142.931 18.7966 143.575 18.4515 144.367 18.8794Z" fill="#EBEBEB"/>
<path d="M131.073 26.5337L133.421 27.7898C133.416 27.6944 133.416 27.5988 133.421 27.5034V26.8719C133.421 25.7469 134.269 25.2914 135.319 25.8366C135.764 26.0961 136.144 26.4408 136.435 26.8477C136.606 25.4328 137.8 24.9083 139.251 25.6848C140.078 26.1847 140.766 26.8583 141.26 27.6509C141.754 28.4434 142.039 29.3328 142.094 30.2468V31.1924C142.103 31.5692 142.02 31.9432 141.852 32.2863L143.801 33.3215C144.109 33.5063 144.365 33.7558 144.548 34.0496C144.732 34.3435 144.838 34.6734 144.858 35.0125C144.858 35.6371 144.386 35.889 143.801 35.575L131.073 28.7905C130.766 28.6048 130.511 28.3546 130.328 28.0602C130.145 27.7658 130.04 27.4355 130.02 27.0962C130.005 26.475 130.474 26.2265 131.073 26.5337Z" fill="#EBEBEB"/>
<path d="M146.127 123.289C146.708 123.704 146.644 124.294 145.945 124.67L107.634 145.192C107.202 145.395 106.724 145.5 106.24 145.5C105.756 145.5 105.279 145.395 104.847 145.192L31.5808 105.966C30.8701 105.586 30.8143 104.989 31.4171 104.586C31.0567 104.838 30.7598 105.16 30.5471 105.53C30.3345 105.899 30.2111 106.307 30.1855 106.725V108.433C30.2121 108.883 30.3523 109.32 30.5946 109.709C30.837 110.099 31.1748 110.43 31.5808 110.676L104.821 149.889C105.253 150.093 105.731 150.2 106.216 150.2C106.701 150.2 107.179 150.093 107.611 149.889L145.934 129.37C146.34 129.125 146.678 128.794 146.92 128.405C147.163 128.016 147.303 127.579 147.329 127.13V125.405C147.303 124.993 147.182 124.592 146.975 124.227C146.767 123.862 146.478 123.542 146.127 123.289Z" fill="#455A64"/>
<path d="M145.956 123.176L72.6935 83.9495C72.2615 83.7469 71.7842 83.6414 71.3001 83.6414C70.816 83.6414 70.3387 83.7469 69.9067 83.9495L31.5845 104.475C30.8143 104.886 30.8143 105.555 31.5845 105.966L104.828 145.192C105.26 145.395 105.738 145.5 106.222 145.5C106.706 145.5 107.183 145.395 107.615 145.192L145.937 124.666C146.7 124.256 146.7 123.586 145.956 123.176ZM136.018 120.004C136.677 120.349 136.677 120.929 136.018 121.281L101.171 139.947C100.8 140.12 100.39 140.211 99.9748 140.211C99.5594 140.211 99.1497 140.12 98.7787 139.947L41.7343 109.393C41.0757 109.048 41.0757 108.465 41.7343 108.113L76.5852 89.4502C77.2438 89.1051 77.9321 88.8911 78.5906 89.2431L136.018 120.004Z" fill="#37474F"/>
<path d="M31.4171 104.562C31.0567 104.814 30.7598 105.136 30.5471 105.506C30.3345 105.875 30.2111 106.283 30.1855 106.701V108.409C30.2124 108.859 30.3527 109.296 30.595 109.685C30.8374 110.075 31.175 110.406 31.5808 110.653L104.821 149.889C105.252 150.1 105.733 150.207 106.22 150.2V145.5C105.734 145.508 105.254 145.402 104.825 145.192L31.5808 105.966C30.8701 105.597 30.8143 104.99 31.4171 104.562Z" fill="#263238"/>
<path d="M54.4291 96.2278C54.9463 95.9517 54.9463 95.5031 54.4291 95.227C54.1406 95.0921 53.822 95.0217 53.4989 95.0217C53.1758 95.0217 52.8572 95.0921 52.5688 95.227C52.0516 95.5031 52.0516 95.9517 52.5688 96.2278C52.8572 96.3628 53.1758 96.4331 53.4989 96.4331C53.822 96.4331 54.1406 96.3628 54.4291 96.2278Z" fill="black"/>
<path d="M125.359 133.763C126.575 133.114 126.575 132.058 125.359 131.409C124.677 131.087 123.923 130.918 123.158 130.918C122.393 130.918 121.639 131.087 120.957 131.409C119.741 132.058 119.741 133.114 120.957 133.763C121.639 134.086 122.393 134.254 123.158 134.254C123.923 134.254 124.677 134.086 125.359 133.763V133.763Z" stroke="#E6E6E6" stroke-width="0.346353" stroke-miterlimit="10"/>
<path d="M53.4951 99.5472L60.7131 95.6856C61.141 95.4544 61.1633 95.0921 60.7615 94.8747C60.5271 94.7711 60.2701 94.7194 60.0106 94.7236C59.751 94.7278 59.4961 94.7878 59.2658 94.8988L52.0478 98.7604C51.6199 98.9916 51.5976 99.3539 51.9994 99.5713C52.2338 99.6749 52.4908 99.7266 52.7503 99.7224C53.0099 99.7182 53.2648 99.6582 53.4951 99.5472Z" fill="black"/>
<path d="M78.5908 89.2571C77.9322 88.912 77.2439 89.1087 76.5853 89.4642L41.7344 108.127C41.0758 108.472 41.0758 109.051 41.7344 109.407L98.7639 139.944C99.1349 140.117 99.5446 140.208 99.9601 140.208C100.376 140.208 100.785 140.117 101.156 139.944L136.003 121.278C136.666 120.933 136.666 120.353 136.003 120.001L78.5908 89.2571Z" fill="#5566FF"/>
<path opacity="0.85" d="M78.5908 89.2571C77.9322 88.912 77.2439 89.1087 76.5853 89.4642L41.7344 108.127C41.0758 108.472 41.0758 109.051 41.7344 109.407L98.7639 139.944C99.1349 140.117 99.5446 140.208 99.9601 140.208C100.376 140.208 100.785 140.117 101.156 139.944L136.003 121.278C136.666 120.933 136.666 120.353 136.003 120.001L78.5908 89.2571Z" fill="white"/>
<path d="M45.7489 109.804L45.3768 109.603C45.3597 109.597 45.345 109.587 45.3346 109.573C45.3242 109.559 45.3186 109.543 45.3186 109.526C45.3186 109.509 45.3242 109.492 45.3346 109.478C45.345 109.465 45.3597 109.454 45.3768 109.448L45.4178 109.427C45.4624 109.405 45.5122 109.394 45.5629 109.394C45.6135 109.394 45.6633 109.405 45.708 109.427L46.08 109.624C46.1582 109.669 46.1582 109.738 46.08 109.779L46.0391 109.804C45.9939 109.824 45.9443 109.835 45.894 109.835C45.8437 109.835 45.7941 109.824 45.7489 109.804Z" fill="#455A64"/>
<path d="M46.4112 109.448L45.7676 109.103C45.6895 109.062 45.6895 108.993 45.7676 108.948L45.8085 108.927C45.8537 108.907 45.9033 108.896 45.9536 108.896C46.0039 108.896 46.0535 108.907 46.0987 108.927L46.7424 109.272C46.8205 109.314 46.8205 109.383 46.7424 109.427L46.7015 109.448C46.6563 109.469 46.6066 109.479 46.5564 109.479C46.5061 109.479 46.4564 109.469 46.4112 109.448Z" fill="#455A64"/>
<path d="M47.0735 109.092L46.162 108.606C46.0801 108.561 46.0801 108.492 46.162 108.45L46.2029 108.426C46.2481 108.406 46.2977 108.395 46.348 108.395C46.3983 108.395 46.4479 108.406 46.4931 108.426L47.4047 108.916C47.4217 108.922 47.4365 108.933 47.4469 108.947C47.4573 108.961 47.4629 108.977 47.4629 108.994C47.4629 109.011 47.4573 109.027 47.4469 109.041C47.4365 109.055 47.4217 109.066 47.4047 109.072L47.3637 109.092C47.3191 109.114 47.2692 109.126 47.2186 109.126C47.168 109.126 47.1182 109.114 47.0735 109.092Z" fill="#455A64"/>
<path d="M47.7319 108.741L46.1581 107.895C46.0762 107.854 46.0762 107.785 46.1581 107.74L46.199 107.719C46.2439 107.698 46.2937 107.687 46.3441 107.687C46.3945 107.687 46.4443 107.698 46.4892 107.719L48.0593 108.561C48.1412 108.606 48.1412 108.675 48.0593 108.717L48.0221 108.741C47.9769 108.761 47.9273 108.772 47.877 108.772C47.8267 108.772 47.7771 108.761 47.7319 108.741Z" fill="#455A64"/>
<path d="M49.6333 107.837C49.6083 107.839 49.583 107.833 49.5626 107.819L49.332 107.695L48.5878 108.092C48.5719 108.102 48.5531 108.107 48.5339 108.107C48.5147 108.107 48.4959 108.102 48.4799 108.092L48.3944 108.047L48.3571 108.023V107.988L48.3199 107.122C48.3175 107.11 48.3175 107.097 48.3199 107.084C48.3322 107.071 48.3475 107.061 48.3646 107.053L48.465 106.998C48.4914 106.984 48.5204 106.974 48.5506 106.97C48.5782 106.971 48.6051 106.978 48.6288 106.991L49.4361 107.423L49.5998 107.336C49.6243 107.321 49.6524 107.312 49.6817 107.309C49.7082 107.309 49.734 107.316 49.7561 107.329L49.8119 107.36C49.838 107.36 49.8491 107.385 49.8454 107.398C49.8417 107.412 49.8454 107.423 49.797 107.44L49.6333 107.529L49.864 107.654C49.89 107.654 49.9012 107.678 49.8975 107.692C49.8938 107.705 49.8789 107.719 49.8454 107.737L49.7189 107.802C49.6948 107.821 49.665 107.833 49.6333 107.837ZM49.1831 107.564L48.6064 107.257L48.6436 107.854L49.1831 107.564Z" fill="#455A64"/>
<path d="M50.3735 107.291C50.1131 107.303 49.8546 107.244 49.6294 107.122C49.3987 106.998 49.2945 106.863 49.3131 106.718C49.3318 106.573 49.4769 106.432 49.741 106.291C49.8452 106.233 49.9548 106.185 50.0684 106.146C50.1683 106.11 50.2717 106.083 50.3772 106.066C50.3928 106.061 50.4101 106.061 50.4256 106.066C50.4272 106.072 50.4272 106.078 50.4256 106.083L50.4591 106.173C50.4628 106.177 50.4648 106.182 50.4648 106.187C50.4648 106.192 50.4628 106.197 50.4591 106.201H50.4182C50.2579 106.23 50.1044 106.285 49.9643 106.363C49.7857 106.456 49.6889 106.556 49.674 106.656C49.6592 106.756 49.741 106.856 49.9196 106.95C50.0828 107.042 50.2715 107.089 50.4628 107.084C50.6521 107.078 50.8365 107.027 50.9986 106.936C51.0566 106.905 51.1125 106.87 51.166 106.832C51.2084 106.804 51.2461 106.771 51.2776 106.732L50.9056 106.532L50.5968 106.698C50.5704 106.712 50.5414 106.721 50.5112 106.725C50.4849 106.724 50.4592 106.717 50.4368 106.705L50.3847 106.677C50.3599 106.663 50.3487 106.649 50.3512 106.636C50.3512 106.636 50.3698 106.611 50.3996 106.594L50.8944 106.328C50.9237 106.312 50.9569 106.303 50.9911 106.301C51.0216 106.301 51.0513 106.31 51.0767 106.325L51.6125 106.611C51.6276 106.617 51.6405 106.627 51.6497 106.639C51.6497 106.639 51.6497 106.656 51.6497 106.67C51.5328 106.832 51.3708 106.962 51.1809 107.046C50.9376 107.188 50.6603 107.273 50.3735 107.291Z" fill="#455A64"/>
<path d="M60.6723 100.586L61.5466 101.056C61.5836 101.073 61.6244 101.081 61.6657 101.081C61.707 101.081 61.7478 101.073 61.7848 101.056L62.6665 100.586C62.7298 100.548 62.7298 100.493 62.6665 100.459L61.7885 99.9893C61.752 99.9705 61.7111 99.9607 61.6694 99.9607C61.6278 99.9607 61.5868 99.9705 61.5504 99.9893L60.6723 100.459C60.6053 100.493 60.6053 100.548 60.6723 100.586Z" fill="#455A64"/>
<path d="M61.2787 99.9478C61.1629 99.8955 61.0354 99.8695 60.9067 99.8718C60.7778 99.8687 60.6501 99.8948 60.5346 99.9478C60.3635 100.041 60.3635 100.182 60.5346 100.272L60.836 100.434L61.0555 100.393L60.7541 100.234C60.7274 100.225 60.7044 100.208 60.6881 100.186C60.6719 100.164 60.6632 100.138 60.6632 100.112C60.6632 100.085 60.6719 100.059 60.6881 100.037C60.7044 100.015 60.7274 99.9986 60.7541 99.9892C60.8021 99.965 60.8558 99.952 60.9104 99.9512C60.9641 99.9498 61.0172 99.963 61.0629 99.9892L61.3643 100.151L61.5875 100.11L61.2787 99.9478Z" fill="#455A64"/>
<path d="M77.2438 91.3862C77.0964 91.3816 76.9502 91.4125 76.8196 91.4759L74.5872 92.6665C74.3938 92.7666 74.3938 92.9287 74.5872 93.0323L75.3983 93.4636C75.529 93.5271 75.6751 93.558 75.8225 93.5534C75.8911 93.5529 75.9595 93.5471 76.0271 93.5361C76.1033 93.5247 76.1765 93.5001 76.2429 93.4636L78.4753 92.2765C78.665 92.173 78.665 92.0108 78.4753 91.9107L77.6642 91.4759C77.5349 91.4125 77.39 91.3815 77.2438 91.3862ZM75.8299 93.4567C75.7661 93.4558 75.7035 93.4404 75.6476 93.4119L74.8402 92.9771C74.8092 92.9668 74.7823 92.9478 74.7632 92.9228C74.7442 92.8978 74.734 92.8679 74.734 92.8373C74.734 92.8067 74.7442 92.7768 74.7632 92.7518C74.7823 92.7268 74.8092 92.7078 74.8402 92.6975L77.0726 91.5104C77.108 91.4902 77.1471 91.4761 77.188 91.469H77.2549C77.3179 91.4708 77.3794 91.4875 77.4335 91.5173L78.2409 91.9487C78.272 91.959 78.2989 91.9779 78.3179 92.003C78.3369 92.028 78.3471 92.0578 78.3471 92.0885C78.3471 92.1191 78.3369 92.1489 78.3179 92.174C78.2989 92.199 78.272 92.2179 78.2409 92.2282L76.0085 93.4188C75.9544 93.4486 75.8929 93.4653 75.8299 93.4671V93.4567Z" fill="#455A64"/>
<path d="M75.8933 93.3221L75.8635 93.3049L75.1194 92.9149C75.0966 92.9071 75.0769 92.893 75.0631 92.8745C75.0492 92.856 75.0417 92.8339 75.0417 92.8114C75.0417 92.7889 75.0492 92.7669 75.0631 92.7484C75.0769 92.7298 75.0966 92.7157 75.1194 92.7079L77.1211 91.6381C77.1335 91.6301 77.1474 91.6243 77.162 91.6208L77.1918 91.6381L77.9359 92.0281C77.9575 92.0365 77.9759 92.0506 77.9889 92.0687C78.0019 92.0869 78.0088 92.1081 78.0088 92.1299C78.0088 92.1516 78.0019 92.1729 77.9889 92.191C77.9759 92.2091 77.9575 92.2232 77.9359 92.2317L75.9342 93.3049L75.8933 93.3221Z" fill="#455A64"/>
<path d="M77.7796 91.4207C77.8565 91.4039 77.9363 91.4022 78.0139 91.4159C78.0914 91.4296 78.165 91.4583 78.2298 91.5001L78.3787 91.5829C78.5461 91.6692 78.6168 91.7796 78.5386 91.8279L78.3935 91.9107L77.6494 91.5001L77.7796 91.4207Z" fill="#455A64"/>
<path d="M65.0661 111.698C65.6131 111.677 66.1477 111.54 66.6288 111.298C67.5366 110.811 67.771 110.148 66.3311 109.317C66.2827 109.568 66.1722 109.805 66.0082 110.01C65.8442 110.215 65.6313 110.381 65.3861 110.497C64.1509 111.16 62.7445 111.329 61.6097 110.725C60.4749 110.121 60.8656 109.224 62.1082 108.561C62.9079 108.138 63.8132 107.917 64.7338 107.92C65.6543 107.923 66.5579 108.15 67.3543 108.578C69.4565 109.703 68.9839 110.894 67.4957 111.684C66.7168 112.089 65.8493 112.325 64.9582 112.374L65.0661 111.698ZM65.5907 108.958C64.5006 108.52 63.5742 108.582 62.871 108.958C62.2794 109.272 62.1603 109.731 62.8152 110.079C63.1431 110.244 63.5134 110.322 63.8858 110.306C64.2583 110.289 64.6188 110.179 64.9285 109.986C65.1372 109.896 65.3119 109.75 65.43 109.567C65.5481 109.383 65.6041 109.171 65.5907 108.958Z" fill="#455A64"/>
<path d="M68.1955 106.788C68.4173 106.663 68.6681 106.589 68.927 106.572C69.1858 106.555 69.4453 106.596 69.6837 106.691C70.0558 106.898 69.9851 107.243 69.5088 107.495C69.2834 107.623 69.0283 107.699 68.7648 107.716C68.5013 107.733 68.2372 107.692 67.9945 107.595C67.6113 107.392 67.7081 107.043 68.1955 106.788ZM71.1013 108.344C71.3233 108.219 71.5743 108.146 71.8332 108.13C72.0921 108.114 72.3514 108.155 72.5895 108.251C72.9616 108.454 72.8909 108.799 72.4146 109.055C72.1889 109.182 71.9338 109.257 71.6705 109.274C71.4072 109.292 71.1432 109.251 70.9003 109.155C70.5208 108.951 70.6139 108.599 71.0901 108.358L71.1013 108.344Z" fill="#455A64"/>
<path d="M71.5923 106.463C69.7655 105.483 69.7655 104.465 71.2612 103.661C72.7569 102.857 74.6693 102.864 76.4924 103.84C78.3155 104.817 78.3527 105.866 76.8644 106.67C75.3762 107.474 73.4229 107.443 71.5923 106.463ZM75.2423 104.506C73.7131 103.689 72.7308 103.695 72.0277 104.072C71.3245 104.448 71.3096 104.976 72.8387 105.797C74.3679 106.618 75.4171 106.632 76.1092 106.263C76.8012 105.894 76.7751 105.328 75.2423 104.506Z" fill="#455A64"/>
<path d="M77.4113 103.347C75.5808 102.367 75.5808 101.349 77.0765 100.548C78.5722 99.7475 80.4883 99.751 82.3077 100.724C84.127 101.697 84.1903 102.753 82.6797 103.554C81.1691 104.354 79.2382 104.327 77.4113 103.347ZM81.0613 101.394C79.5284 100.572 78.5461 100.579 77.8429 100.955C77.1397 101.331 77.1248 101.859 78.6577 102.681C80.1906 103.502 81.2361 103.512 81.9244 103.143C82.6127 102.774 82.5904 102.211 81.0613 101.394Z" fill="#455A64"/>
<path d="M68.0316 119.273L97.3053 103.599C97.6514 103.437 98.0337 103.352 98.4215 103.352C98.8093 103.352 99.1916 103.437 99.5377 103.599L107.02 107.605C107.637 107.95 107.637 108.471 107.02 108.803L77.7572 124.477C77.4112 124.639 77.0288 124.723 76.6411 124.723C76.2533 124.723 75.871 124.639 75.5249 124.477L68.0316 120.47C67.414 120.139 67.414 119.604 68.0316 119.273Z" fill="#5566FF"/>
<path d="M71.1718 119.804L76.4104 122.606C76.5593 122.677 76.7245 122.715 76.8922 122.715C77.0599 122.715 77.2251 122.677 77.374 122.606L85.0943 118.465C85.3622 118.32 85.3622 118.089 85.0943 117.947L79.8557 115.142C79.7062 115.072 79.5412 115.036 79.3738 115.036C79.2065 115.036 79.0415 115.072 78.892 115.142L71.1718 119.283C71.1117 119.3 71.0592 119.335 71.0218 119.381C70.9845 119.428 70.9644 119.485 70.9644 119.543C70.9644 119.602 70.9845 119.658 71.0218 119.705C71.0592 119.752 71.1117 119.787 71.1718 119.804Z" fill="#FAFAFA"/>
<path d="M79.0745 118.455L85.2842 118.227L79.0968 118.141L79.3461 115.046L78.3304 118.866L70.9673 119.542L76.9798 119.28L76.831 122.714L77.2923 119.266L79.015 119.19L79.0745 118.455Z" fill="#5566FF"/>
<path d="M82.3336 113.679L89.8976 109.645C90.0861 109.556 90.2945 109.51 90.5059 109.51C90.7172 109.51 90.9256 109.556 91.1142 109.645C91.4453 109.821 91.4342 110.111 91.0882 110.297L83.5242 114.331C83.3356 114.42 83.1272 114.466 82.9158 114.466C82.7045 114.466 82.4961 114.42 82.3075 114.331C81.9801 114.155 81.995 113.879 82.3336 113.679Z" fill="#FAFAFA"/>
<path d="M84.6666 114.914L99.9955 106.698C100.184 106.609 100.392 106.563 100.604 106.563C100.815 106.563 101.024 106.609 101.212 106.698C101.543 106.874 101.532 107.167 101.186 107.35L85.8572 115.566C85.6679 115.655 85.4589 115.701 85.247 115.701C85.0351 115.701 84.8261 115.655 84.6368 115.566C84.3094 115.401 84.3206 115.111 84.6666 114.914Z" fill="#FAFAFA"/>
<path d="M86.9919 116.17L102.325 107.954C102.513 107.865 102.721 107.819 102.933 107.819C103.144 107.819 103.353 107.865 103.541 107.954C103.869 108.13 103.857 108.423 103.515 108.606L88.1825 116.823C87.9939 116.911 87.7855 116.957 87.5741 116.957C87.3628 116.957 87.1544 116.911 86.9658 116.823C86.6347 116.64 86.6496 116.357 86.9919 116.17Z" fill="#FAFAFA"/>
<path d="M64.6794 62.6472L114.305 36.0754L116.292 37.1383C116.563 37.3036 116.788 37.5255 116.949 37.7862C117.111 38.047 117.204 38.3392 117.222 38.6394V72.5926C117.205 72.893 117.111 73.1853 116.95 73.4461C116.788 73.7068 116.563 73.9287 116.292 74.0938L68.5303 99.6648C68.2413 99.7982 67.9229 99.8676 67.6001 99.8676C67.2773 99.8676 66.9589 99.7982 66.67 99.6648L65.6208 99.1023C65.3496 98.937 65.124 98.7151 64.9618 98.4545C64.7997 98.1938 64.7055 97.9016 64.6869 97.6012L64.6794 62.6472Z" fill="#5566FF"/>
<path opacity="0.05" d="M64.6794 62.6472L114.305 36.0754L116.292 37.1383C116.563 37.3036 116.788 37.5255 116.949 37.7862C117.111 38.047 117.204 38.3392 117.222 38.6394V72.5926C117.205 72.893 117.111 73.1853 116.95 73.4461C116.788 73.7068 116.563 73.9287 116.292 74.0938L68.5303 99.6648C68.2413 99.7982 67.9229 99.8676 67.6001 99.8676C67.2773 99.8676 66.9589 99.7982 66.67 99.6648L65.6208 99.1023C65.3496 98.937 65.124 98.7151 64.9618 98.4545C64.7997 98.1938 64.7055 97.9016 64.6869 97.6012L64.6794 62.6472Z" fill="black"/>
<path d="M114.03 33.0873L114.234 32.9837L113.464 32.5696C113.397 32.5348 113.328 32.5048 113.256 32.4799L91.4157 24.9743C91.1163 24.8811 90.7927 24.8787 90.4917 24.9674C90.1907 25.0561 89.928 25.2313 89.7415 25.4677L65.3082 58.5582C64.9289 59.1288 64.7125 59.7796 64.6794 60.4493V62.6475L65.4236 63.0547L114.294 36.0723V33.8741C114.287 33.5941 114.195 33.3215 114.03 33.0873Z" fill="#5566FF"/>
<path opacity="0.1" d="M90.7498 25.6296C90.6525 25.7002 90.5672 25.784 90.4968 25.8781L66.0635 58.9686C65.8628 59.2613 65.7098 59.5799 65.6096 59.9141L64.8655 59.5069C64.9205 59.3367 64.9864 59.1696 65.0627 59.0065C65.0962 58.9375 65.1296 58.8719 65.1668 58.8064V58.7753C65.2055 58.7061 65.249 58.6392 65.2971 58.5752L89.7378 25.4709C89.7746 25.4218 89.8156 25.3757 89.8605 25.3328L89.9908 25.2224L90.7498 25.6296Z" fill="black"/>
<path opacity="0.35" d="M114.223 32.9834C114.157 32.9462 114.087 32.915 114.014 32.8903L92.1708 25.3811C91.9306 25.3071 91.6741 25.291 91.4254 25.3345C91.1767 25.3779 90.9441 25.4795 90.7495 25.6296L90.0054 25.2224C90.2015 25.0737 90.4348 24.9731 90.6837 24.9297C90.9327 24.8863 91.1894 24.9015 91.4304 24.9739L113.27 32.4796C113.342 32.5043 113.41 32.5355 113.475 32.5728L114.223 32.9834Z" fill="white"/>
<path d="M65.178 58.758C65.2175 58.6892 65.261 58.6224 65.3082 58.5579C65.261 58.6224 65.2175 58.6892 65.178 58.758Z" fill="#5566FF"/>
<path d="M89.864 25.3335C89.9038 25.2929 89.9474 25.2558 89.9942 25.2224C89.9466 25.2549 89.9029 25.2921 89.864 25.3335Z" fill="#5566FF"/>
<path d="M64.8467 59.5072C64.9017 59.3359 64.9676 59.1676 65.0439 59.0034C64.9676 59.1676 64.9017 59.3359 64.8467 59.5072Z" fill="#5566FF"/>
<path d="M65.0552 58.9894C65.0887 58.9204 65.1259 58.8548 65.1594 58.7927C65.1259 58.8548 65.0887 58.9204 65.0552 58.9894Z" fill="#5566FF"/>
<path opacity="0.2" d="M65.1592 58.7935C65.1592 58.7935 65.1592 58.7688 65.1592 58.7583C65.1592 58.7478 65.1668 58.7829 65.1592 58.7935Z" fill="black"/>
<path opacity="0.2" d="M89.7412 25.4682C89.7769 25.4192 89.8181 25.3738 89.864 25.3328C89.817 25.3728 89.7758 25.4183 89.7412 25.4682Z" fill="black"/>
<path d="M90.4966 25.8814L66.0671 58.9754C65.6845 59.5436 65.4666 60.1938 65.4346 60.863V63.0612L115.06 36.4894V34.2809C115.042 33.9833 114.934 33.6965 114.749 33.4526C114.564 33.2088 114.31 33.0176 114.015 32.9005L92.1746 25.3949C91.8752 25.3029 91.5522 25.3004 91.2512 25.3876C90.9501 25.4749 90.6862 25.6477 90.4966 25.8814Z" fill="#5566FF"/>
<path d="M70.8368 95.0407L69.2444 94.1883C69.113 94.0954 69.0097 93.9725 68.9445 93.8316C68.8793 93.6908 68.8545 93.5367 68.8723 93.3843V47.3634C68.8932 46.8962 69.0472 46.4425 69.3188 46.0486L70.9373 46.9113C70.6634 47.3068 70.5092 47.7633 70.4908 48.233V94.2367C70.471 94.3868 70.4923 94.5392 70.5528 94.6798C70.6133 94.8203 70.711 94.9444 70.8368 95.0407Z" fill="#E0E0E0"/>
<path d="M71.8306 46.0347L111.693 24.6945C112.437 24.2873 113.059 24.6151 113.059 25.4261V71.4332C113.034 71.8735 112.897 72.3021 112.66 72.6841C112.423 73.0661 112.091 73.3907 111.693 73.6314L71.8306 94.9682C71.0864 95.372 70.4651 95.0441 70.4651 94.2332V48.2329C70.4908 47.7929 70.6278 47.3646 70.865 46.9827C71.1022 46.6009 71.433 46.2761 71.8306 46.0347Z" fill="#F0F0F0"/>
<path d="M111.042 23.7387L112.604 24.5807C112.453 24.5284 112.29 24.512 112.13 24.5331C111.97 24.5542 111.819 24.6121 111.689 24.7015L71.8302 46.0383C71.4479 46.2521 71.1304 46.5525 70.9075 46.9113L69.2891 46.0486C69.5136 45.6903 69.8291 45.3882 70.2081 45.1686L110.071 23.8111C110.209 23.7166 110.373 23.6592 110.544 23.6452C110.715 23.6312 110.888 23.6612 111.042 23.7318V23.7387Z" fill="#FAFAFA"/>
<path d="M74.9409 48.4434L108.088 30.6921C108.534 30.454 108.895 30.6231 108.895 31.0717C108.875 31.3225 108.791 31.5653 108.651 31.7806C108.511 31.9958 108.318 32.1774 108.088 32.3105L74.9409 50.0619C74.4944 50.3 74.1335 50.1309 74.1335 49.6857C74.1532 49.4343 74.2366 49.1908 74.3769 48.9749C74.5172 48.759 74.7104 48.5769 74.9409 48.4434Z" fill="#E0E0E0"/>
<path d="M74.9409 51.67L108.088 33.9186C108.534 33.6805 108.895 33.8496 108.895 34.2982C108.875 34.549 108.791 34.7919 108.651 35.0071C108.511 35.2224 108.318 35.4039 108.088 35.5371L74.9409 53.2884C74.4944 53.5265 74.1335 53.3575 74.1335 52.9123C74.1532 52.6609 74.2366 52.4173 74.3769 52.2015C74.5172 51.9856 74.7104 51.8035 74.9409 51.67Z" fill="#E0E0E0"/>
<path d="M74.9409 54.8966L108.088 37.1453C108.534 36.9072 108.895 37.0763 108.895 37.5215C108.876 37.7729 108.792 38.0164 108.652 38.2323C108.512 38.4482 108.318 38.6303 108.088 38.7638L74.9409 56.5151C74.4944 56.7532 74.1335 56.5841 74.1335 56.139C74.1532 55.8876 74.2366 55.644 74.3769 55.4281C74.5172 55.2123 74.7104 55.0302 74.9409 54.8966Z" fill="#E0E0E0"/>
<path d="M74.9409 58.1232L108.088 40.3753C108.534 40.1372 108.895 40.3063 108.895 40.7514C108.876 41.0028 108.792 41.2464 108.652 41.4623C108.512 41.6781 108.318 41.8602 108.088 41.9938L74.9409 59.7451C74.4944 59.9832 74.1335 59.8141 74.1335 59.3655C74.1532 59.1141 74.2366 58.8705 74.3769 58.6547C74.5172 58.4388 74.7104 58.2567 74.9409 58.1232Z" fill="#E0E0E0"/>
<path d="M74.9409 61.3498L108.088 43.5984C108.534 43.3603 108.895 43.5294 108.895 43.9746C108.876 44.226 108.792 44.4695 108.652 44.6854C108.512 44.9013 108.318 45.0834 108.088 45.2169L74.9409 62.9682C74.4944 63.2063 74.1335 63.0372 74.1335 62.5886C74.1538 62.3378 74.2374 62.095 74.3777 61.8797C74.5179 61.6645 74.7109 61.4829 74.9409 61.3498Z" fill="#E0E0E0"/>
<path d="M74.9409 64.5763L108.088 46.825C108.534 46.5869 108.895 46.756 108.895 47.2011C108.876 47.4525 108.792 47.6961 108.652 47.912C108.512 48.1278 108.318 48.3099 108.088 48.4435L74.9409 66.1948C74.4944 66.4329 74.1335 66.2638 74.1335 65.8152C74.1538 65.5644 74.2374 65.3215 74.3777 65.1063C74.5179 64.8911 74.7109 64.7095 74.9409 64.5763Z" fill="#E0E0E0"/>
<path d="M74.9409 67.8025L108.088 50.0374C108.534 49.7993 108.895 49.9684 108.895 50.4135C108.876 50.6649 108.792 50.9085 108.652 51.1244C108.512 51.3402 108.318 51.5223 108.088 51.6559L74.9409 69.4072C74.4944 69.6453 74.1335 69.4762 74.1335 69.0276C74.156 68.7792 74.2407 68.5391 74.3809 68.3264C74.521 68.1137 74.7128 67.9343 74.9409 67.8025Z" fill="#E0E0E0"/>
<path d="M74.9409 71.0295L108.088 53.2782C108.534 53.0366 108.895 53.2092 108.895 53.6543C108.876 53.9057 108.792 54.1493 108.652 54.3652C108.512 54.581 108.318 54.7631 108.088 54.8967L74.9409 72.648C74.4944 72.8861 74.1335 72.717 74.1335 72.2684C74.1538 72.0176 74.2374 71.7747 74.3777 71.5595C74.5179 71.3442 74.7109 71.1627 74.9409 71.0295Z" fill="#E0E0E0"/>
<path d="M115.964 73.0413C115.95 73.0659 115.932 73.089 115.912 73.1103L95.2331 64.6039C94.448 64.2817 93.5638 64.2335 92.7434 64.4681C91.923 64.7027 91.2216 65.2044 90.7684 65.8807L68.6605 98.7814L67.842 99.2196C67.7508 99.2787 67.6452 99.3156 67.5347 99.327C67.4242 99.3385 67.3124 99.3241 67.2095 99.2852L89.9461 65.4459C90.4004 64.7706 91.1016 64.2696 91.9214 64.0345C92.7413 63.7994 93.625 63.846 94.4108 64.1656L115.964 73.0413Z" fill="#5566FF"/>
<path opacity="0.4" d="M88.7256 68.8729L88.7777 68.8315L68.6529 98.7851L67.8344 99.2233C67.7428 99.2815 67.6373 99.3179 67.527 99.3293C67.4167 99.3408 67.3051 99.3269 67.2019 99.2889L87.9145 68.4312L88.7256 68.8729Z" fill="white"/>
<path opacity="0.4" d="M115.965 73.0445C115.95 73.0691 115.932 73.0922 115.912 73.1135L95.2296 64.6036C94.4444 64.2815 93.5602 64.2332 92.7398 64.4679C91.9194 64.7025 91.218 65.2042 90.7648 65.8805L89.9463 65.4387C90.4023 64.7653 91.1042 64.2664 91.9239 64.0333C92.7436 63.8001 93.6264 63.8482 94.411 64.1688L115.965 73.0445Z" fill="white"/>
<path d="M117.207 38.4186C117.162 38.1702 117.021 38.1012 116.835 38.2185C116.743 38.2821 116.662 38.359 116.597 38.4463L116.492 38.5808L96.0998 64.9317L93.0526 68.8692C92.8565 69.0986 92.5966 69.2742 92.301 69.3769C92.0053 69.4797 91.6851 69.5058 91.3746 69.4524L88.7442 68.8727L68.6529 64.4417C68.5178 64.4162 68.3786 64.4162 68.2436 64.4417C68.1912 64.4515 68.14 64.4666 68.0911 64.4866L68.6454 64.1898L87.9926 68.4585L90.6305 69.0176C90.941 69.0717 91.2615 69.046 91.5573 68.9432C91.8531 68.8404 92.1129 68.6644 92.3085 68.4344L95.3557 64.5004L115.864 38.0149C115.926 37.9362 116.005 37.8694 116.094 37.8182L114.331 36.8761L115.075 36.4792L116.303 37.1349C116.538 37.2821 116.739 37.4716 116.895 37.692C117.05 37.9125 117.156 38.1595 117.207 38.4186Z" fill="#5566FF"/>
<path opacity="0.4" d="M96.1 64.9316L93.0529 68.8691C92.8567 69.0985 92.5968 69.274 92.3012 69.3768C92.0055 69.4795 91.6853 69.5056 91.3749 69.4523L88.7444 68.8725L88.7965 68.8311L88.923 68.6448L90.6456 69.0244C90.9561 69.0785 91.2766 69.0528 91.5724 68.95C91.8682 68.8472 92.128 68.6712 92.3236 68.4412L95.341 64.5486L96.1 64.9316Z" fill="white"/>
<path opacity="0.1" d="M116.288 37.1349L115.06 36.4792L114.316 36.8761L116.091 37.8251C116.001 37.8765 115.923 37.9433 115.86 38.0218L95.3557 64.5073L95.3259 64.5452L96.0701 64.9283L116.489 38.5808L116.593 38.4463C116.659 38.359 116.739 38.2821 116.831 38.2185C117.013 38.1012 117.155 38.1702 117.203 38.4186C117.151 38.1587 117.043 37.9112 116.886 37.6906C116.729 37.4701 116.525 37.2811 116.288 37.1349Z" fill="black"/>
<path d="M69.0549 64.9938L64.6794 62.6472V97.6012C64.6981 97.9016 64.7922 98.1938 64.9544 98.4545C65.1165 98.7151 65.3422 98.937 65.6133 99.1023L66.6625 99.6648C66.9515 99.7982 67.2699 99.8677 67.5927 99.8677C67.9155 99.8677 68.2339 99.7982 68.5228 99.6648L69.0474 99.3818L69.0549 64.9938Z" fill="#5566FF"/>
<path opacity="0.15" d="M69.0549 64.9938L64.6794 62.6472V97.6012C64.6981 97.9016 64.7922 98.1938 64.9544 98.4545C65.1165 98.7151 65.3422 98.937 65.6133 99.1023L66.6625 99.6648C66.9515 99.7982 67.2699 99.8677 67.5927 99.8677C67.9155 99.8677 68.2339 99.7982 68.5228 99.6648L69.0474 99.3818L69.0549 64.9938Z" fill="black"/>
<path d="M116.493 38.5808V72.1648C116.483 72.4759 116.383 72.7787 116.202 73.0413C116.066 73.264 115.879 73.457 115.655 73.6072L115.622 73.6279L115.559 73.6659L67.801 99.2369C67.7437 99.2697 67.6825 99.2963 67.6187 99.3163C67.6147 99.2646 67.6147 99.2127 67.6187 99.161V65.2216C67.6104 65.1 67.6341 64.9784 67.6877 64.8671C67.7413 64.7559 67.8232 64.6584 67.9265 64.5831C68.0297 64.5077 68.1511 64.4567 68.2802 64.4345C68.4094 64.4123 68.5424 64.4195 68.6679 64.4555L88.7592 68.8864L91.3897 69.4662C91.7001 69.5195 92.0203 69.4934 92.316 69.3907C92.6116 69.2879 92.8715 69.1124 93.0676 68.883L96.0999 64.9317L116.493 38.5808Z" fill="#455A64"/>
<path d="M117.226 38.6499V72.6031C117.214 72.9139 117.114 73.2163 116.935 73.4797C116.797 73.7019 116.611 73.8957 116.388 74.049L116.351 74.0663C116.332 74.0801 116.312 74.0928 116.292 74.1043L68.534 99.6615C68.4427 99.7216 68.3366 99.7595 68.2254 99.7716C68.1142 99.7836 68.0015 99.7695 67.8977 99.7305C67.8185 99.6876 67.7517 99.6275 67.7031 99.5554C67.6545 99.4833 67.6255 99.4012 67.6187 99.3164C67.6147 99.2647 67.6147 99.2128 67.6187 99.1611V65.2217C67.6104 65.1001 67.6341 64.9785 67.6877 64.8673C67.7413 64.756 67.8232 64.6585 67.9265 64.5832C68.0297 64.5078 68.1511 64.4568 68.2802 64.4346C68.4094 64.4124 68.5424 64.4196 68.6679 64.4556L88.7592 68.8865L91.3897 69.4663C91.7001 69.5196 92.0203 69.4935 92.316 69.3908C92.6116 69.288 92.8715 69.1125 93.0677 68.8831L96.0999 64.9318L116.507 38.5809L116.612 38.4463C116.935 38.0012 117.226 38.084 117.226 38.6499Z" fill="#5566FF"/>
<path d="M116.292 74.0903L116.351 74.0523L116.388 74.0351C116.61 73.8817 116.797 73.6879 116.935 73.4657C117.109 73.2069 117.208 72.9109 117.222 72.6064L96.0999 64.9316L110.238 77.3306L116.292 74.0903Z" fill="#5566FF"/>
<path opacity="0.2" d="M116.292 74.0903L116.351 74.0523L116.388 74.0351C116.61 73.8817 116.797 73.6879 116.935 73.4657C117.109 73.2069 117.208 72.9109 117.222 72.6064L96.0999 64.9316L110.238 77.3306L116.292 74.0903Z" fill="black"/>
<path d="M67.5999 99.1643C67.5862 99.2749 67.6062 99.3868 67.6575 99.4874C67.7087 99.588 67.7893 99.6734 67.8901 99.7337C67.9938 99.7728 68.1065 99.7869 68.2177 99.7748C68.3289 99.7628 68.4351 99.7249 68.5263 99.6647L84.9677 90.8615L88.7218 68.876L67.5999 98.5984V99.1643Z" fill="#5566FF"/>
<path opacity="0.15" d="M90.7533 65.8775L67.8864 99.7306C67.7856 99.6702 67.7051 99.5849 67.6538 99.4843C67.6025 99.3837 67.5826 99.2718 67.5962 99.1612V98.5988L87.7731 68.6727L87.9294 68.4415L89.9348 65.46L90.7533 65.8775Z" fill="black"/>
<path d="M116.935 73.466C116.797 73.6883 116.611 73.882 116.388 74.0354L116.351 74.0526L68.5339 99.6616C68.4427 99.7218 68.3366 99.7597 68.2254 99.7717C68.1141 99.7838 68.0015 99.7697 67.8977 99.7306L90.7646 65.8672C91.2232 65.1878 91.9303 64.6845 92.7564 64.4494C93.5825 64.2143 94.4723 64.2631 95.2628 64.5869L116.935 73.466Z" fill="#5566FF"/>
<path d="M116.935 73.4693C116.799 73.692 116.612 73.885 116.388 74.0353L116.355 74.056L68.53 99.6649C68.4382 99.724 68.3319 99.7609 68.2208 99.7723C68.1098 99.7838 67.9974 99.7694 67.8938 99.7305L68.53 98.7919L115.525 73.6211L115.562 73.6004C115.76 73.466 115.928 73.2972 116.057 73.1035L116.935 73.4693Z" fill="#5566FF"/>
<path opacity="0.15" d="M64.847 59.5071L65.5911 59.9143C65.4856 60.2204 65.4268 60.5386 65.4162 60.8598V63.0546L64.6721 62.6474V60.4492C64.683 60.1291 64.7419 59.8121 64.847 59.5071Z" fill="black"/>
<path d="M69.3412 64.3312L68.6417 64.1759L68.0874 64.4727L67.3209 64.062L65.4346 63.0544L66.1675 62.6506L69.3412 64.3312Z" fill="#5566FF"/>
<path opacity="0.1" d="M69.3416 64.3312L66.1716 62.6541L65.4275 63.0578L67.3138 64.0655L68.0803 64.4761C68.1248 64.4556 68.1725 64.4416 68.2217 64.4347C68.3567 64.4091 68.4959 64.4091 68.6309 64.4347L70.175 64.7798L87.7735 68.6724L87.9297 68.4412L69.3416 64.3312Z" fill="black"/>
<path d="M126.051 65.684L122.52 63.7861L122.49 63.7688C120.95 62.9613 118.833 63.0786 116.493 64.3382C111.782 66.8608 107.961 72.9965 107.961 78.0416C107.961 80.5608 108.917 82.3311 110.454 83.1593L113.672 84.8847L114.416 83.7149C115.276 83.5382 116.102 83.2403 116.865 82.8315C121.575 80.3089 125.396 74.1732 125.396 69.128C125.395 68.4464 125.305 67.7673 125.128 67.1058L126.051 65.684Z" fill="#F28F8F"/>
<path opacity="0.15" d="M108.274 75.3877C108.066 76.2604 107.957 77.1511 107.95 78.0449C107.95 80.564 108.906 82.3343 110.443 83.1625L113.661 84.888L114.405 83.7181C115.265 83.5414 116.091 83.2435 116.854 82.8347C117.687 82.3822 118.467 81.8489 119.179 81.2438L108.274 75.3877Z" fill="black"/>
<path d="M119.841 66.1359C115.131 68.6585 111.31 74.7941 111.31 79.8393C111.31 84.8845 115.131 86.9309 119.841 84.4083C124.551 81.8857 128.373 75.75 128.373 70.7048C128.373 65.6596 124.555 63.6133 119.841 66.1359Z" fill="#FFA8A7"/>
<path d="M123.212 73.1586V71.2192C123.212 69.0072 121.761 67.9892 119.975 68.9486C118.185 69.9079 116.734 72.4754 116.734 74.6874V76.4128C116.695 77.6101 116.319 78.7771 115.644 79.7981C115.478 80.0688 115.387 80.3736 115.38 80.685C115.38 81.2406 115.752 81.4994 116.195 81.2578L123.759 77.2065C124.007 77.0412 124.21 76.8243 124.351 76.5732C124.493 76.3222 124.569 76.0439 124.574 75.7606C124.585 75.6524 124.57 75.5432 124.529 75.4415C124.487 75.3397 124.421 75.2482 124.336 75.1739C123.651 74.9048 123.212 74.1939 123.212 73.1586Z" fill="white"/>
<path d="M121.527 79.0251C121.527 80.088 120.831 81.32 119.975 81.7858C119.119 82.2517 118.42 81.7582 118.42 80.6988L121.527 79.0251Z" fill="white"/>
</svg>
