<svg width="25" height="24" viewBox="0 0 25 24" fill="none" xmlns="http://www.w3.org/2000/svg">
<path d="M19.1714 4H5.17139C4.6191 4 4.17139 4.44772 4.17139 5V19C4.17139 19.5523 4.6191 20 5.17139 20H19.1714C19.7237 20 20.1714 19.5523 20.1714 19V5C20.1714 4.44772 19.7237 4 19.1714 4Z" stroke="#919EAB" stroke-width="1.5" stroke-linecap="round" stroke-linejoin="round"/>
<path d="M16.1714 16H16.1734V16.002H16.1714V16Z" stroke="#919EAB" stroke-width="1.5" stroke-linecap="round" stroke-linejoin="round"/>
<path d="M12.1714 16H12.1734V16.002H12.1714V16Z" stroke="#919EAB" stroke-width="1.5" stroke-linecap="round" stroke-linejoin="round"/>
<path d="M8.17139 16H8.17339V16.002H8.17139V16Z" stroke="#919EAB" stroke-width="1.5" stroke-linecap="round" stroke-linejoin="round"/>
<path d="M16.1714 12H16.1734V12.002H16.1714V12Z" stroke="#919EAB" stroke-width="1.5" stroke-linecap="round" stroke-linejoin="round"/>
<path d="M12.1714 12H12.1734V12.002H12.1714V12Z" stroke="#919EAB" stroke-width="1.5" stroke-linecap="round" stroke-linejoin="round"/>
<path d="M8.17139 12H8.17339V12.002H8.17139V12Z" stroke="#919EAB" stroke-width="1.5" stroke-linecap="round" stroke-linejoin="round"/>
<path d="M4.17139 8H20.1714" stroke="#919EAB" stroke-width="1.5" stroke-linecap="round" stroke-linejoin="round"/>
<path d="M16.1714 2V4" stroke="#919EAB" stroke-width="1.5" stroke-linecap="round" stroke-linejoin="round"/>
<path d="M8.17139 2V4" stroke="#919EAB" stroke-width="1.5" stroke-linecap="round" stroke-linejoin="round"/>
</svg>
