<svg width="24" height="24" viewBox="0 0 24 24" fill="none" xmlns="http://www.w3.org/2000/svg">
<g clip-path="url(#clip0_1121_9792)">
<path fill-rule="evenodd" clip-rule="evenodd" d="M6.48193 3.25C3.85858 3.25 1.73193 5.37665 1.73193 8V8.5V16C1.73193 18.6234 3.85858 20.75 6.48193 20.75H10.8686C12.0795 22.559 14.1416 23.75 16.4819 23.75C20.1517 23.75 23.1375 20.8215 23.2297 17.1739C23.2431 17.1176 23.2501 17.0588 23.25 16.9984L23.2319 8.5L23.2319 8.49841L23.2319 8C23.2319 5.37665 21.1053 3.25 18.4819 3.25H6.48193ZM21.741 12.7682L21.7335 9.25H3.23193V16C3.23193 17.7949 4.68701 19.25 6.48193 19.25H10.116C9.86728 18.5462 9.73193 17.7889 9.73193 17C9.73193 13.2721 12.754 10.25 16.4819 10.25C18.6076 10.25 20.5037 11.2325 21.741 12.7682ZM21.7225 7.75H3.24141C3.36906 6.07189 4.77113 4.75 6.48193 4.75H18.4819C20.1927 4.75 21.5948 6.07189 21.7225 7.75ZM16.4819 11.75C13.5824 11.75 11.2319 14.1005 11.2319 17C11.2319 19.8995 13.5824 22.25 16.4819 22.25C19.3814 22.25 21.7319 19.8995 21.7319 17C21.7319 14.1005 19.3814 11.75 16.4819 11.75ZM19.5471 14.9566C19.8472 15.2421 19.8591 15.7168 19.5736 16.0169L16.2444 19.5169C16.1028 19.6657 15.9064 19.75 15.701 19.75C15.4955 19.75 15.2991 19.6657 15.1575 19.5169L13.7307 18.0169C13.4453 17.7168 13.4571 17.2421 13.7573 16.9566C14.0574 16.6711 14.5321 16.683 14.8176 16.9831L15.701 17.9118L18.4867 14.9831C18.7722 14.683 19.2469 14.6711 19.5471 14.9566Z" fill="#5566FF"/>
</g>
<defs>
<clipPath id="clip0_1121_9792">
<rect width="22.8287" height="24" fill="white" transform="translate(0.481934)"/>
</clipPath>
</defs>
</svg>
