<svg width="77" height="84" viewBox="0 0 77 84" fill="none" xmlns="http://www.w3.org/2000/svg">
<path d="M5.81707 5.77776V6.71844H0.421683V5.77776H5.81707ZM3.62215 3.48012V9.2107H2.62201V3.48012H3.62215Z" fill="#FD9A57"/>
<path d="M5.81707 23.3921V24.3328H0.421683V23.3921H5.81707ZM3.62215 21.0945V26.8251H2.62201V21.0945H3.62215Z" fill="#D2D2D2"/>
<path d="M5.81707 41.0065V41.9472H0.421683V41.0065H5.81707ZM3.62215 38.7089V44.4395H2.62201V38.7089H3.62215Z" fill="#D2D2D2"/>
<path d="M23.4313 5.77776V6.71844H18.0359V5.77776H23.4313ZM21.2364 3.48012V9.2107H20.2363V3.48012H21.2364Z" fill="#D2D2D2"/>
<path d="M23.4313 23.3921V24.3328H18.0359V23.3921H23.4313ZM21.2364 21.0945V26.8251H20.2363V21.0945H21.2364Z" fill="#D2D2D2"/>
<path d="M23.4313 41.0065V41.9472H18.0359V41.0065H23.4313ZM21.2364 38.7089V44.4395H20.2363V38.7089H21.2364Z" fill="#D2D2D2"/>
<path d="M23.4313 58.6209V59.5616H18.0359V58.6209H23.4313ZM21.2364 56.3233V62.0538H20.2363V56.3233H21.2364Z" fill="#D2D2D2"/>
<path d="M41.0458 5.77776V6.71844H35.6504V5.77776H41.0458ZM38.8509 3.48012V9.2107H37.8508V3.48012H38.8509Z" fill="#D2D2D2"/>
<path d="M41.0458 23.3921V24.3328H35.6504V23.3921H41.0458ZM38.8509 21.0945V26.8251H37.8508V21.0945H38.8509Z" fill="#D2D2D2"/>
<path d="M41.0458 41.0065V41.9472H35.6504V41.0065H41.0458ZM38.8509 38.7089V44.4395H37.8508V38.7089H38.8509Z" fill="#001AFF"/>
<path d="M41.0458 58.6209V59.5616H35.6504V58.6209H41.0458ZM38.8509 56.3233V62.0538H37.8508V56.3233H38.8509Z" fill="#D2D2D2"/>
<path d="M41.0458 76.2353V77.176H35.6504V76.2353H41.0458ZM38.8509 73.9376V79.6682H37.8508V73.9376H38.8509Z" fill="#D2D2D2"/>
<path d="M58.6601 5.77776V6.71844H53.2647V5.77776H58.6601ZM56.4652 3.48012V9.2107H55.465V3.48012H56.4652Z" fill="#D2D2D2"/>
<path d="M58.6601 23.3921V24.3328H53.2647V23.3921H58.6601ZM56.4652 21.0945V26.8251H55.465V21.0945H56.4652Z" fill="#D2D2D2"/>
<path d="M58.6601 41.0065V41.9472H53.2647V41.0065H58.6601ZM56.4652 38.7089V44.4395H55.465V38.7089H56.4652Z" fill="#D2D2D2"/>
<path d="M58.6601 58.6209V59.5616H53.2647V58.6209H58.6601ZM56.4652 56.3233V62.0538H55.465V56.3233H56.4652Z" fill="#D2D2D2"/>
<path d="M58.6601 76.2353V77.176H53.2647V76.2353H58.6601ZM56.4652 73.9376V79.6682H55.465V73.9376H56.4652Z" fill="#D2D2D2"/>
<path d="M76.2746 5.77776V6.71844H70.8792V5.77776H76.2746ZM74.0797 3.48012V9.2107H73.0795V3.48012H74.0797Z" fill="#D2D2D2"/>
<path d="M76.2746 23.3921V24.3328H70.8792V23.3921H76.2746ZM74.0797 21.0945V26.8251H73.0795V21.0945H74.0797Z" fill="#D2D2D2"/>
<path d="M76.2746 41.0065V41.9472H70.8792V41.0065H76.2746ZM74.0797 38.7089V44.4395H73.0795V38.7089H74.0797Z" fill="#D2D2D2"/>
<path d="M76.2746 58.6209V59.5616H70.8792V58.6209H76.2746ZM74.0797 56.3233V62.0538H73.0795V56.3233H74.0797Z" fill="#D2D2D2"/>
<path d="M76.2746 76.2353V77.176H70.8792V76.2353H76.2746ZM74.0797 73.9376V79.6682H73.0795V73.9376H74.0797Z" fill="#D2D2D2"/>
</svg>
