<svg width="24" height="24" viewBox="0 0 24 24" fill="none" xmlns="http://www.w3.org/2000/svg">
<path fill-rule="evenodd" clip-rule="evenodd" d="M13.9024 6C13.9024 4.9 13.0464 4 12 4C10.9537 4 10.0977 4.9 10.0977 6C10.0977 7.1 10.9537 8 12 8C13.0464 8 13.9024 7.1 13.9024 6ZM13.9024 18C13.9024 16.9 13.0464 16 12 16C10.9537 16 10.0977 16.9 10.0977 18C10.0977 19.1 10.9537 20 12 20C13.0464 20 13.9024 19.1 13.9024 18ZM12 10C13.0464 10 13.9024 10.9 13.9024 12C13.9024 13.1 13.0464 14 12 14C10.9537 14 10.0977 13.1 10.0977 12C10.0977 10.9 10.9537 10 12 10Z" fill="#8F8F8F"/>
</svg>
