<svg width="23" height="24" viewBox="0 0 23 24" fill="none" xmlns="http://www.w3.org/2000/svg">
<path fill-rule="evenodd" clip-rule="evenodd" d="M11.1739 3.03263C11.3327 3.00149 11.496 3.00149 11.6548 3.03263C11.8088 3.06281 11.969 3.13863 12.5543 3.44633L19.6261 7.16367C19.9928 7.3564 20.4462 7.21541 20.639 6.84877C20.8317 6.48212 20.6907 6.02866 20.3241 5.83593L13.2522 2.11859L13.1708 2.0757C12.7059 1.83094 12.3404 1.63848 11.9434 1.56065C11.594 1.49216 11.2347 1.49215 10.8853 1.56064C10.4883 1.63848 10.1228 1.83093 9.65797 2.07569L9.57648 2.11858L2.50458 5.83593C2.13794 6.02866 1.99695 6.48212 2.18967 6.84876C2.3824 7.21541 2.83586 7.3564 3.20251 7.16367L10.2744 3.44632C10.8598 3.13863 11.0199 3.06281 11.1739 3.03263ZM11.1739 7.03263C11.3327 7.00149 11.496 7.00149 11.6548 7.03263C11.8088 7.06281 11.969 7.13863 12.5543 7.44633L17.1536 9.86397C18.037 10.3283 18.3359 10.4941 18.5545 10.7095C18.8222 10.9734 19.0195 11.3 19.1284 11.6597C19.2174 11.9534 19.2251 12.2951 19.2251 13.2931V15.0548C19.2251 15.9597 19.223 16.3297 19.1784 16.6284C18.9021 18.4761 17.4514 19.9268 15.6036 20.2031C15.3689 20.2382 15.0902 20.247 14.5423 20.2491V16.8778C14.5423 15.1502 13.1419 13.7498 11.4143 13.7498C9.68679 13.7498 8.28634 15.1502 8.28634 16.8778V20.2491C7.73849 20.2469 7.45973 20.2382 7.22504 20.2031C5.37725 19.9268 3.9266 18.4761 3.65029 16.6283C3.60563 16.3297 3.60355 15.9597 3.60355 15.0548L3.60355 13.2931C3.60355 12.2951 3.61122 11.9534 3.7002 11.6597C3.80917 11.3 4.00649 10.9734 4.27416 10.7095C4.49273 10.4941 4.79167 10.3283 5.67504 9.86398L10.2744 7.44632C10.8598 7.13863 11.0199 7.06281 11.1739 7.03263ZM11.9434 5.56065C11.594 5.49216 11.2347 5.49215 10.8853 5.56064C10.4883 5.63848 10.1228 5.83093 9.65797 6.07569L9.57648 6.11858L4.97711 8.53624L4.87718 8.58874C4.13246 8.97985 3.61828 9.24989 3.22124 9.64121C2.77513 10.0809 2.44625 10.6253 2.26464 11.2248C2.103 11.7583 2.10321 12.3391 2.10352 13.1802L2.10355 13.2931L2.10355 15.0548L2.10355 15.1312C2.10349 15.9363 2.10345 16.4267 2.16678 16.8502C2.54061 19.3501 4.50326 21.3127 7.00321 21.6866C7.42672 21.7499 7.91709 21.7499 8.72218 21.7498H8.72221L8.79854 21.7498L8.80169 21.7498C8.81969 21.75 8.89943 21.7509 8.97684 21.7393C9.38987 21.6776 9.71413 21.3533 9.77589 20.9403C9.78747 20.8629 9.78657 20.7831 9.78637 20.7651L9.78634 20.762V16.8778C9.78634 15.9787 10.5152 15.2498 11.4143 15.2498C12.3134 15.2498 13.0423 15.9787 13.0423 16.8778V20.762L13.0423 20.7652C13.0421 20.7832 13.0412 20.8629 13.0528 20.9403C13.1145 21.3533 13.4388 21.6776 13.8518 21.7394C13.9292 21.7509 14.009 21.75 14.027 21.7498L14.0301 21.7498L14.1065 21.7498C14.9116 21.7499 15.402 21.7499 15.8255 21.6866C18.3254 21.3128 20.288 19.3501 20.6619 16.8502C20.7252 16.4267 20.7252 15.9363 20.7251 15.1312L20.7251 15.0548V13.2931L20.7251 13.1802C20.7254 12.339 20.7256 11.7583 20.564 11.2247C20.3824 10.6253 20.0535 10.0809 19.6074 9.64121C19.2104 9.2499 18.6962 8.97986 17.9515 8.58873L17.8515 8.53624L13.2522 6.11859L13.1708 6.0757C12.7059 5.83094 12.3404 5.63848 11.9434 5.56065Z" fill="white"/>
</svg>
