<svg width="21" height="20" viewBox="0 0 21 20" fill="none" xmlns="http://www.w3.org/2000/svg">
<g clip-path="url(#clip0_1122_10599)">
<rect x="0.828735" width="20" height="20" rx="10" fill="white"/>
<path d="M8.43374 14V13.395V13.075C8.43374 12.7083 8.50207 12.39 8.63874 12.12C8.77874 11.85 8.96207 11.615 9.18874 11.415C9.4154 11.2117 9.66374 11.0317 9.93374 10.875C10.2071 10.7183 10.4787 10.5683 10.7487 10.425C11.0187 10.2817 11.2671 10.1333 11.4937 9.98C11.7204 9.82333 11.9021 9.64833 12.0387 9.455C12.1787 9.25833 12.2487 9.02833 12.2487 8.765C12.2487 8.41833 12.1271 8.13667 11.8837 7.92C11.6404 7.70333 11.3104 7.595 10.8937 7.595C10.4504 7.595 10.0904 7.72 9.81374 7.97C9.53707 8.22 9.37707 8.565 9.33374 9.005H8.28374C8.29374 8.575 8.39874 8.18333 8.59874 7.83C8.79874 7.47667 9.09374 7.195 9.48374 6.985C9.87374 6.775 10.3571 6.67 10.9337 6.67C11.4337 6.67 11.8654 6.75833 12.2287 6.935C12.5954 7.10833 12.8787 7.35167 13.0787 7.665C13.2787 7.97833 13.3787 8.34333 13.3787 8.76C13.3787 9.13 13.3104 9.44833 13.1737 9.715C13.0371 9.98167 12.8571 10.2117 12.6337 10.405C12.4137 10.5983 12.1704 10.77 11.9037 10.92C11.6371 11.0667 11.3704 11.2083 11.1037 11.345C10.8371 11.4783 10.5921 11.62 10.3687 11.77C10.1454 11.9167 9.9654 12.0833 9.82874 12.27C9.69207 12.4567 9.62374 12.6817 9.62374 12.945V13.07H13.4037V14H8.43374Z" fill="#1F3C71"/>
</g>
<defs>
<clipPath id="clip0_1122_10599">
<rect x="0.828735" width="20" height="20" rx="10" fill="white"/>
</clipPath>
</defs>
</svg>
