<svg width="48" height="48" viewBox="0 0 48 48" fill="none" xmlns="http://www.w3.org/2000/svg">
<g clip-path="url(#clip0_1135_8627)">
<path fill-rule="evenodd" clip-rule="evenodd" d="M0 0H47.8571V48.4337H0V0Z" fill="#D94F00"/>
<path fill-rule="evenodd" clip-rule="evenodd" d="M27.2304 9.39014H39.4986V21.6831H27.2304V9.39014ZM12.3988 27.9012V29.1038H14.5132V35.4661H15.9712V29.0552H17.9398V27.8526L12.3988 27.902V27.9012ZM11.3098 29.3921V28.1895C10.1402 27.6607 8.79508 27.5009 7.41784 28.1895C5.15925 29.1994 5.07853 34.2001 7.33795 35.1778C8.63528 35.8351 11.3411 35.5304 11.6138 34.9529V30.9942H8.92357V32.0362H10.1081V34.1202C6.21606 36.0114 5.49532 26.9235 11.3098 29.3921ZM20.3113 31.972H21.7041C22.8573 32.0206 23.1621 34.2001 21.6564 34.1836H20.3113V31.972ZM20.3113 28.9111H21.7041C22.8573 29.1195 22.4414 30.8344 21.6564 30.8822H20.3113V28.9111ZM18.8698 27.7414V35.4019H22.6975C24.6514 34.6968 24.7321 31.668 22.6975 31.3468C24.5715 31.1392 24.6678 27.6928 21.4323 27.6928L18.8698 27.7414ZM25.6283 29.8888V31.0263C26.653 30.738 28.8794 29.9366 28.671 31.6359C26.7172 31.5074 25.3877 31.8599 25.1637 33.0774C24.7955 35.7066 27.6142 35.9628 28.7995 34.6646V35.2898H30.1446V30.6738C29.8086 29.1829 27.5829 28.991 25.6283 29.8888ZM26.765 32.8541C27.0697 32.453 28.0467 32.4687 28.7032 32.6614V33.6713C27.6307 34.8244 25.9009 34.2964 26.7658 32.8533L26.765 32.8541ZM32.932 31.2512C33.2846 30.8665 35.1585 30.145 35.4468 31.2512V35.322H36.9517V31.0107C36.6313 29.215 34.9172 28.8946 32.8357 30.1129V29.4399H31.4107V35.3541H32.9156L32.932 31.2512ZM41.6765 29.3756L39.707 32.0197L41.7893 35.2734L43.599 35.2256L41.3091 32.1005L43.375 29.4234L41.6773 29.3756H41.6765ZM38.0736 27.4358H39.5629V35.2734H38.0728V27.4366L38.0736 27.4358Z" fill="white"/>
<path fill-rule="evenodd" clip-rule="evenodd" d="M27.228 9.39014H39.4963V21.6831H27.228V9.39014Z" fill="white"/>
</g>
<defs>
<clipPath id="clip0_1135_8627">
<rect width="47.8571" height="48.4337" fill="white"/>
</clipPath>
</defs>
</svg>
