<svg width="41" height="40" viewBox="0 0 41 40" fill="none" xmlns="http://www.w3.org/2000/svg">
<path fill-rule="evenodd" clip-rule="evenodd" d="M27.2201 21.4002L29.0201 23.2102C29.4824 23.6801 29.6183 24.3812 29.3652 24.9898C29.1122 25.5985 28.5193 25.9965 27.8601 26.0002H24.5001V26.3402C24.4029 28.4539 22.6141 30.0906 20.5001 30.0002C18.3861 30.0906 16.5974 28.4539 16.5001 26.3402V26.0002H13.1401C12.481 25.9965 11.8881 25.5985 11.635 24.9898C11.3819 24.3812 11.5179 23.6801 11.9801 23.2102L13.7801 21.4002V16.7302C13.7837 14.7913 14.622 12.9479 16.0808 11.6709C17.5397 10.3939 19.4779 9.80703 21.4001 10.0602C24.7856 10.5791 27.2696 13.5155 27.2201 16.9402V21.4002ZM20.5001 28.0002C21.5035 28.071 22.3849 27.3395 22.5001 26.3402V26.0002H18.5001V26.3402C18.6153 27.3395 19.4967 28.071 20.5001 28.0002Z" fill="#8F8F8F"/>
</svg>
