<svg width="384" height="518" viewBox="0 0 384 518" fill="none" xmlns="http://www.w3.org/2000/svg">
<g filter="url(#filter0_dd_1121_9844)">
<g clip-path="url(#clip0_1121_9844)">
<rect x="20" y="8" width="344" height="478" rx="16" fill="white"/>
<g clip-path="url(#clip1_1121_9844)">
<path d="M45.458 53V39.986H49.274L52.253 49.265L55.259 39.986H59.066V53H56.411V43.046L53.279 53H51.218L48.104 43.091V53H45.458ZM65.3983 53.18C64.4863 53.18 63.6913 52.985 63.0133 52.595C62.3413 52.205 61.8193 51.653 61.4473 50.939C61.0813 50.225 60.8983 49.379 60.8983 48.401C60.8983 47.423 61.0813 46.568 61.4473 45.836C61.8193 45.104 62.3413 44.534 63.0133 44.126C63.6913 43.718 64.4893 43.514 65.4073 43.514C66.3253 43.514 67.1203 43.715 67.7923 44.117C68.4643 44.513 68.9833 45.077 69.3493 45.809C69.7153 46.541 69.8983 47.405 69.8983 48.401C69.8983 49.337 69.7183 50.165 69.3583 50.885C69.0043 51.599 68.4913 52.16 67.8193 52.568C67.1533 52.976 66.3463 53.18 65.3983 53.18ZM65.4073 51.227C65.8693 51.227 66.2413 51.092 66.5233 50.822C66.8053 50.552 67.0093 50.198 67.1353 49.76C67.2673 49.316 67.3333 48.833 67.3333 48.311C67.3333 47.819 67.2733 47.354 67.1533 46.916C67.0393 46.478 66.8413 46.124 66.5593 45.854C66.2773 45.584 65.8933 45.449 65.4073 45.449C64.9453 45.449 64.5703 45.578 64.2823 45.836C64.0003 46.088 63.7933 46.433 63.6613 46.871C63.5293 47.303 63.4633 47.783 63.4633 48.311C63.4633 48.797 63.5233 49.265 63.6433 49.715C63.7633 50.159 63.9643 50.522 64.2463 50.804C64.5283 51.086 64.9153 51.227 65.4073 51.227ZM71.6504 53V43.694H74.2334V45.008C74.3774 44.78 74.5634 44.561 74.7914 44.351C75.0254 44.135 75.3194 43.958 75.6734 43.82C76.0274 43.682 76.4474 43.613 76.9334 43.613C77.5034 43.613 78.0344 43.724 78.5264 43.946C79.0244 44.168 79.4264 44.519 79.7324 44.999C80.0384 45.473 80.1914 46.094 80.1914 46.862V53H77.5634V47.186C77.5634 46.682 77.4134 46.304 77.1134 46.052C76.8134 45.8 76.4474 45.674 76.0154 45.674C75.7274 45.674 75.4484 45.725 75.1784 45.827C74.9144 45.929 74.6984 46.082 74.5304 46.286C74.3624 46.49 74.2784 46.742 74.2784 47.042V53H71.6504ZM84.4803 48.95C84.4743 49.424 84.5493 49.838 84.7053 50.192C84.8613 50.54 85.0863 50.81 85.3803 51.002C85.6803 51.188 86.0403 51.281 86.4603 51.281C86.9103 51.281 87.3033 51.185 87.6393 50.993C87.9813 50.801 88.2183 50.486 88.3503 50.048H90.7173C90.6153 50.708 90.3513 51.272 89.9253 51.74C89.5053 52.208 88.9953 52.565 88.3953 52.811C87.7953 53.057 87.1713 53.18 86.5233 53.18C85.6053 53.18 84.7953 52.988 84.0933 52.604C83.3973 52.214 82.8543 51.665 82.4643 50.957C82.0743 50.249 81.8793 49.415 81.8793 48.455C81.8793 47.525 82.0563 46.688 82.4103 45.944C82.7643 45.194 83.2773 44.603 83.9493 44.171C84.6273 43.733 85.4403 43.514 86.3883 43.514C87.3363 43.514 88.1313 43.715 88.7733 44.117C89.4213 44.513 89.9073 45.068 90.2313 45.782C90.5613 46.49 90.7263 47.309 90.7263 48.239V48.95H84.4803ZM84.4713 47.384H88.2693C88.2693 47.012 88.2003 46.67 88.0623 46.358C87.9243 46.046 87.7143 45.8 87.4323 45.62C87.1563 45.44 86.8083 45.35 86.3883 45.35C85.9803 45.35 85.6323 45.449 85.3443 45.647C85.0623 45.839 84.8463 46.091 84.6963 46.403C84.5463 46.715 84.4713 47.042 84.4713 47.384ZM93.6131 55.97C92.9771 55.97 92.5271 55.916 92.2631 55.808C92.0051 55.706 91.8761 55.655 91.8761 55.655V53.981L92.7941 54.017C93.1961 54.041 93.5201 54.02 93.7661 53.954C94.0121 53.894 94.1981 53.813 94.3241 53.711C94.4561 53.609 94.5491 53.501 94.6031 53.387C94.6571 53.279 94.6961 53.192 94.7201 53.126L94.8911 52.613L91.2731 43.694H93.8741L96.1061 49.76L98.3651 43.694H100.93L97.1591 53.054C96.8351 53.846 96.4931 54.452 96.1331 54.872C95.7731 55.292 95.3831 55.58 94.9631 55.736C94.5491 55.892 94.0991 55.97 93.6131 55.97ZM106.313 39.986H115.169L115.16 42.182H108.959V45.449H114.332V47.6H108.959V53H106.313V39.986ZM119.99 53.162C119.306 53.162 118.763 53.081 118.361 52.919C117.959 52.757 117.662 52.544 117.47 52.28C117.278 52.01 117.155 51.713 117.101 51.389C117.047 51.059 117.02 50.726 117.02 50.39V39.626H119.594V50.066C119.594 50.408 119.666 50.687 119.81 50.903C119.96 51.113 120.239 51.242 120.647 51.29L121.088 51.317V52.937C120.908 52.997 120.725 53.048 120.539 53.09C120.353 53.138 120.17 53.162 119.99 53.162ZM126.764 53.18C125.852 53.18 125.057 52.985 124.379 52.595C123.707 52.205 123.185 51.653 122.813 50.939C122.447 50.225 122.264 49.379 122.264 48.401C122.264 47.423 122.447 46.568 122.813 45.836C123.185 45.104 123.707 44.534 124.379 44.126C125.057 43.718 125.855 43.514 126.773 43.514C127.691 43.514 128.486 43.715 129.158 44.117C129.83 44.513 130.349 45.077 130.715 45.809C131.081 46.541 131.264 47.405 131.264 48.401C131.264 49.337 131.084 50.165 130.724 50.885C130.37 51.599 129.857 52.16 129.185 52.568C128.519 52.976 127.712 53.18 126.764 53.18ZM126.773 51.227C127.235 51.227 127.607 51.092 127.889 50.822C128.171 50.552 128.375 50.198 128.501 49.76C128.633 49.316 128.699 48.833 128.699 48.311C128.699 47.819 128.639 47.354 128.519 46.916C128.405 46.478 128.207 46.124 127.925 45.854C127.643 45.584 127.259 45.449 126.773 45.449C126.311 45.449 125.936 45.578 125.648 45.836C125.366 46.088 125.159 46.433 125.027 46.871C124.895 47.303 124.829 47.783 124.829 48.311C124.829 48.797 124.889 49.265 125.009 49.715C125.129 50.159 125.33 50.522 125.612 50.804C125.894 51.086 126.281 51.227 126.773 51.227ZM145.463 43.694L142.403 53H140.315L138.578 47.366L136.85 53H134.816L131.801 43.694H134.123L135.905 49.463H135.977L137.687 43.694H139.559L141.287 49.463H141.359L143.087 43.694H145.463Z" fill="#212B36"/>
<path d="M45.337 80V69.878H47.129L50.181 78.236L53.275 69.878H55.06V80H53.723V71.817L50.79 80H49.579L46.667 71.894V80H45.337ZM60.2527 80.14C59.5854 80.14 59.002 79.9977 58.5027 79.713C58.0034 79.4237 57.616 79.0013 57.3407 78.446C57.0654 77.8907 56.9277 77.2117 56.9277 76.409C56.9277 75.653 57.056 74.9903 57.3127 74.421C57.5694 73.8517 57.945 73.4107 58.4397 73.098C58.939 72.7807 59.5434 72.622 60.2527 72.622C60.92 72.622 61.4987 72.769 61.9887 73.063C62.4834 73.3523 62.866 73.7793 63.1367 74.344C63.4074 74.9087 63.5427 75.597 63.5427 76.409C63.5427 77.1463 63.4167 77.795 63.1647 78.355C62.9174 78.915 62.5487 79.3537 62.0587 79.671C61.5734 79.9837 60.9714 80.14 60.2527 80.14ZM60.2527 79.118C60.6867 79.118 61.053 79.0083 61.3517 78.789C61.6504 78.5697 61.8767 78.2547 62.0307 77.844C62.1847 77.4333 62.2617 76.9457 62.2617 76.381C62.2617 75.863 62.194 75.3987 62.0587 74.988C61.9234 74.5727 61.7064 74.2437 61.4077 74.001C61.1137 73.7583 60.7287 73.637 60.2527 73.637C59.814 73.637 59.443 73.7467 59.1397 73.966C58.8364 74.1807 58.6054 74.4933 58.4467 74.904C58.2927 75.3147 58.2157 75.807 58.2157 76.381C58.2157 76.8897 58.2857 77.3517 58.4257 77.767C58.5657 78.1823 58.785 78.5113 59.0837 78.754C59.3824 78.9967 59.772 79.118 60.2527 79.118ZM65.237 80V72.762H66.49V73.812C66.6067 73.6113 66.7677 73.4223 66.973 73.245C67.183 73.0677 67.435 72.9253 67.729 72.818C68.0277 72.7107 68.3707 72.657 68.758 72.657C69.2153 72.657 69.6353 72.748 70.018 72.93C70.4053 73.112 70.7133 73.3967 70.942 73.784C71.1753 74.1667 71.292 74.6613 71.292 75.268V80H69.997V75.394C69.997 74.8293 69.8477 74.4117 69.549 74.141C69.255 73.8657 68.8723 73.728 68.401 73.728C68.0743 73.728 67.7687 73.7817 67.484 73.889C67.1993 73.9917 66.9683 74.1503 66.791 74.365C66.6137 74.575 66.525 74.841 66.525 75.163V80H65.237ZM74.7171 72.762V80H73.4641V72.762H74.7171ZM74.7451 69.885V71.229H73.4221V69.885H74.7451ZM80.7678 73.707H79.1368V78.208C79.1368 78.4647 79.1625 78.6537 79.2138 78.775C79.2698 78.8917 79.3608 78.9663 79.4868 78.999C79.6175 79.0317 79.7948 79.048 80.0188 79.048H80.8098V79.916C80.7212 79.9487 80.5858 79.9767 80.4038 80C80.2265 80.0233 80.0048 80.035 79.7388 80.035C79.2395 80.035 78.8522 79.9673 78.5768 79.832C78.3015 79.6967 78.1078 79.496 77.9958 79.23C77.8885 78.964 77.8348 78.6373 77.8348 78.25V73.707H76.6588V72.762H77.8698L78.1848 70.655H79.1368V72.755H80.7678V73.707ZM85.3132 80.14C84.6459 80.14 84.0626 79.9977 83.5632 79.713C83.0639 79.4237 82.6766 79.0013 82.4012 78.446C82.1259 77.8907 81.9882 77.2117 81.9882 76.409C81.9882 75.653 82.1166 74.9903 82.3732 74.421C82.6299 73.8517 83.0056 73.4107 83.5002 73.098C83.9996 72.7807 84.6039 72.622 85.3132 72.622C85.9806 72.622 86.5592 72.769 87.0492 73.063C87.5439 73.3523 87.9266 73.7793 88.1972 74.344C88.4679 74.9087 88.6032 75.597 88.6032 76.409C88.6032 77.1463 88.4772 77.795 88.2252 78.355C87.9779 78.915 87.6092 79.3537 87.1192 79.671C86.6339 79.9837 86.0319 80.14 85.3132 80.14ZM85.3132 79.118C85.7472 79.118 86.1136 79.0083 86.4122 78.789C86.7109 78.5697 86.9372 78.2547 87.0912 77.844C87.2452 77.4333 87.3222 76.9457 87.3222 76.381C87.3222 75.863 87.2546 75.3987 87.1192 74.988C86.9839 74.5727 86.7669 74.2437 86.4682 74.001C86.1742 73.7583 85.7892 73.637 85.3132 73.637C84.8746 73.637 84.5036 73.7467 84.2002 73.966C83.8969 74.1807 83.6659 74.4933 83.5072 74.904C83.3532 75.3147 83.2762 75.807 83.2762 76.381C83.2762 76.8897 83.3462 77.3517 83.4862 77.767C83.6262 78.1823 83.8456 78.5113 84.1442 78.754C84.4429 78.9967 84.8326 79.118 85.3132 79.118ZM90.2976 80V72.762H91.5296V74.155C91.6509 73.8097 91.8212 73.525 92.0406 73.301C92.2599 73.0723 92.5096 72.902 92.7896 72.79C93.0742 72.678 93.3682 72.622 93.6716 72.622C93.7789 72.622 93.8839 72.629 93.9866 72.643C94.0892 72.657 94.1686 72.6803 94.2246 72.713V73.966C94.1546 73.9333 94.0636 73.9123 93.9516 73.903C93.8442 73.889 93.7532 73.882 93.6786 73.882C93.3892 73.8633 93.1186 73.882 92.8666 73.938C92.6146 73.9893 92.3929 74.0803 92.2016 74.211C92.0102 74.3417 91.8586 74.5143 91.7466 74.729C91.6392 74.939 91.5856 75.1957 91.5856 75.499V80H90.2976ZM99.5838 82.31C99.1592 82.31 98.8675 82.2797 98.7088 82.219C98.5502 82.1583 98.4708 82.128 98.4708 82.128V81.288L99.2058 81.302C99.4765 81.3113 99.7005 81.2927 99.8778 81.246C100.055 81.1993 100.197 81.1363 100.305 81.057C100.412 80.9777 100.494 80.889 100.55 80.791C100.61 80.693 100.659 80.5997 100.697 80.511L100.949 79.825L98.1208 72.762H99.4298L101.565 78.348L103.686 72.762H104.953L101.901 80.546C101.714 81.0033 101.504 81.3603 101.271 81.617C101.042 81.8737 100.785 82.0533 100.501 82.156C100.221 82.2587 99.9152 82.31 99.5838 82.31ZM108.952 80.14C108.285 80.14 107.701 79.9977 107.202 79.713C106.703 79.4237 106.315 79.0013 106.04 78.446C105.765 77.8907 105.627 77.2117 105.627 76.409C105.627 75.653 105.755 74.9903 106.012 74.421C106.269 73.8517 106.644 73.4107 107.139 73.098C107.638 72.7807 108.243 72.622 108.952 72.622C109.619 72.622 110.198 72.769 110.688 73.063C111.183 73.3523 111.565 73.7793 111.836 74.344C112.107 74.9087 112.242 75.597 112.242 76.409C112.242 77.1463 112.116 77.795 111.864 78.355C111.617 78.915 111.248 79.3537 110.758 79.671C110.273 79.9837 109.671 80.14 108.952 80.14ZM108.952 79.118C109.386 79.118 109.752 79.0083 110.051 78.789C110.35 78.5697 110.576 78.2547 110.73 77.844C110.884 77.4333 110.961 76.9457 110.961 76.381C110.961 75.863 110.893 75.3987 110.758 74.988C110.623 74.5727 110.406 74.2437 110.107 74.001C109.813 73.7583 109.428 73.637 108.952 73.637C108.513 73.637 108.142 73.7467 107.839 73.966C107.536 74.1807 107.305 74.4933 107.146 74.904C106.992 75.3147 106.915 75.807 106.915 76.381C106.915 76.8897 106.985 77.3517 107.125 77.767C107.265 78.1823 107.484 78.5113 107.783 78.754C108.082 78.9967 108.471 79.118 108.952 79.118ZM116.487 80.14C116.109 80.1353 115.752 80.0817 115.416 79.979C115.085 79.8717 114.791 79.7153 114.534 79.51C114.277 79.3047 114.074 79.0503 113.925 78.747C113.78 78.439 113.708 78.082 113.708 77.676V72.762H115.003V77.543C115.003 78.0143 115.148 78.397 115.437 78.691C115.731 78.985 116.172 79.132 116.76 79.132C117.292 79.132 117.719 78.9943 118.041 78.719C118.368 78.439 118.531 78.0237 118.531 77.473V72.762H119.819V80H118.79L118.657 78.614C118.568 78.978 118.417 79.272 118.202 79.496C117.992 79.72 117.738 79.8857 117.439 79.993C117.145 80.0957 116.828 80.1447 116.487 80.14ZM121.921 80V72.762H123.153V74.155C123.274 73.8097 123.444 73.525 123.664 73.301C123.883 73.0723 124.133 72.902 124.413 72.79C124.697 72.678 124.991 72.622 125.295 72.622C125.402 72.622 125.507 72.629 125.61 72.643C125.712 72.657 125.792 72.6803 125.848 72.713V73.966C125.778 73.9333 125.687 73.9123 125.575 73.903C125.467 73.889 125.376 73.882 125.302 73.882C125.012 73.8633 124.742 73.882 124.49 73.938C124.238 73.9893 124.016 74.0803 123.825 74.211C123.633 74.3417 123.482 74.5143 123.37 74.729C123.262 74.939 123.209 75.1957 123.209 75.499V80H121.921ZM130.575 80V72.762H131.821V73.812C132.022 73.4947 132.297 73.217 132.647 72.979C132.997 72.741 133.452 72.622 134.012 72.622C134.273 72.622 134.539 72.6663 134.81 72.755C135.085 72.8437 135.337 72.9767 135.566 73.154C135.795 73.3313 135.972 73.5483 136.098 73.805C136.322 73.4503 136.625 73.1657 137.008 72.951C137.391 72.7317 137.822 72.622 138.303 72.622C138.555 72.622 138.819 72.6617 139.094 72.741C139.369 72.8157 139.624 72.951 139.857 73.147C140.095 73.3383 140.289 73.6067 140.438 73.952C140.587 74.2927 140.662 74.7313 140.662 75.268V80H139.36V75.394C139.36 74.9553 139.29 74.617 139.15 74.379C139.01 74.1363 138.826 73.966 138.597 73.868C138.373 73.77 138.133 73.721 137.876 73.721C137.652 73.721 137.414 73.7653 137.162 73.854C136.91 73.9427 136.695 74.092 136.518 74.302C136.341 74.512 136.252 74.799 136.252 75.163V80H134.964V75.016C134.964 74.7313 134.887 74.4933 134.733 74.302C134.584 74.1107 134.395 73.966 134.166 73.868C133.942 73.77 133.718 73.721 133.494 73.721C133.247 73.721 132.997 73.77 132.745 73.868C132.498 73.966 132.288 74.1223 132.115 74.337C131.947 74.547 131.863 74.8223 131.863 75.163V80H130.575ZM145.565 80.14C144.898 80.14 144.315 79.9977 143.815 79.713C143.316 79.4237 142.929 79.0013 142.653 78.446C142.378 77.8907 142.24 77.2117 142.24 76.409C142.24 75.653 142.369 74.9903 142.625 74.421C142.882 73.8517 143.258 73.4107 143.752 73.098C144.252 72.7807 144.856 72.622 145.565 72.622C146.233 72.622 146.811 72.769 147.301 73.063C147.796 73.3523 148.179 73.7793 148.449 74.344C148.72 74.9087 148.855 75.597 148.855 76.409C148.855 77.1463 148.729 77.795 148.477 78.355C148.23 78.915 147.861 79.3537 147.371 79.671C146.886 79.9837 146.284 80.14 145.565 80.14ZM145.565 79.118C145.999 79.118 146.366 79.0083 146.664 78.789C146.963 78.5697 147.189 78.2547 147.343 77.844C147.497 77.4333 147.574 76.9457 147.574 76.381C147.574 75.863 147.507 75.3987 147.371 74.988C147.236 74.5727 147.019 74.2437 146.72 74.001C146.426 73.7583 146.041 73.637 145.565 73.637C145.127 73.637 144.756 73.7467 144.452 73.966C144.149 74.1807 143.918 74.4933 143.759 74.904C143.605 75.3147 143.528 75.807 143.528 76.381C143.528 76.8897 143.598 77.3517 143.738 77.767C143.878 78.1823 144.098 78.5113 144.396 78.754C144.695 78.9967 145.085 79.118 145.565 79.118ZM150.55 80V72.762H151.803V73.812C151.919 73.6113 152.08 73.4223 152.286 73.245C152.496 73.0677 152.748 72.9253 153.042 72.818C153.34 72.7107 153.683 72.657 154.071 72.657C154.528 72.657 154.948 72.748 155.331 72.93C155.718 73.112 156.026 73.3967 156.255 73.784C156.488 74.1667 156.605 74.6613 156.605 75.268V80H155.31V75.394C155.31 74.8293 155.16 74.4117 154.862 74.141C154.568 73.8657 154.185 73.728 153.714 73.728C153.387 73.728 153.081 73.7817 152.797 73.889C152.512 73.9917 152.281 74.1503 152.104 74.365C151.926 74.575 151.838 74.841 151.838 75.163V80H150.55ZM159.554 76.682C159.554 77.1393 159.628 77.5547 159.778 77.928C159.932 78.2967 160.163 78.5907 160.471 78.81C160.783 79.0293 161.173 79.139 161.64 79.139C162.102 79.139 162.498 79.0317 162.83 78.817C163.166 78.6023 163.38 78.292 163.474 77.886H164.699C164.61 78.376 164.414 78.789 164.111 79.125C163.807 79.461 163.441 79.7153 163.012 79.888C162.582 80.056 162.134 80.14 161.668 80.14C160.991 80.14 160.396 79.993 159.883 79.699C159.369 79.405 158.968 78.9827 158.679 78.432C158.389 77.8813 158.245 77.221 158.245 76.451C158.245 75.6903 158.375 75.023 158.637 74.449C158.898 73.875 159.276 73.427 159.771 73.105C160.27 72.783 160.87 72.622 161.57 72.622C162.251 72.622 162.827 72.769 163.299 73.063C163.77 73.357 164.127 73.7723 164.37 74.309C164.617 74.841 164.741 75.4733 164.741 76.206V76.682H159.554ZM159.561 75.807H163.495C163.495 75.3917 163.425 75.0183 163.285 74.687C163.145 74.351 162.93 74.0873 162.641 73.896C162.356 73.7 161.997 73.602 161.563 73.602C161.11 73.602 160.734 73.7117 160.436 73.931C160.142 74.1457 159.92 74.4233 159.771 74.764C159.626 75.1 159.556 75.4477 159.561 75.807ZM166.973 82.31C166.548 82.31 166.256 82.2797 166.098 82.219C165.939 82.1583 165.86 82.128 165.86 82.128V81.288L166.595 81.302C166.865 81.3113 167.089 81.2927 167.267 81.246C167.444 81.1993 167.586 81.1363 167.694 81.057C167.801 80.9777 167.883 80.889 167.939 80.791C167.999 80.693 168.048 80.5997 168.086 80.511L168.338 79.825L165.51 72.762H166.819L168.954 78.348L171.075 72.762H172.342L169.29 80.546C169.103 81.0033 168.893 81.3603 168.66 81.617C168.431 81.8737 168.174 82.0533 167.89 82.156C167.61 82.2587 167.304 82.31 166.973 82.31ZM180.901 72.762V73.707H179.144V80H177.842V73.707H176.316V72.762H177.842V71.642C177.842 71.068 177.989 70.6317 178.283 70.333C178.577 70.0297 179.016 69.878 179.599 69.878H180.964L180.971 70.795H179.886C179.592 70.795 179.392 70.8743 179.284 71.033C179.177 71.1917 179.123 71.432 179.123 71.754V72.762H180.901ZM184.324 80.091C183.932 80.091 183.615 80.0373 183.372 79.93C183.134 79.8227 182.95 79.678 182.819 79.496C182.693 79.314 182.607 79.1063 182.56 78.873C182.518 78.635 182.497 78.39 182.497 78.138V69.598H183.771V78.012C183.771 78.376 183.841 78.649 183.981 78.831C184.126 79.013 184.327 79.1133 184.583 79.132L184.975 79.139V79.979C184.868 80.0117 184.756 80.0373 184.639 80.056C184.523 80.0793 184.418 80.091 184.324 80.091ZM189.425 80.14C188.757 80.14 188.174 79.9977 187.675 79.713C187.175 79.4237 186.788 79.0013 186.513 78.446C186.237 77.8907 186.1 77.2117 186.1 76.409C186.1 75.653 186.228 74.9903 186.485 74.421C186.741 73.8517 187.117 73.4107 187.612 73.098C188.111 72.7807 188.715 72.622 189.425 72.622C190.092 72.622 190.671 72.769 191.161 73.063C191.655 73.3523 192.038 73.7793 192.309 74.344C192.579 74.9087 192.715 75.597 192.715 76.409C192.715 77.1463 192.589 77.795 192.337 78.355C192.089 78.915 191.721 79.3537 191.231 79.671C190.745 79.9837 190.143 80.14 189.425 80.14ZM189.425 79.118C189.859 79.118 190.225 79.0083 190.524 78.789C190.822 78.5697 191.049 78.2547 191.203 77.844C191.357 77.4333 191.434 76.9457 191.434 76.381C191.434 75.863 191.366 75.3987 191.231 74.988C191.095 74.5727 190.878 74.2437 190.58 74.001C190.286 73.7583 189.901 73.637 189.425 73.637C188.986 73.637 188.615 73.7467 188.312 73.966C188.008 74.1807 187.777 74.4933 187.619 74.904C187.465 75.3147 187.388 75.807 187.388 76.381C187.388 76.8897 187.458 77.3517 187.598 77.767C187.738 78.1823 187.957 78.5113 188.256 78.754C188.554 78.9967 188.944 79.118 189.425 79.118ZM203.669 72.762L201.478 80H200.204L198.552 74.659L196.984 80H195.717L193.484 72.762H194.681L196.34 78.327H196.452L198.083 72.762H199.063L200.757 78.313H200.869L202.458 72.762H203.669ZM210.315 80.14C209.849 80.14 209.436 80.0583 209.076 79.895C208.717 79.727 208.435 79.4867 208.229 79.174C208.029 78.8613 207.928 78.4833 207.928 78.04C207.928 77.2373 208.208 76.64 208.768 76.248C209.328 75.856 210.227 75.646 211.463 75.618L212.758 75.583V75.016C212.758 74.5727 212.625 74.2227 212.359 73.966C212.093 73.7047 211.68 73.574 211.12 73.574C210.705 73.5787 210.339 73.6767 210.021 73.868C209.709 74.0593 209.506 74.372 209.412 74.806H208.271C208.299 74.3347 208.432 73.938 208.67 73.616C208.908 73.2893 209.24 73.042 209.664 72.874C210.094 72.706 210.6 72.622 211.183 72.622C211.813 72.622 212.336 72.7107 212.751 72.888C213.171 73.0653 213.484 73.3267 213.689 73.672C213.899 74.0173 214.004 74.442 214.004 74.946V80H212.898L212.807 78.642C212.527 79.2067 212.17 79.5987 211.736 79.818C211.307 80.0327 210.833 80.14 210.315 80.14ZM210.707 79.209C210.95 79.209 211.19 79.1647 211.428 79.076C211.671 78.9873 211.893 78.8683 212.093 78.719C212.294 78.565 212.453 78.3947 212.569 78.208C212.691 78.0167 212.754 77.8207 212.758 77.62V76.381L211.68 76.402C211.13 76.4113 210.668 76.4673 210.294 76.57C209.926 76.6727 209.648 76.8337 209.461 77.053C209.279 77.2723 209.188 77.5593 209.188 77.914C209.188 78.32 209.328 78.6373 209.608 78.866C209.893 79.0947 210.259 79.209 210.707 79.209ZM219.1 72.622C219.618 72.622 220.084 72.7223 220.5 72.923C220.915 73.119 221.253 73.399 221.515 73.763C221.781 74.127 221.946 74.5563 222.012 75.051H220.864C220.822 74.799 220.724 74.568 220.57 74.358C220.42 74.148 220.222 73.98 219.975 73.854C219.727 73.728 219.438 73.665 219.107 73.665C218.486 73.665 217.982 73.889 217.595 74.337C217.207 74.785 217.014 75.471 217.014 76.395C217.014 77.2303 217.191 77.9 217.546 78.404C217.905 78.9033 218.432 79.153 219.128 79.153C219.459 79.153 219.746 79.09 219.989 78.964C220.236 78.8333 220.434 78.663 220.584 78.453C220.733 78.2383 220.829 78.0097 220.871 77.767H221.998C221.937 78.2523 221.774 78.6723 221.508 79.027C221.242 79.3817 220.901 79.657 220.486 79.853C220.075 80.0443 219.613 80.14 219.1 80.14C218.451 80.14 217.875 79.9977 217.371 79.713C216.871 79.4283 216.479 79.0083 216.195 78.453C215.91 77.8977 215.768 77.2163 215.768 76.409C215.768 75.653 215.896 74.9927 216.153 74.428C216.414 73.8587 216.792 73.4153 217.287 73.098C217.786 72.7807 218.39 72.622 219.1 72.622ZM223.762 80V72.762H224.994V74.155C225.116 73.8097 225.286 73.525 225.505 73.301C225.725 73.0723 225.974 72.902 226.254 72.79C226.539 72.678 226.833 72.622 227.136 72.622C227.244 72.622 227.349 72.629 227.451 72.643C227.554 72.657 227.633 72.6803 227.689 72.713V73.966C227.619 73.9333 227.528 73.9123 227.416 73.903C227.309 73.889 227.218 73.882 227.143 73.882C226.854 73.8633 226.583 73.882 226.331 73.938C226.079 73.9893 225.858 74.0803 225.666 74.211C225.475 74.3417 225.323 74.5143 225.211 74.729C225.104 74.939 225.05 75.1957 225.05 75.499V80H223.762ZM231.917 80.14C231.249 80.14 230.666 79.9977 230.167 79.713C229.667 79.4237 229.28 79.0013 229.005 78.446C228.729 77.8907 228.592 77.2117 228.592 76.409C228.592 75.653 228.72 74.9903 228.977 74.421C229.233 73.8517 229.609 73.4107 230.104 73.098C230.603 72.7807 231.207 72.622 231.917 72.622C232.584 72.622 233.163 72.769 233.653 73.063C234.147 73.3523 234.53 73.7793 234.801 74.344C235.071 74.9087 235.207 75.597 235.207 76.409C235.207 77.1463 235.081 77.795 234.829 78.355C234.581 78.915 234.213 79.3537 233.723 79.671C233.237 79.9837 232.635 80.14 231.917 80.14ZM231.917 79.118C232.351 79.118 232.717 79.0083 233.016 78.789C233.314 78.5697 233.541 78.2547 233.695 77.844C233.849 77.4333 233.926 76.9457 233.926 76.381C233.926 75.863 233.858 75.3987 233.723 74.988C233.587 74.5727 233.37 74.2437 233.072 74.001C232.778 73.7583 232.393 73.637 231.917 73.637C231.478 73.637 231.107 73.7467 230.804 73.966C230.5 74.1807 230.269 74.4933 230.111 74.904C229.957 75.3147 229.88 75.807 229.88 76.381C229.88 76.8897 229.95 77.3517 230.09 77.767C230.23 78.1823 230.449 78.5113 230.748 78.754C231.046 78.9967 231.436 79.118 231.917 79.118ZM239.429 80.14C238.925 80.14 238.456 80.063 238.022 79.909C237.593 79.7503 237.236 79.5053 236.951 79.174C236.666 78.838 236.487 78.411 236.412 77.893H237.588C237.653 78.1777 237.77 78.4157 237.938 78.607C238.111 78.7937 238.325 78.936 238.582 79.034C238.839 79.1273 239.119 79.174 239.422 79.174C239.907 79.174 240.299 79.083 240.598 78.901C240.897 78.719 241.046 78.439 241.046 78.061C241.046 77.795 240.967 77.5827 240.808 77.424C240.654 77.2607 240.414 77.1417 240.087 77.067L238.589 76.696C238.006 76.556 237.539 76.3367 237.189 76.038C236.839 75.7393 236.664 75.3217 236.664 74.785C236.659 74.3603 236.76 73.987 236.965 73.665C237.17 73.343 237.478 73.0887 237.889 72.902C238.3 72.7153 238.811 72.622 239.422 72.622C240.206 72.622 240.838 72.7993 241.319 73.154C241.804 73.504 242.056 74.0197 242.075 74.701H240.934C240.887 74.3557 240.731 74.0827 240.465 73.882C240.204 73.6767 239.851 73.574 239.408 73.574C238.946 73.574 238.57 73.6673 238.281 73.854C237.992 74.036 237.847 74.3207 237.847 74.708C237.847 74.9647 237.95 75.1677 238.155 75.317C238.36 75.4617 238.664 75.583 239.065 75.681L240.514 76.045C240.85 76.1337 241.125 76.2503 241.34 76.395C241.559 76.5397 241.732 76.7007 241.858 76.878C241.989 77.0553 242.08 77.242 242.131 77.438C242.187 77.6293 242.215 77.8137 242.215 77.991C242.215 78.4343 242.103 78.817 241.879 79.139C241.66 79.4563 241.342 79.7037 240.927 79.881C240.516 80.0537 240.017 80.14 239.429 80.14ZM246.484 80.14C245.98 80.14 245.511 80.063 245.077 79.909C244.647 79.7503 244.29 79.5053 244.006 79.174C243.721 78.838 243.541 78.411 243.467 77.893H244.643C244.708 78.1777 244.825 78.4157 244.993 78.607C245.165 78.7937 245.38 78.936 245.637 79.034C245.893 79.1273 246.173 79.174 246.477 79.174C246.962 79.174 247.354 79.083 247.653 78.901C247.951 78.719 248.101 78.439 248.101 78.061C248.101 77.795 248.021 77.5827 247.863 77.424C247.709 77.2607 247.468 77.1417 247.142 77.067L245.644 76.696C245.06 76.556 244.594 76.3367 244.244 76.038C243.894 75.7393 243.719 75.3217 243.719 74.785C243.714 74.3603 243.814 73.987 244.02 73.665C244.225 73.343 244.533 73.0887 244.944 72.902C245.354 72.7153 245.865 72.622 246.477 72.622C247.261 72.622 247.893 72.7993 248.374 73.154C248.859 73.504 249.111 74.0197 249.13 74.701H247.989C247.942 74.3557 247.786 74.0827 247.52 73.882C247.258 73.6767 246.906 73.574 246.463 73.574C246.001 73.574 245.625 73.6673 245.336 73.854C245.046 74.036 244.902 74.3207 244.902 74.708C244.902 74.9647 245.004 75.1677 245.21 75.317C245.415 75.4617 245.718 75.583 246.12 75.681L247.569 76.045C247.905 76.1337 248.18 76.2503 248.395 76.395C248.614 76.5397 248.787 76.7007 248.913 76.878C249.043 77.0553 249.134 77.242 249.186 77.438C249.242 77.6293 249.27 77.8137 249.27 77.991C249.27 78.4343 249.158 78.817 248.934 79.139C248.714 79.4563 248.397 79.7037 247.982 79.881C247.571 80.0537 247.072 80.14 246.484 80.14ZM47.073 102.14C46.6063 102.14 46.1933 102.058 45.834 101.895C45.4747 101.727 45.1923 101.487 44.987 101.174C44.7863 100.861 44.686 100.483 44.686 100.04C44.686 99.2373 44.966 98.64 45.526 98.248C46.086 97.856 46.9843 97.646 48.221 97.618L49.516 97.583V97.016C49.516 96.5727 49.383 96.2227 49.117 95.966C48.851 95.7047 48.438 95.574 47.878 95.574C47.4627 95.5787 47.0963 95.6767 46.779 95.868C46.4663 96.0593 46.2633 96.372 46.17 96.806H45.029C45.057 96.3347 45.19 95.938 45.428 95.616C45.666 95.2893 45.9973 95.042 46.422 94.874C46.8513 94.706 47.3577 94.622 47.941 94.622C48.571 94.622 49.0937 94.7107 49.509 94.888C49.929 95.0653 50.2417 95.3267 50.447 95.672C50.657 96.0173 50.762 96.442 50.762 96.946V102H49.656L49.565 100.642C49.285 101.207 48.928 101.599 48.494 101.818C48.0647 102.033 47.591 102.14 47.073 102.14ZM47.465 101.209C47.7077 101.209 47.948 101.165 48.186 101.076C48.4287 100.987 48.6503 100.868 48.851 100.719C49.0517 100.565 49.2103 100.395 49.327 100.208C49.4483 100.017 49.5113 99.8207 49.516 99.62V98.381L48.438 98.402C47.8873 98.4113 47.4253 98.4673 47.052 98.57C46.6833 98.6727 46.4057 98.8337 46.219 99.053C46.037 99.2723 45.946 99.5593 45.946 99.914C45.946 100.32 46.086 100.637 46.366 100.866C46.6507 101.095 47.017 101.209 47.465 101.209ZM54.8003 102.091C54.4083 102.091 54.091 102.037 53.8483 101.93C53.6103 101.823 53.426 101.678 53.2953 101.496C53.1693 101.314 53.083 101.106 53.0363 100.873C52.9943 100.635 52.9733 100.39 52.9733 100.138V91.598H54.2473V100.012C54.2473 100.376 54.3173 100.649 54.4573 100.831C54.602 101.013 54.8027 101.113 55.0593 101.132L55.4513 101.139V101.979C55.344 102.012 55.232 102.037 55.1153 102.056C54.9987 102.079 54.8937 102.091 54.8003 102.091ZM58.7652 102.091C58.3732 102.091 58.0559 102.037 57.8132 101.93C57.5752 101.823 57.3909 101.678 57.2602 101.496C57.1342 101.314 57.0479 101.106 57.0012 100.873C56.9592 100.635 56.9382 100.39 56.9382 100.138V91.598H58.2122V100.012C58.2122 100.376 58.2822 100.649 58.4222 100.831C58.5669 101.013 58.7675 101.113 59.0242 101.132L59.4162 101.139V101.979C59.3089 102.012 59.1969 102.037 59.0802 102.056C58.9635 102.079 58.8585 102.091 58.7652 102.091ZM67.9117 102.14C67.487 102.14 67.1277 102.084 66.8337 101.972C66.5443 101.86 66.3063 101.718 66.1197 101.545C65.933 101.368 65.7883 101.188 65.6857 101.006C65.583 100.819 65.5083 100.656 65.4617 100.516L65.3217 102H64.3347V91.598H65.6367V95.91C65.6973 95.7887 65.7883 95.6557 65.9097 95.511C66.0357 95.3663 66.1967 95.2263 66.3927 95.091C66.5887 94.9557 66.8197 94.8437 67.0857 94.755C67.3563 94.6663 67.6643 94.622 68.0097 94.622C68.915 94.622 69.6337 94.937 70.1657 95.567C70.7023 96.197 70.9707 97.1257 70.9707 98.353C70.9707 99.1137 70.8563 99.7787 70.6277 100.348C70.399 100.913 70.0583 101.354 69.6057 101.671C69.153 101.984 68.5883 102.14 67.9117 102.14ZM67.6807 101.146C68.2687 101.146 68.747 100.92 69.1157 100.467C69.4843 100.01 69.6687 99.284 69.6687 98.29C69.6687 97.4453 69.496 96.792 69.1507 96.33C68.81 95.8633 68.3107 95.63 67.6527 95.63C67.172 95.63 66.7847 95.735 66.4907 95.945C66.2013 96.1503 65.9867 96.4513 65.8467 96.848C65.7113 97.2447 65.6413 97.7253 65.6367 98.29C65.6367 99.3027 65.793 100.033 66.1057 100.481C66.423 100.924 66.948 101.146 67.6807 101.146ZM74.5808 102.14C74.1141 102.14 73.7011 102.058 73.3418 101.895C72.9825 101.727 72.7001 101.487 72.4948 101.174C72.2941 100.861 72.1938 100.483 72.1938 100.04C72.1938 99.2373 72.4738 98.64 73.0338 98.248C73.5938 97.856 74.4921 97.646 75.7288 97.618L77.0238 97.583V97.016C77.0238 96.5727 76.8908 96.2227 76.6248 95.966C76.3588 95.7047 75.9458 95.574 75.3858 95.574C74.9705 95.5787 74.6041 95.6767 74.2868 95.868C73.9741 96.0593 73.7711 96.372 73.6778 96.806H72.5368C72.5648 96.3347 72.6978 95.938 72.9358 95.616C73.1738 95.2893 73.5051 95.042 73.9298 94.874C74.3591 94.706 74.8655 94.622 75.4488 94.622C76.0788 94.622 76.6015 94.7107 77.0168 94.888C77.4368 95.0653 77.7495 95.3267 77.9548 95.672C78.1648 96.0173 78.2698 96.442 78.2698 96.946V102H77.1638L77.0728 100.642C76.7928 101.207 76.4358 101.599 76.0018 101.818C75.5725 102.033 75.0988 102.14 74.5808 102.14ZM74.9728 101.209C75.2155 101.209 75.4558 101.165 75.6938 101.076C75.9365 100.987 76.1581 100.868 76.3588 100.719C76.5595 100.565 76.7181 100.395 76.8348 100.208C76.9561 100.017 77.0191 99.8207 77.0238 99.62V98.381L75.9458 98.402C75.3951 98.4113 74.9331 98.4673 74.5598 98.57C74.1911 98.6727 73.9135 98.8337 73.7268 99.053C73.5448 99.2723 73.4538 99.5593 73.4538 99.914C73.4538 100.32 73.5938 100.637 73.8738 100.866C74.1585 101.095 74.5248 101.209 74.9728 101.209ZM80.4812 102V94.762H81.7342V95.812C81.8508 95.6113 82.0118 95.4223 82.2172 95.245C82.4272 95.0677 82.6792 94.9253 82.9732 94.818C83.2718 94.7107 83.6148 94.657 84.0022 94.657C84.4595 94.657 84.8795 94.748 85.2622 94.93C85.6495 95.112 85.9575 95.3967 86.1862 95.784C86.4195 96.1667 86.5362 96.6613 86.5362 97.268V102H85.2412V97.394C85.2412 96.8293 85.0918 96.4117 84.7932 96.141C84.4992 95.8657 84.1165 95.728 83.6452 95.728C83.3185 95.728 83.0128 95.7817 82.7282 95.889C82.4435 95.9917 82.2125 96.1503 82.0352 96.365C81.8578 96.575 81.7692 96.841 81.7692 97.163V102H80.4812ZM94.9172 102H93.5452L91.2772 98.367L89.8492 99.844V102H88.5612V91.598H89.8492V98.381L93.2512 94.762H94.7352L92.1242 97.52L94.9172 102ZM98.8685 102.14C98.3645 102.14 97.8955 102.063 97.4615 101.909C97.0322 101.75 96.6752 101.505 96.3905 101.174C96.1058 100.838 95.9262 100.411 95.8515 99.893H97.0275C97.0928 100.178 97.2095 100.416 97.3775 100.607C97.5502 100.794 97.7648 100.936 98.0215 101.034C98.2782 101.127 98.5582 101.174 98.8615 101.174C99.3468 101.174 99.7388 101.083 100.038 100.901C100.336 100.719 100.486 100.439 100.486 100.061C100.486 99.795 100.406 99.5827 100.248 99.424C100.094 99.2607 99.8532 99.1417 99.5265 99.067L98.0285 98.696C97.4452 98.556 96.9785 98.3367 96.6285 98.038C96.2785 97.7393 96.1035 97.3217 96.1035 96.785C96.0988 96.3603 96.1992 95.987 96.4045 95.665C96.6098 95.343 96.9178 95.0887 97.3285 94.902C97.7392 94.7153 98.2502 94.622 98.8615 94.622C99.6455 94.622 100.278 94.7993 100.759 95.154C101.244 95.504 101.496 96.0197 101.515 96.701H100.374C100.327 96.3557 100.171 96.0827 99.9045 95.882C99.6432 95.6767 99.2908 95.574 98.8475 95.574C98.3855 95.574 98.0098 95.6673 97.7205 95.854C97.4312 96.036 97.2865 96.3207 97.2865 96.708C97.2865 96.9647 97.3892 97.1677 97.5945 97.317C97.7998 97.4617 98.1032 97.583 98.5045 97.681L99.9535 98.045C100.29 98.1337 100.565 98.2503 100.78 98.395C100.999 98.5397 101.172 98.7007 101.298 98.878C101.428 99.0553 101.519 99.242 101.571 99.438C101.627 99.6293 101.655 99.8137 101.655 99.991C101.655 100.434 101.543 100.817 101.319 101.139C101.099 101.456 100.782 101.704 100.367 101.881C99.9558 102.054 99.4565 102.14 98.8685 102.14Z" fill="#637381"/>
</g>
<rect x="282" y="32" width="66" height="28" rx="6" fill="#919EAB" fill-opacity="0.08"/>
<path d="M298.813 40.878L295.334 46.723V51H293.633V46.716L290.147 40.878H291.995L294.494 45.232L296.951 40.878H298.813ZM300.123 47.773C300.119 48.1837 300.184 48.5477 300.319 48.865C300.455 49.1823 300.655 49.432 300.921 49.614C301.187 49.7913 301.516 49.88 301.908 49.88C302.31 49.88 302.657 49.7913 302.951 49.614C303.25 49.432 303.448 49.1567 303.546 48.788H305.107C305.023 49.292 304.823 49.719 304.505 50.069C304.188 50.419 303.803 50.685 303.35 50.867C302.902 51.049 302.436 51.14 301.95 51.14C301.25 51.14 300.634 50.993 300.102 50.699C299.575 50.4003 299.162 49.9757 298.863 49.425C298.569 48.8743 298.422 48.2187 298.422 47.458C298.422 46.716 298.558 46.058 298.828 45.484C299.099 44.9053 299.489 44.4503 299.997 44.119C300.511 43.7877 301.127 43.622 301.845 43.622C302.559 43.622 303.159 43.7737 303.644 44.077C304.134 44.3803 304.503 44.805 304.75 45.351C305.002 45.8923 305.128 46.527 305.128 47.255V47.773H300.123ZM300.123 46.716H303.518C303.518 46.366 303.458 46.051 303.336 45.771C303.215 45.4863 303.028 45.2623 302.776 45.099C302.529 44.931 302.216 44.847 301.838 44.847C301.465 44.847 301.15 44.938 300.893 45.12C300.637 45.302 300.443 45.5377 300.312 45.827C300.182 46.1117 300.119 46.408 300.123 46.716ZM308.699 51.14C308.237 51.14 307.821 51.056 307.453 50.888C307.089 50.7153 306.802 50.4703 306.592 50.153C306.386 49.831 306.284 49.4413 306.284 48.984C306.284 48.186 306.571 47.584 307.145 47.178C307.723 46.772 308.645 46.5597 309.91 46.541L310.988 46.513V46.023C310.988 45.6403 310.873 45.3417 310.645 45.127C310.421 44.9077 310.071 44.8003 309.595 44.805C309.245 44.8097 308.923 44.8937 308.629 45.057C308.339 45.2157 308.148 45.484 308.055 45.862H306.606C306.634 45.3673 306.776 44.9543 307.033 44.623C307.294 44.287 307.651 44.0373 308.104 43.874C308.556 43.706 309.079 43.622 309.672 43.622C310.362 43.622 310.925 43.713 311.359 43.895C311.793 44.077 312.112 44.3407 312.318 44.686C312.523 45.0267 312.626 45.4397 312.626 45.925V51H311.191L311.058 49.698C310.796 50.244 310.465 50.622 310.064 50.832C309.667 51.0373 309.212 51.14 308.699 51.14ZM309.252 49.985C309.462 49.985 309.669 49.9477 309.875 49.873C310.08 49.7937 310.267 49.6887 310.435 49.558C310.603 49.4227 310.736 49.2733 310.834 49.11C310.936 48.9467 310.988 48.7763 310.988 48.599V47.458L310.099 47.472C309.66 47.4767 309.277 47.5233 308.951 47.612C308.624 47.7007 308.367 47.843 308.181 48.039C307.999 48.2303 307.908 48.487 307.908 48.809C307.908 49.1777 308.036 49.467 308.293 49.677C308.549 49.8823 308.869 49.985 309.252 49.985ZM314.618 51V43.762H316.249V45.33C316.366 44.9707 316.532 44.665 316.746 44.413C316.966 44.1563 317.222 43.9603 317.516 43.825C317.81 43.6897 318.13 43.622 318.475 43.622C318.559 43.622 318.641 43.6267 318.72 43.636C318.8 43.6453 318.858 43.6617 318.895 43.685V45.316C318.844 45.2927 318.776 45.2763 318.692 45.267C318.613 45.2577 318.543 45.253 318.482 45.253C318.132 45.225 317.822 45.239 317.551 45.295C317.285 45.351 317.059 45.4467 316.872 45.582C316.69 45.7127 316.553 45.8807 316.459 46.086C316.366 46.2867 316.319 46.5223 316.319 46.793V51H314.618Z" fill="#212B36"/>
<path d="M336 48.334C335.845 48.3343 335.694 48.2801 335.574 48.1807L331.574 44.8474C331.29 44.6117 331.251 44.1909 331.487 43.9074C331.723 43.6238 332.143 43.585 332.427 43.8207L336 46.8074L339.574 43.9274C339.711 43.8155 339.888 43.7632 340.064 43.7819C340.241 43.8007 340.402 43.889 340.514 44.0274C340.637 44.1659 340.697 44.3497 340.679 44.5344C340.662 44.7191 340.568 44.8881 340.42 45.0007L336.42 48.2207C336.297 48.3044 336.149 48.3443 336 48.334Z" fill="#212B36"/>
<rect x="179" y="135" width="12" height="12" rx="6" fill="#00AB55"/>
<path d="M200.19 136.601H201.581V146H200.19V136.601ZM203.713 146V139.279H205.072V140.247C205.18 140.065 205.325 139.894 205.507 139.734C205.693 139.574 205.921 139.444 206.19 139.344C206.463 139.244 206.777 139.194 207.132 139.194C207.552 139.194 207.94 139.279 208.296 139.448C208.655 139.613 208.943 139.873 209.16 140.228C209.377 140.579 209.485 141.034 209.485 141.593V146H208.094V141.742C208.094 141.261 207.964 140.904 207.704 140.67C207.448 140.436 207.117 140.319 206.71 140.319C206.437 140.319 206.177 140.364 205.93 140.455C205.683 140.546 205.483 140.685 205.332 140.871C205.18 141.053 205.104 141.283 205.104 141.56V146H203.713ZM214.003 139.149C214.506 139.149 214.952 139.249 215.342 139.448C215.737 139.643 216.055 139.916 216.298 140.267C216.54 140.618 216.688 141.027 216.74 141.495H215.537C215.498 141.274 215.414 141.069 215.284 140.878C215.158 140.687 214.987 140.536 214.77 140.423C214.558 140.306 214.304 140.247 214.01 140.247C213.472 140.247 213.035 140.445 212.697 140.839C212.359 141.233 212.19 141.838 212.19 142.652C212.19 143.398 212.346 143.991 212.658 144.433C212.974 144.875 213.433 145.096 214.036 145.096C214.326 145.096 214.577 145.036 214.79 144.914C215.006 144.793 215.178 144.637 215.303 144.446C215.429 144.256 215.509 144.059 215.544 143.855H216.727C216.679 144.306 216.532 144.702 216.285 145.045C216.042 145.387 215.724 145.653 215.329 145.844C214.939 146.035 214.497 146.13 214.003 146.13C213.392 146.13 212.851 145.998 212.378 145.733C211.906 145.465 211.535 145.073 211.267 144.557C211.002 144.037 210.87 143.406 210.87 142.665C210.87 141.968 210.994 141.355 211.241 140.826C211.488 140.297 211.845 139.886 212.313 139.591C212.786 139.296 213.349 139.149 214.003 139.149ZM221.005 146.13C220.376 146.13 219.826 145.996 219.354 145.727C218.886 145.454 218.522 145.06 218.262 144.544C218.006 144.028 217.878 143.404 217.878 142.672C217.878 141.966 217.999 141.348 218.242 140.819C218.489 140.291 218.847 139.881 219.315 139.591C219.783 139.296 220.348 139.149 221.011 139.149C221.644 139.149 222.192 139.288 222.656 139.565C223.119 139.838 223.479 140.239 223.735 140.767C223.99 141.292 224.118 141.927 224.118 142.672C224.118 143.352 223.997 143.952 223.754 144.472C223.516 144.992 223.165 145.4 222.701 145.694C222.242 145.985 221.676 146.13 221.005 146.13ZM221.011 145.057C221.392 145.057 221.711 144.958 221.967 144.758C222.227 144.555 222.422 144.271 222.552 143.907C222.682 143.539 222.747 143.114 222.747 142.633C222.747 142.187 222.688 141.781 222.571 141.417C222.458 141.049 222.274 140.757 222.019 140.54C221.763 140.323 221.427 140.215 221.011 140.215C220.621 140.215 220.296 140.315 220.036 140.514C219.776 140.709 219.579 140.988 219.445 141.352C219.315 141.712 219.25 142.139 219.25 142.633C219.25 143.071 219.308 143.474 219.425 143.842C219.542 144.21 219.731 144.505 219.991 144.726C220.251 144.947 220.591 145.057 221.011 145.057ZM225.612 146V139.279H226.964V140.247C227.155 139.953 227.415 139.697 227.744 139.48C228.074 139.259 228.498 139.149 229.018 139.149C229.261 139.149 229.506 139.19 229.753 139.272C230.004 139.355 230.234 139.478 230.442 139.643C230.654 139.803 230.821 140.003 230.942 140.241C231.155 139.92 231.439 139.658 231.794 139.454C232.149 139.251 232.548 139.149 232.99 139.149C233.228 139.149 233.475 139.188 233.731 139.266C233.987 139.34 234.223 139.467 234.439 139.649C234.66 139.827 234.838 140.074 234.972 140.39C235.111 140.707 235.18 141.108 235.18 141.593V146H233.783V141.742C233.783 141.374 233.72 141.086 233.594 140.878C233.473 140.67 233.313 140.525 233.113 140.442C232.918 140.356 232.71 140.312 232.489 140.312C232.29 140.312 232.082 140.351 231.865 140.429C231.649 140.507 231.465 140.637 231.313 140.819C231.161 141.001 231.085 141.248 231.085 141.56V146H229.694V141.443C229.694 141.196 229.627 140.988 229.493 140.819C229.363 140.65 229.198 140.525 228.999 140.442C228.804 140.356 228.609 140.312 228.414 140.312C228.197 140.312 227.981 140.356 227.764 140.442C227.547 140.529 227.365 140.666 227.218 140.852C227.075 141.034 227.003 141.27 227.003 141.56V146H225.612ZM238.015 142.964C238.015 143.367 238.08 143.729 238.21 144.05C238.344 144.366 238.546 144.618 238.815 144.804C239.083 144.986 239.417 145.077 239.816 145.077C240.214 145.077 240.559 144.986 240.849 144.804C241.144 144.622 241.337 144.351 241.428 143.991H242.715C242.637 144.451 242.452 144.841 242.162 145.161C241.876 145.482 241.529 145.725 241.122 145.889C240.715 146.05 240.288 146.13 239.842 146.13C239.205 146.13 238.643 145.994 238.158 145.72C237.673 145.443 237.294 145.049 237.021 144.537C236.752 144.026 236.618 143.417 236.618 142.711C236.618 142.013 236.741 141.398 236.988 140.865C237.235 140.328 237.593 139.907 238.061 139.604C238.529 139.301 239.092 139.149 239.751 139.149C240.401 139.149 240.947 139.288 241.389 139.565C241.835 139.842 242.173 140.232 242.403 140.735C242.632 141.233 242.747 141.823 242.747 142.503V142.964H238.015ZM238.015 142.061H241.421C241.421 141.71 241.36 141.391 241.239 141.105C241.118 140.815 240.931 140.588 240.68 140.423C240.433 140.254 240.121 140.169 239.744 140.169C239.358 140.169 239.038 140.263 238.782 140.449C238.526 140.635 238.334 140.874 238.204 141.164C238.078 141.454 238.015 141.753 238.015 142.061Z" fill="#212B36"/>
<rect x="268" y="135" width="12" height="12" rx="6" fill="#FFAB00"/>
<path d="M289.19 146V136.601H295.261L295.254 137.81H290.587V140.663H294.754V141.853H290.581V144.771L295.371 144.778V146H289.19ZM303.063 146H301.575L299.716 143.484L297.863 146H296.362L298.949 142.503L296.576 139.279H298.071L299.716 141.508L301.367 139.279H302.868L300.476 142.503L303.063 146ZM304.355 148.093V139.279H305.746L305.759 140.397C305.841 140.25 305.947 140.104 306.077 139.961C306.207 139.814 306.361 139.68 306.539 139.558C306.721 139.433 306.926 139.333 307.156 139.259C307.39 139.186 307.648 139.149 307.93 139.149C308.458 139.149 308.924 139.272 309.327 139.519C309.734 139.762 310.051 140.137 310.276 140.644C310.506 141.147 310.621 141.786 310.621 142.561C310.621 143.341 310.506 143.996 310.276 144.524C310.051 145.053 309.728 145.454 309.308 145.727C308.887 145.996 308.389 146.13 307.813 146.13C307.535 146.13 307.286 146.091 307.065 146.013C306.844 145.935 306.649 145.833 306.48 145.707C306.311 145.577 306.166 145.439 306.045 145.291C305.928 145.14 305.83 144.99 305.752 144.843V148.093H304.355ZM307.52 145.07C308.036 145.07 308.458 144.871 308.788 144.472C309.121 144.069 309.288 143.441 309.288 142.587C309.288 141.855 309.134 141.277 308.827 140.852C308.523 140.423 308.088 140.208 307.52 140.208C306.935 140.208 306.493 140.432 306.194 140.878C305.895 141.32 305.746 141.89 305.746 142.587C305.746 143.042 305.811 143.458 305.941 143.835C306.075 144.208 306.274 144.507 306.539 144.732C306.803 144.958 307.13 145.07 307.52 145.07ZM313.164 142.964C313.164 143.367 313.229 143.729 313.359 144.05C313.494 144.366 313.695 144.618 313.964 144.804C314.233 144.986 314.566 145.077 314.965 145.077C315.364 145.077 315.708 144.986 315.998 144.804C316.293 144.622 316.486 144.351 316.577 143.991H317.864C317.786 144.451 317.602 144.841 317.311 145.161C317.025 145.482 316.679 145.725 316.271 145.889C315.864 146.05 315.437 146.13 314.991 146.13C314.354 146.13 313.793 145.994 313.307 145.72C312.822 145.443 312.443 145.049 312.17 144.537C311.901 144.026 311.767 143.417 311.767 142.711C311.767 142.013 311.89 141.398 312.137 140.865C312.384 140.328 312.742 139.907 313.21 139.604C313.678 139.301 314.241 139.149 314.9 139.149C315.55 139.149 316.096 139.288 316.538 139.565C316.984 139.842 317.322 140.232 317.552 140.735C317.782 141.233 317.896 141.823 317.896 142.503V142.964H313.164ZM313.164 142.061H316.57C316.57 141.71 316.51 141.391 316.388 141.105C316.267 140.815 316.081 140.588 315.829 140.423C315.582 140.254 315.27 140.169 314.893 140.169C314.508 140.169 314.187 140.263 313.931 140.449C313.676 140.635 313.483 140.874 313.353 141.164C313.227 141.454 313.164 141.753 313.164 142.061ZM319.449 146V139.279H320.808V140.247C320.916 140.065 321.061 139.894 321.243 139.734C321.43 139.574 321.657 139.444 321.926 139.344C322.199 139.244 322.513 139.194 322.868 139.194C323.289 139.194 323.677 139.279 324.032 139.448C324.392 139.613 324.68 139.873 324.896 140.228C325.113 140.579 325.221 141.034 325.221 141.593V146H323.83V141.742C323.83 141.261 323.7 140.904 323.44 140.67C323.185 140.436 322.853 140.319 322.446 140.319C322.173 140.319 321.913 140.364 321.666 140.455C321.419 140.546 321.22 140.685 321.068 140.871C320.916 141.053 320.84 141.283 320.84 141.56V146H319.449ZM329.365 146.13C328.897 146.13 328.457 146.056 328.045 145.909C327.638 145.762 327.296 145.53 327.018 145.213C326.745 144.897 326.574 144.492 326.505 143.998H327.746C327.803 144.254 327.909 144.466 328.065 144.635C328.225 144.8 328.416 144.923 328.637 145.005C328.862 145.083 329.103 145.122 329.358 145.122C329.783 145.122 330.125 145.047 330.385 144.895C330.65 144.739 330.782 144.501 330.782 144.18C330.782 143.95 330.71 143.766 330.567 143.627C330.429 143.489 330.208 143.387 329.904 143.322L328.565 143.003C328.011 142.873 327.567 142.668 327.233 142.386C326.899 142.1 326.73 141.701 326.726 141.19C326.726 140.796 326.823 140.445 327.018 140.137C327.218 139.829 327.512 139.589 327.902 139.415C328.292 139.238 328.778 139.149 329.358 139.149C330.117 139.149 330.726 139.318 331.185 139.656C331.644 139.994 331.883 140.484 331.9 141.125H330.697C330.654 140.817 330.513 140.577 330.275 140.403C330.041 140.226 329.731 140.137 329.345 140.137C328.947 140.137 328.62 140.217 328.364 140.377C328.108 140.533 327.98 140.774 327.98 141.099C327.98 141.32 328.074 141.495 328.26 141.625C328.446 141.751 328.726 141.855 329.098 141.938L330.372 142.256C330.702 142.343 330.973 142.457 331.185 142.6C331.397 142.739 331.564 142.893 331.685 143.062C331.807 143.231 331.891 143.406 331.939 143.588C331.991 143.77 332.017 143.942 332.017 144.102C332.017 144.527 331.909 144.891 331.692 145.194C331.48 145.493 331.174 145.725 330.775 145.889C330.381 146.05 329.911 146.13 329.365 146.13ZM334.645 142.964C334.645 143.367 334.71 143.729 334.84 144.05C334.974 144.366 335.176 144.618 335.444 144.804C335.713 144.986 336.047 145.077 336.445 145.077C336.844 145.077 337.189 144.986 337.479 144.804C337.774 144.622 337.966 144.351 338.057 143.991H339.344C339.266 144.451 339.082 144.841 338.792 145.161C338.506 145.482 338.159 145.725 337.752 145.889C337.345 146.05 336.918 146.13 336.471 146.13C335.834 146.13 335.273 145.994 334.788 145.72C334.303 145.443 333.923 145.049 333.65 144.537C333.382 144.026 333.247 143.417 333.247 142.711C333.247 142.013 333.371 141.398 333.618 140.865C333.865 140.328 334.222 139.907 334.69 139.604C335.158 139.301 335.722 139.149 336.38 139.149C337.03 139.149 337.576 139.288 338.018 139.565C338.465 139.842 338.803 140.232 339.032 140.735C339.262 141.233 339.377 141.823 339.377 142.503V142.964H334.645ZM334.645 142.061H338.051C338.051 141.71 337.99 141.391 337.869 141.105C337.748 140.815 337.561 140.588 337.31 140.423C337.063 140.254 336.751 140.169 336.374 140.169C335.988 140.169 335.668 140.263 335.412 140.449C335.156 140.635 334.963 140.874 334.833 141.164C334.708 141.454 334.645 141.753 334.645 142.061Z" fill="#212B36"/>
<path d="M45.1971 187V186.322V185.968C45.1971 185.524 45.2791 185.14 45.4431 184.816C45.6111 184.492 45.8311 184.21 46.1031 183.97C46.3791 183.726 46.6791 183.508 47.0031 183.316C47.3311 183.124 47.6571 182.94 47.9811 182.764C48.3091 182.584 48.6091 182.398 48.8811 182.206C49.1531 182.01 49.3711 181.79 49.5351 181.546C49.7031 181.298 49.7871 181.006 49.7871 180.67C49.7871 180.23 49.6311 179.872 49.3191 179.596C49.0111 179.32 48.5931 179.182 48.0651 179.182C47.4971 179.182 47.0411 179.342 46.6971 179.662C46.3531 179.982 46.1591 180.408 46.1151 180.94H45.0111C45.0231 180.44 45.1471 179.984 45.3831 179.572C45.6191 179.156 45.9651 178.824 46.4211 178.576C46.8771 178.328 47.4391 178.204 48.1071 178.204C48.6871 178.204 49.1911 178.308 49.6191 178.516C50.0471 178.72 50.3771 179.008 50.6091 179.38C50.8451 179.748 50.9631 180.178 50.9631 180.67C50.9631 181.118 50.8811 181.502 50.7171 181.822C50.5531 182.142 50.3351 182.42 50.0631 182.656C49.7951 182.888 49.5011 183.096 49.1811 183.28C48.8611 183.464 48.5391 183.642 48.2151 183.814C47.8911 183.982 47.5951 184.16 47.3271 184.348C47.0591 184.532 46.8431 184.744 46.6791 184.984C46.5151 185.224 46.4331 185.51 46.4331 185.842V186.016H51.0111V187H45.1971ZM55.2796 178.204C56.2196 178.204 56.9676 178.582 57.5236 179.338C58.0836 180.09 58.3636 181.204 58.3636 182.68C58.3636 184.148 58.0856 185.258 57.5296 186.01C56.9736 186.758 56.2196 187.132 55.2676 187.132C54.3196 187.132 53.5676 186.76 53.0116 186.016C52.4556 185.268 52.1776 184.162 52.1776 182.698C52.1776 181.71 52.3056 180.882 52.5616 180.214C52.8176 179.546 53.1776 179.044 53.6416 178.708C54.1056 178.372 54.6516 178.204 55.2796 178.204ZM55.2796 186.172C55.8996 186.172 56.3676 185.9 56.6836 185.356C57.0036 184.808 57.1636 183.918 57.1636 182.686C57.1636 181.43 57.0016 180.526 56.6776 179.974C56.3576 179.418 55.8896 179.14 55.2736 179.14C54.6616 179.14 54.1896 179.42 53.8576 179.98C53.5296 180.536 53.3656 181.438 53.3656 182.686C53.3656 183.914 53.5296 184.802 53.8576 185.35C54.1856 185.898 54.6596 186.172 55.2796 186.172ZM62.5569 178.204C63.4969 178.204 64.2449 178.582 64.8009 179.338C65.3609 180.09 65.6409 181.204 65.6409 182.68C65.6409 184.148 65.3629 185.258 64.8069 186.01C64.2509 186.758 63.4969 187.132 62.5449 187.132C61.5969 187.132 60.8449 186.76 60.2889 186.016C59.7329 185.268 59.4549 184.162 59.4549 182.698C59.4549 181.71 59.5829 180.882 59.8389 180.214C60.0949 179.546 60.4549 179.044 60.9189 178.708C61.3829 178.372 61.9289 178.204 62.5569 178.204ZM62.5569 186.172C63.1769 186.172 63.6449 185.9 63.9609 185.356C64.2809 184.808 64.4409 183.918 64.4409 182.686C64.4409 181.43 64.2789 180.526 63.9549 179.974C63.6349 179.418 63.1669 179.14 62.5509 179.14C61.9389 179.14 61.4669 179.42 61.1349 179.98C60.8069 180.536 60.6429 181.438 60.6429 182.686C60.6429 183.914 60.8069 184.802 61.1349 185.35C61.4629 185.898 61.9369 186.172 62.5569 186.172ZM72.5926 187H71.4166L69.4726 183.886L68.2486 185.152V187H67.1446V178.084H68.2486V183.898L71.1646 180.796H72.4366L70.1986 183.16L72.5926 187Z" fill="#919EAB"/>
<path d="M48.5367 247V240.094H46.8627V239.368C47.3827 239.368 47.7867 239.33 48.0747 239.254C48.3627 239.178 48.5667 239.062 48.6867 238.906C48.8107 238.75 48.8787 238.556 48.8907 238.324H49.6827V247H48.5367ZM52.5954 238.324H57.7734L57.7434 239.284H53.5434L53.3214 242.086C53.6094 241.818 53.9234 241.628 54.2634 241.516C54.6074 241.4 54.9794 241.342 55.3794 241.342C55.9034 241.342 56.3854 241.45 56.8254 241.666C57.2694 241.878 57.6254 242.194 57.8934 242.614C58.1614 243.03 58.2954 243.546 58.2954 244.162C58.2954 244.762 58.1654 245.284 57.9054 245.728C57.6454 246.172 57.2794 246.518 56.8074 246.766C56.3354 247.01 55.7814 247.132 55.1454 247.132C54.6094 247.132 54.1134 247.038 53.6574 246.85C53.2014 246.662 52.8094 246.4 52.4814 246.064C52.1574 245.728 51.9194 245.342 51.7674 244.906L52.7274 244.504C52.8714 244.832 53.0514 245.124 53.2674 245.38C53.4874 245.636 53.7474 245.836 54.0474 245.98C54.3474 246.124 54.6874 246.196 55.0674 246.196C55.6834 246.196 56.1774 246.018 56.5494 245.662C56.9254 245.302 57.1134 244.814 57.1134 244.198C57.1134 243.814 57.0254 243.48 56.8494 243.196C56.6734 242.908 56.4354 242.684 56.1354 242.524C55.8394 242.364 55.5114 242.284 55.1514 242.284C54.9154 242.284 54.6954 242.306 54.4914 242.35C54.2874 242.39 54.0854 242.47 53.8854 242.59C53.6854 242.71 53.4754 242.892 53.2554 243.136C53.2314 243.148 53.2134 243.154 53.2014 243.154C53.1894 243.15 53.1694 243.142 53.1414 243.13L52.2054 242.836L52.5954 238.324ZM62.5569 238.204C63.4969 238.204 64.2449 238.582 64.8009 239.338C65.3609 240.09 65.6409 241.204 65.6409 242.68C65.6409 244.148 65.3629 245.258 64.8069 246.01C64.2509 246.758 63.4969 247.132 62.5449 247.132C61.5969 247.132 60.8449 246.76 60.2889 246.016C59.7329 245.268 59.4549 244.162 59.4549 242.698C59.4549 241.71 59.5829 240.882 59.8389 240.214C60.0949 239.546 60.4549 239.044 60.9189 238.708C61.3829 238.372 61.9289 238.204 62.5569 238.204ZM62.5569 246.172C63.1769 246.172 63.6449 245.9 63.9609 245.356C64.2809 244.808 64.4409 243.918 64.4409 242.686C64.4409 241.43 64.2789 240.526 63.9549 239.974C63.6349 239.418 63.1669 239.14 62.5509 239.14C61.9389 239.14 61.4669 239.42 61.1349 239.98C60.8069 240.536 60.6429 241.438 60.6429 242.686C60.6429 243.914 60.8069 244.802 61.1349 245.35C61.4629 245.898 61.9369 246.172 62.5569 246.172ZM72.5926 247H71.4166L69.4726 243.886L68.2486 245.152V247H67.1446V238.084H68.2486V243.898L71.1646 240.796H72.4366L70.1986 243.16L72.5926 247Z" fill="#919EAB"/>
<path d="M48.9468 307V300.094H47.2728V299.368C47.7928 299.368 48.1968 299.33 48.4848 299.254C48.7728 299.178 48.9768 299.062 49.0968 298.906C49.2208 298.75 49.2888 298.556 49.3008 298.324H50.0928V307H48.9468ZM55.2796 298.204C56.2196 298.204 56.9676 298.582 57.5236 299.338C58.0836 300.09 58.3636 301.204 58.3636 302.68C58.3636 304.148 58.0856 305.258 57.5296 306.01C56.9736 306.758 56.2196 307.132 55.2676 307.132C54.3196 307.132 53.5676 306.76 53.0116 306.016C52.4556 305.268 52.1776 304.162 52.1776 302.698C52.1776 301.71 52.3056 300.882 52.5616 300.214C52.8176 299.546 53.1776 299.044 53.6416 298.708C54.1056 298.372 54.6516 298.204 55.2796 298.204ZM55.2796 306.172C55.8996 306.172 56.3676 305.9 56.6836 305.356C57.0036 304.808 57.1636 303.918 57.1636 302.686C57.1636 301.43 57.0016 300.526 56.6776 299.974C56.3576 299.418 55.8896 299.14 55.2736 299.14C54.6616 299.14 54.1896 299.42 53.8576 299.98C53.5296 300.536 53.3656 301.438 53.3656 302.686C53.3656 303.914 53.5296 304.802 53.8576 305.35C54.1856 305.898 54.6596 306.172 55.2796 306.172ZM62.5569 298.204C63.4969 298.204 64.2449 298.582 64.8009 299.338C65.3609 300.09 65.6409 301.204 65.6409 302.68C65.6409 304.148 65.3629 305.258 64.8069 306.01C64.2509 306.758 63.4969 307.132 62.5449 307.132C61.5969 307.132 60.8449 306.76 60.2889 306.016C59.7329 305.268 59.4549 304.162 59.4549 302.698C59.4549 301.71 59.5829 300.882 59.8389 300.214C60.0949 299.546 60.4549 299.044 60.9189 298.708C61.3829 298.372 61.9289 298.204 62.5569 298.204ZM62.5569 306.172C63.1769 306.172 63.6449 305.9 63.9609 305.356C64.2809 304.808 64.4409 303.918 64.4409 302.686C64.4409 301.43 64.2789 300.526 63.9549 299.974C63.6349 299.418 63.1669 299.14 62.5509 299.14C61.9389 299.14 61.4669 299.42 61.1349 299.98C60.8069 300.536 60.6429 301.438 60.6429 302.686C60.6429 303.914 60.8069 304.802 61.1349 305.35C61.4629 305.898 61.9369 306.172 62.5569 306.172ZM72.5926 307H71.4166L69.4726 303.886L68.2486 305.152V307H67.1446V298.084H68.2486V303.898L71.1646 300.796H72.4366L70.1986 303.16L72.5926 307Z" fill="#919EAB"/>
<path d="M52.5954 358.324H57.7734L57.7434 359.284H53.5434L53.3214 362.086C53.6094 361.818 53.9234 361.628 54.2634 361.516C54.6074 361.4 54.9794 361.342 55.3794 361.342C55.9034 361.342 56.3854 361.45 56.8254 361.666C57.2694 361.878 57.6254 362.194 57.8934 362.614C58.1614 363.03 58.2954 363.546 58.2954 364.162C58.2954 364.762 58.1654 365.284 57.9054 365.728C57.6454 366.172 57.2794 366.518 56.8074 366.766C56.3354 367.01 55.7814 367.132 55.1454 367.132C54.6094 367.132 54.1134 367.038 53.6574 366.85C53.2014 366.662 52.8094 366.4 52.4814 366.064C52.1574 365.728 51.9194 365.342 51.7674 364.906L52.7274 364.504C52.8714 364.832 53.0514 365.124 53.2674 365.38C53.4874 365.636 53.7474 365.836 54.0474 365.98C54.3474 366.124 54.6874 366.196 55.0674 366.196C55.6834 366.196 56.1774 366.018 56.5494 365.662C56.9254 365.302 57.1134 364.814 57.1134 364.198C57.1134 363.814 57.0254 363.48 56.8494 363.196C56.6734 362.908 56.4354 362.684 56.1354 362.524C55.8394 362.364 55.5114 362.284 55.1514 362.284C54.9154 362.284 54.6954 362.306 54.4914 362.35C54.2874 362.39 54.0854 362.47 53.8854 362.59C53.6854 362.71 53.4754 362.892 53.2554 363.136C53.2314 363.148 53.2134 363.154 53.2014 363.154C53.1894 363.15 53.1694 363.142 53.1414 363.13L52.2054 362.836L52.5954 358.324ZM62.5569 358.204C63.4969 358.204 64.2449 358.582 64.8009 359.338C65.3609 360.09 65.6409 361.204 65.6409 362.68C65.6409 364.148 65.3629 365.258 64.8069 366.01C64.2509 366.758 63.4969 367.132 62.5449 367.132C61.5969 367.132 60.8449 366.76 60.2889 366.016C59.7329 365.268 59.4549 364.162 59.4549 362.698C59.4549 361.71 59.5829 360.882 59.8389 360.214C60.0949 359.546 60.4549 359.044 60.9189 358.708C61.3829 358.372 61.9289 358.204 62.5569 358.204ZM62.5569 366.172C63.1769 366.172 63.6449 365.9 63.9609 365.356C64.2809 364.808 64.4409 363.918 64.4409 362.686C64.4409 361.43 64.2789 360.526 63.9549 359.974C63.6349 359.418 63.1669 359.14 62.5509 359.14C61.9389 359.14 61.4669 359.42 61.1349 359.98C60.8069 360.536 60.6429 361.438 60.6429 362.686C60.6429 363.914 60.8069 364.802 61.1349 365.35C61.4629 365.898 61.9369 366.172 62.5569 366.172ZM72.5926 367H71.4166L69.4726 363.886L68.2486 365.152V367H67.1446V358.084H68.2486V363.898L71.1646 360.796H72.4366L70.1986 363.16L72.5926 367Z" fill="#919EAB"/>
<path d="M69.3303 418.204C70.2703 418.204 71.0183 418.582 71.5743 419.338C72.1343 420.09 72.4143 421.204 72.4143 422.68C72.4143 424.148 72.1363 425.258 71.5803 426.01C71.0243 426.758 70.2703 427.132 69.3183 427.132C68.3703 427.132 67.6183 426.76 67.0623 426.016C66.5063 425.268 66.2283 424.162 66.2283 422.698C66.2283 421.71 66.3563 420.882 66.6123 420.214C66.8683 419.546 67.2283 419.044 67.6923 418.708C68.1563 418.372 68.7023 418.204 69.3303 418.204ZM69.3303 426.172C69.9503 426.172 70.4183 425.9 70.7343 425.356C71.0543 424.808 71.2143 423.918 71.2143 422.686C71.2143 421.43 71.0523 420.526 70.7283 419.974C70.4083 419.418 69.9403 419.14 69.3243 419.14C68.7123 419.14 68.2403 419.42 67.9083 419.98C67.5803 420.536 67.4163 421.438 67.4163 422.686C67.4163 423.914 67.5803 424.802 67.9083 425.35C68.2363 425.898 68.7103 426.172 69.3303 426.172Z" fill="#919EAB"/>
<path d="M93 182.5H340" stroke="#919EAB" stroke-opacity="0.24" stroke-linecap="square" stroke-dasharray="2 3"/>
<path d="M93 242.5H340" stroke="#919EAB" stroke-opacity="0.24" stroke-linecap="square" stroke-dasharray="2 3"/>
<path d="M93 302.5H340" stroke="#919EAB" stroke-opacity="0.24" stroke-linecap="square" stroke-dasharray="2 3"/>
<path d="M93 362.5H340" stroke="#919EAB" stroke-opacity="0.24" stroke-linecap="square" stroke-dasharray="2 3"/>
<path d="M93 422.5H340" stroke="#919EAB" stroke-opacity="0.24" stroke-linecap="square" stroke-dasharray="2 3"/>
<path d="M94.4937 448.324H99.8997L99.8937 449.296H95.6337V452.164H99.4617V453.124H95.6337V457H94.4937V448.324ZM101.619 457V448.324H104.409C105.465 448.324 106.263 448.518 106.803 448.906C107.347 449.294 107.619 449.854 107.619 450.586C107.619 451.046 107.499 451.44 107.259 451.768C107.023 452.096 106.607 452.366 106.011 452.578C106.351 452.65 106.637 452.754 106.869 452.89C107.105 453.026 107.293 453.186 107.433 453.37C107.577 453.55 107.679 453.75 107.739 453.97C107.803 454.19 107.835 454.422 107.835 454.666C107.835 455.45 107.555 456.036 106.995 456.424C106.439 456.808 105.607 457 104.499 457H101.619ZM102.729 456.076H104.487C105.211 456.076 105.761 455.958 106.137 455.722C106.517 455.482 106.707 455.114 106.707 454.618C106.707 454.254 106.613 453.96 106.425 453.736C106.241 453.508 105.991 453.342 105.675 453.238C105.359 453.134 105.007 453.082 104.619 453.082H102.729V456.076ZM102.729 452.14H104.619C104.847 452.14 105.073 452.118 105.297 452.074C105.521 452.03 105.727 451.954 105.915 451.846C106.103 451.738 106.255 451.594 106.371 451.414C106.487 451.23 106.545 451 106.545 450.724C106.545 450.22 106.351 449.848 105.963 449.608C105.579 449.364 105.079 449.242 104.463 449.242H102.729V452.14ZM115.397 448.324H116.507V457H115.517L110.861 450.16V457H109.751V448.324H110.813L115.397 455.068V448.324Z" fill="#919EAB"/>
<path d="M162.59 457.12C161.83 457.12 161.174 456.946 160.622 456.598C160.07 456.246 159.646 455.74 159.35 455.08C159.054 454.42 158.906 453.622 158.906 452.686C158.906 451.742 159.056 450.936 159.356 450.268C159.66 449.6 160.092 449.09 160.652 448.738C161.212 448.382 161.874 448.204 162.638 448.204C163.074 448.204 163.484 448.28 163.868 448.432C164.252 448.584 164.592 448.792 164.888 449.056C165.184 449.316 165.42 449.614 165.596 449.95C165.776 450.286 165.878 450.636 165.902 451H164.714C164.658 450.68 164.534 450.382 164.342 450.106C164.15 449.83 163.906 449.608 163.61 449.44C163.318 449.272 162.988 449.188 162.62 449.188C162.12 449.188 161.68 449.312 161.3 449.56C160.924 449.804 160.63 450.182 160.418 450.694C160.21 451.206 160.106 451.862 160.106 452.662C160.106 453.278 160.17 453.806 160.298 454.246C160.426 454.686 160.604 455.044 160.832 455.32C161.064 455.592 161.334 455.794 161.642 455.926C161.954 456.054 162.29 456.118 162.65 456.118C163.014 456.118 163.33 456.054 163.598 455.926C163.87 455.798 164.096 455.634 164.276 455.434C164.456 455.23 164.594 455.012 164.69 454.78C164.79 454.544 164.844 454.318 164.852 454.102L164.888 453.334H162.776V452.518L166.04 452.524V457H165.206V455.68C165.054 455.928 164.862 456.162 164.63 456.382C164.398 456.602 164.114 456.78 163.778 456.916C163.446 457.052 163.05 457.12 162.59 457.12ZM166.842 449.344V448.324H173.406V449.344H170.76V457H169.644V449.344H166.842ZM174.837 457V448.324H177.627C178.683 448.324 179.481 448.518 180.021 448.906C180.565 449.294 180.837 449.854 180.837 450.586C180.837 451.046 180.717 451.44 180.477 451.768C180.241 452.096 179.825 452.366 179.229 452.578C179.569 452.65 179.855 452.754 180.087 452.89C180.323 453.026 180.511 453.186 180.651 453.37C180.795 453.55 180.897 453.75 180.957 453.97C181.021 454.19 181.053 454.422 181.053 454.666C181.053 455.45 180.773 456.036 180.213 456.424C179.657 456.808 178.825 457 177.717 457H174.837ZM175.947 456.076H177.705C178.429 456.076 178.979 455.958 179.355 455.722C179.735 455.482 179.925 455.114 179.925 454.618C179.925 454.254 179.831 453.96 179.643 453.736C179.459 453.508 179.209 453.342 178.893 453.238C178.577 453.134 178.225 453.082 177.837 453.082H175.947V456.076ZM175.947 452.14H177.837C178.065 452.14 178.291 452.118 178.515 452.074C178.739 452.03 178.945 451.954 179.133 451.846C179.321 451.738 179.473 451.594 179.589 451.414C179.705 451.23 179.763 451 179.763 450.724C179.763 450.22 179.569 449.848 179.181 449.608C178.797 449.364 178.297 449.242 177.681 449.242H175.947V452.14Z" fill="#919EAB"/>
<path d="M223.239 457V456.388L227.991 449.29H223.443V448.324H229.545V448.912L224.751 456.022H229.521V457H223.239ZM231.651 454.156C231.651 454.548 231.715 454.904 231.843 455.224C231.975 455.54 232.173 455.792 232.437 455.98C232.705 456.168 233.039 456.262 233.439 456.262C233.835 456.262 234.175 456.17 234.459 455.986C234.747 455.802 234.931 455.536 235.011 455.188H236.061C235.985 455.608 235.817 455.962 235.557 456.25C235.297 456.538 234.983 456.756 234.615 456.904C234.247 457.048 233.863 457.12 233.463 457.12C232.883 457.12 232.373 456.994 231.933 456.742C231.493 456.49 231.149 456.128 230.901 455.656C230.653 455.184 230.529 454.618 230.529 453.958C230.529 453.306 230.641 452.734 230.865 452.242C231.089 451.75 231.413 451.366 231.837 451.09C232.265 450.814 232.779 450.676 233.379 450.676C233.963 450.676 234.457 450.802 234.861 451.054C235.265 451.306 235.571 451.662 235.779 452.122C235.991 452.578 236.097 453.12 236.097 453.748V454.156H231.651ZM231.657 453.406H235.029C235.029 453.05 234.969 452.73 234.849 452.446C234.729 452.158 234.545 451.932 234.297 451.768C234.053 451.6 233.745 451.516 233.373 451.516C232.985 451.516 232.663 451.61 232.407 451.798C232.155 451.982 231.965 452.22 231.837 452.512C231.713 452.8 231.653 453.098 231.657 453.406ZM237.621 457V450.796H238.695V451.696C238.795 451.524 238.933 451.362 239.109 451.21C239.289 451.058 239.505 450.936 239.757 450.844C240.013 450.752 240.307 450.706 240.639 450.706C241.031 450.706 241.391 450.784 241.719 450.94C242.051 451.096 242.315 451.34 242.511 451.672C242.711 452 242.811 452.424 242.811 452.944V457H241.701V453.052C241.701 452.568 241.573 452.21 241.317 451.978C241.065 451.742 240.737 451.624 240.333 451.624C240.053 451.624 239.791 451.67 239.547 451.762C239.303 451.85 239.105 451.986 238.953 452.17C238.801 452.35 238.725 452.578 238.725 452.854V457H237.621ZM245.747 450.796V457H244.673V450.796H245.747ZM245.771 448.33V449.482H244.637V448.33H245.771ZM250.933 451.606H249.535V455.464C249.535 455.684 249.557 455.846 249.601 455.95C249.649 456.05 249.727 456.114 249.835 456.142C249.947 456.17 250.099 456.184 250.291 456.184H250.969V456.928C250.893 456.956 250.777 456.98 250.621 457C250.469 457.02 250.279 457.03 250.051 457.03C249.623 457.03 249.291 456.972 249.055 456.856C248.819 456.74 248.653 456.568 248.557 456.34C248.465 456.112 248.419 455.832 248.419 455.5V451.606H247.411V450.796H248.449L248.719 448.99H249.535V450.79H250.933V451.606ZM252.527 457V448.084H253.607V451.708C253.711 451.536 253.851 451.376 254.027 451.228C254.203 451.076 254.417 450.954 254.669 450.862C254.921 450.766 255.213 450.718 255.545 450.718C255.949 450.718 256.315 450.794 256.643 450.946C256.971 451.094 257.231 451.306 257.423 451.582C257.615 451.858 257.711 452.186 257.711 452.566V457H256.601V452.788C256.601 452.416 256.473 452.13 256.217 451.93C255.965 451.726 255.635 451.624 255.227 451.624C254.951 451.624 254.691 451.67 254.447 451.762C254.203 451.85 254.005 451.986 253.853 452.17C253.705 452.35 253.631 452.58 253.631 452.86V457H252.527Z" fill="#919EAB"/>
<path d="M299.894 457L303.032 448.324H304.286L307.424 457H306.29L305.438 454.624H301.892L301.022 457H299.894ZM302.174 453.604H305.144L303.668 449.422L302.174 453.604ZM311.142 450.676C311.586 450.676 311.986 450.762 312.342 450.934C312.698 451.102 312.988 451.342 313.212 451.654C313.44 451.966 313.582 452.334 313.638 452.758H312.654C312.618 452.542 312.534 452.344 312.402 452.164C312.274 451.984 312.104 451.84 311.892 451.732C311.68 451.624 311.432 451.57 311.148 451.57C310.616 451.57 310.184 451.762 309.852 452.146C309.52 452.53 309.354 453.118 309.354 453.91C309.354 454.626 309.506 455.2 309.81 455.632C310.118 456.06 310.57 456.274 311.166 456.274C311.45 456.274 311.696 456.22 311.904 456.112C312.116 456 312.286 455.854 312.414 455.674C312.542 455.49 312.624 455.294 312.66 455.086H313.626C313.574 455.502 313.434 455.862 313.206 456.166C312.978 456.47 312.686 456.706 312.33 456.874C311.978 457.038 311.582 457.12 311.142 457.12C310.586 457.12 310.092 456.998 309.66 456.754C309.232 456.51 308.896 456.15 308.652 455.674C308.408 455.198 308.286 454.614 308.286 453.922C308.286 453.274 308.396 452.708 308.616 452.224C308.84 451.736 309.164 451.356 309.588 451.084C310.016 450.812 310.534 450.676 311.142 450.676ZM317.611 450.676C318.055 450.676 318.455 450.762 318.811 450.934C319.167 451.102 319.457 451.342 319.681 451.654C319.909 451.966 320.051 452.334 320.107 452.758H319.123C319.087 452.542 319.003 452.344 318.871 452.164C318.743 451.984 318.573 451.84 318.361 451.732C318.149 451.624 317.901 451.57 317.617 451.57C317.085 451.57 316.653 451.762 316.321 452.146C315.989 452.53 315.823 453.118 315.823 453.91C315.823 454.626 315.975 455.2 316.279 455.632C316.587 456.06 317.039 456.274 317.635 456.274C317.919 456.274 318.165 456.22 318.373 456.112C318.585 456 318.755 455.854 318.883 455.674C319.011 455.49 319.093 455.294 319.129 455.086H320.095C320.043 455.502 319.903 455.862 319.675 456.166C319.447 456.47 319.155 456.706 318.799 456.874C318.447 457.038 318.051 457.12 317.611 457.12C317.055 457.12 316.561 456.998 316.129 456.754C315.701 456.51 315.365 456.15 315.121 455.674C314.877 455.198 314.755 454.614 314.755 453.922C314.755 453.274 314.865 452.708 315.085 452.224C315.309 451.736 315.633 451.356 316.057 451.084C316.485 450.812 317.003 450.676 317.611 450.676ZM322.399 454.156C322.399 454.548 322.463 454.904 322.591 455.224C322.723 455.54 322.921 455.792 323.185 455.98C323.453 456.168 323.787 456.262 324.187 456.262C324.583 456.262 324.923 456.17 325.207 455.986C325.495 455.802 325.679 455.536 325.759 455.188H326.809C326.733 455.608 326.565 455.962 326.305 456.25C326.045 456.538 325.731 456.756 325.363 456.904C324.995 457.048 324.611 457.12 324.211 457.12C323.631 457.12 323.121 456.994 322.681 456.742C322.241 456.49 321.897 456.128 321.649 455.656C321.401 455.184 321.277 454.618 321.277 453.958C321.277 453.306 321.389 452.734 321.613 452.242C321.837 451.75 322.161 451.366 322.585 451.09C323.013 450.814 323.527 450.676 324.127 450.676C324.711 450.676 325.205 450.802 325.609 451.054C326.013 451.306 326.319 451.662 326.527 452.122C326.739 452.578 326.845 453.12 326.845 453.748V454.156H322.399ZM322.405 453.406H325.777C325.777 453.05 325.717 452.73 325.597 452.446C325.477 452.158 325.293 451.932 325.045 451.768C324.801 451.6 324.493 451.516 324.121 451.516C323.733 451.516 323.411 451.61 323.155 451.798C322.903 451.982 322.713 452.22 322.585 452.512C322.461 452.8 322.401 453.098 322.405 453.406ZM330.536 457.12C330.104 457.12 329.702 457.054 329.33 456.922C328.962 456.786 328.656 456.576 328.412 456.292C328.168 456.004 328.014 455.638 327.95 455.194H328.958C329.014 455.438 329.114 455.642 329.258 455.806C329.406 455.966 329.59 456.088 329.81 456.172C330.03 456.252 330.27 456.292 330.53 456.292C330.946 456.292 331.282 456.214 331.538 456.058C331.794 455.902 331.922 455.662 331.922 455.338C331.922 455.11 331.854 454.928 331.718 454.792C331.586 454.652 331.38 454.55 331.1 454.486L329.816 454.168C329.316 454.048 328.916 453.86 328.616 453.604C328.316 453.348 328.166 452.99 328.166 452.53C328.162 452.166 328.248 451.846 328.424 451.57C328.6 451.294 328.864 451.076 329.216 450.916C329.568 450.756 330.006 450.676 330.53 450.676C331.202 450.676 331.744 450.828 332.156 451.132C332.572 451.432 332.788 451.874 332.804 452.458H331.826C331.786 452.162 331.652 451.928 331.424 451.756C331.2 451.58 330.898 451.492 330.518 451.492C330.122 451.492 329.8 451.572 329.552 451.732C329.304 451.888 329.18 452.132 329.18 452.464C329.18 452.684 329.268 452.858 329.444 452.986C329.62 453.11 329.88 453.214 330.224 453.298L331.466 453.61C331.754 453.686 331.99 453.786 332.174 453.91C332.362 454.034 332.51 454.172 332.618 454.324C332.73 454.476 332.808 454.636 332.852 454.804C332.9 454.968 332.924 455.126 332.924 455.278C332.924 455.658 332.828 455.986 332.636 456.262C332.448 456.534 332.176 456.746 331.82 456.898C331.468 457.046 331.04 457.12 330.536 457.12ZM336.583 457.12C336.151 457.12 335.749 457.054 335.377 456.922C335.009 456.786 334.703 456.576 334.459 456.292C334.215 456.004 334.061 455.638 333.997 455.194H335.005C335.061 455.438 335.161 455.642 335.305 455.806C335.453 455.966 335.637 456.088 335.857 456.172C336.077 456.252 336.317 456.292 336.577 456.292C336.993 456.292 337.329 456.214 337.585 456.058C337.841 455.902 337.969 455.662 337.969 455.338C337.969 455.11 337.901 454.928 337.765 454.792C337.633 454.652 337.427 454.55 337.147 454.486L335.863 454.168C335.363 454.048 334.963 453.86 334.663 453.604C334.363 453.348 334.213 452.99 334.213 452.53C334.209 452.166 334.295 451.846 334.471 451.57C334.647 451.294 334.911 451.076 335.263 450.916C335.615 450.756 336.053 450.676 336.577 450.676C337.249 450.676 337.791 450.828 338.203 451.132C338.619 451.432 338.835 451.874 338.851 452.458H337.873C337.833 452.162 337.699 451.928 337.471 451.756C337.247 451.58 336.945 451.492 336.565 451.492C336.169 451.492 335.847 451.572 335.599 451.732C335.351 451.888 335.227 452.132 335.227 452.464C335.227 452.684 335.315 452.858 335.491 452.986C335.667 453.11 335.927 453.214 336.271 453.298L337.513 453.61C337.801 453.686 338.037 453.786 338.221 453.91C338.409 454.034 338.557 454.172 338.665 454.324C338.777 454.476 338.855 454.636 338.899 454.804C338.947 454.968 338.971 455.126 338.971 455.278C338.971 455.658 338.875 455.986 338.683 456.262C338.495 456.534 338.223 456.746 337.867 456.898C337.515 457.046 337.087 457.12 336.583 457.12Z" fill="#919EAB"/>
<path d="M96 238C96 235.791 97.7909 234 100 234V234C102.209 234 104 235.791 104 238V422H96V238Z" fill="#00AB55"/>
<path d="M108 277C108 274.791 109.791 273 112 273V273C114.209 273 116 274.791 116 277V422H108V277Z" fill="#FFAB00"/>
<path d="M165.333 238C165.333 235.791 167.124 234 169.333 234V234C171.542 234 173.333 235.791 173.333 238V422H165.333V238Z" fill="#00AB55"/>
<path d="M177.333 384C177.333 381.791 179.124 380 181.333 380V380C183.542 380 185.333 381.791 185.333 384V422H177.333V384Z" fill="#FFAB00"/>
<path d="M234.667 238C234.667 235.791 236.458 234 238.667 234V234C240.876 234 242.667 235.791 242.667 238V422H234.667V238Z" fill="#00AB55"/>
<path d="M246.667 403C246.667 400.791 248.458 399 250.667 399V399C252.876 399 254.667 400.791 254.667 403V422H246.667V403Z" fill="#FFAB00"/>
<path d="M304 238C304 235.791 305.791 234 308 234V234C310.209 234 312 235.791 312 238V422H304V238Z" fill="#00AB55"/>
<path d="M316 302C316 299.791 317.791 298 320 298V298C322.209 298 324 299.791 324 302V422H316V302Z" fill="#FFAB00"/>
</g>
<rect x="20.15" y="8.15" width="343.7" height="477.7" rx="15.85" stroke="#B2B2B2" stroke-width="0.3"/>
</g>
<defs>
<filter id="filter0_dd_1121_9844" x="0" y="0" width="384" height="518" filterUnits="userSpaceOnUse" color-interpolation-filters="sRGB">
<feFlood flood-opacity="0" result="BackgroundImageFix"/>
<feColorMatrix in="SourceAlpha" type="matrix" values="0 0 0 0 0 0 0 0 0 0 0 0 0 0 0 0 0 0 127 0" result="hardAlpha"/>
<feMorphology radius="4" operator="erode" in="SourceAlpha" result="effect1_dropShadow_1121_9844"/>
<feOffset dy="12"/>
<feGaussianBlur stdDeviation="12"/>
<feColorMatrix type="matrix" values="0 0 0 0 0.568627 0 0 0 0 0.619608 0 0 0 0 0.670588 0 0 0 0.12 0"/>
<feBlend mode="normal" in2="BackgroundImageFix" result="effect1_dropShadow_1121_9844"/>
<feColorMatrix in="SourceAlpha" type="matrix" values="0 0 0 0 0 0 0 0 0 0 0 0 0 0 0 0 0 0 127 0" result="hardAlpha"/>
<feOffset/>
<feGaussianBlur stdDeviation="1"/>
<feComposite in2="hardAlpha" operator="out"/>
<feColorMatrix type="matrix" values="0 0 0 0 0.568627 0 0 0 0 0.619608 0 0 0 0 0.670588 0 0 0 0.2 0"/>
<feBlend mode="normal" in2="effect1_dropShadow_1121_9844" result="effect2_dropShadow_1121_9844"/>
<feBlend mode="normal" in="SourceGraphic" in2="effect2_dropShadow_1121_9844" result="shape"/>
</filter>
<clipPath id="clip0_1121_9844">
<rect x="20" y="8" width="344" height="478" rx="16" fill="white"/>
</clipPath>
<clipPath id="clip1_1121_9844">
<rect width="222" height="76" fill="white" transform="translate(44 32)"/>
</clipPath>
</defs>
</svg>
