<svg width="24" height="24" viewBox="0 0 24 24" fill="none" xmlns="http://www.w3.org/2000/svg">
<path fill-rule="evenodd" clip-rule="evenodd" d="M3.15234 11C3.15234 6.40785 6.68426 2.75 10.9631 2.75C15.242 2.75 18.7739 6.40785 18.7739 11C18.7739 15.5922 15.242 19.25 10.9631 19.25C6.68426 19.25 3.15234 15.5922 3.15234 11ZM10.9631 1.25C5.786 1.25 1.65234 5.65103 1.65234 11C1.65234 16.349 5.786 20.75 10.9631 20.75C13.2727 20.75 15.3746 19.8741 16.9944 18.429L20.4073 22.0169C20.6927 22.317 21.1675 22.3289 21.4676 22.0434C21.7677 21.7579 21.7796 21.2832 21.4941 20.9831L18.033 17.3444C19.4323 15.6341 20.2739 13.4135 20.2739 11C20.2739 5.65103 16.1402 1.25 10.9631 1.25Z" fill="#8F8F8F"/>
</svg>
