<svg width="24" height="24" viewBox="0 0 24 24" fill="none" xmlns="http://www.w3.org/2000/svg">
<path fill-rule="evenodd" clip-rule="evenodd" d="M12 2.75C11.0071 2.75 10.2951 3.70707 10.5803 4.65803L10.6167 4.77924C10.824 5.47033 10.3563 6.18266 9.69048 6.46058C9.02479 6.73844 8.21464 6.55202 7.87265 5.91689L7.81222 5.80467C7.34154 4.93054 6.1613 4.75731 5.45929 5.45933C4.75727 6.16134 4.9305 7.34158 5.80462 7.81226L5.91681 7.87267C6.55195 8.21467 6.73838 9.02485 6.46051 9.69056C6.18259 10.3564 5.47023 10.8242 4.77912 10.6168L4.65797 10.5805C3.70704 10.2952 2.75 11.0073 2.75 12.0001C2.75 12.9929 3.70704 13.7049 4.65797 13.4196L4.77917 13.3833C5.47027 13.176 6.18261 13.6437 6.46055 14.3095C6.73842 14.9752 6.552 15.7854 5.91685 16.1274L5.80461 16.1879C4.93048 16.6585 4.75726 17.8388 5.45927 18.5408C6.16129 19.2428 7.34152 19.0696 7.81221 18.1955L7.87269 18.0831C8.21468 17.448 9.02483 17.2616 9.69052 17.5394C10.3564 17.8174 10.8241 18.5297 10.6168 19.2208L10.5804 19.342C10.2951 20.293 11.0072 21.25 12 21.25C12.9928 21.25 13.7049 20.293 13.4196 19.342L13.3832 19.2208C13.1759 18.5297 13.6436 17.8173 14.3094 17.5394C14.9752 17.2615 15.7854 17.4479 16.1274 18.0831L16.1878 18.1954C16.6585 19.0696 17.8388 19.2428 18.5408 18.5408C19.2428 17.8387 19.0696 16.6585 18.1954 16.1878L18.083 16.1273C17.4479 15.7853 17.2615 14.9752 17.5394 14.3095C17.8173 13.6436 18.5296 13.1759 19.2207 13.3832L19.342 13.4196C20.293 13.7049 21.25 12.9929 21.25 12.0001C21.25 11.0073 20.293 10.2952 19.342 10.5805L19.2208 10.6169C18.5297 10.8242 17.8173 10.3565 17.5394 9.69058C17.2615 9.02488 17.4479 8.21471 18.0831 7.87272L18.1954 7.81224C19.0695 7.34155 19.2427 6.16132 18.5407 5.4593C17.8387 4.75729 16.6585 4.93051 16.1878 5.80464L16.1274 5.9169C15.7853 6.55205 14.9752 6.73847 14.3094 6.4606C13.6436 6.18266 13.1759 5.47031 13.3832 4.7792L13.4196 4.65797C13.7048 3.70704 12.9928 2.75 12 2.75ZM9.1436 5.08905C8.56959 3.17567 10.0023 1.25 12 1.25C13.9976 1.25 15.4303 3.17564 14.8563 5.08899C14.8543 5.09577 14.8637 5.09972 14.8671 5.09349C15.8141 3.33467 18.1889 2.98613 19.6014 4.39864C21.0139 5.81115 20.6654 8.18589 18.9065 9.13295C18.9003 9.1363 18.9042 9.14577 18.911 9.14373C20.8244 8.56973 22.75 10.0025 22.75 12.0001C22.75 13.9977 20.8244 15.4304 18.911 14.8564C18.9043 14.8544 18.9004 14.8638 18.9066 14.8671C20.6654 15.8142 21.014 18.1889 19.6014 19.6014C18.1889 21.0139 15.8142 20.6654 14.8671 18.9066C14.8638 18.9003 14.8543 18.9042 14.8563 18.911C15.4303 20.8244 13.9976 22.75 12 22.75C10.0024 22.75 8.56966 20.8244 9.14366 18.911C9.14568 18.9043 9.13625 18.9004 9.13292 18.9066C8.18586 20.6654 5.81112 21.014 4.39861 19.6015C2.9861 18.1889 3.33464 15.8142 5.09346 14.8672C5.09967 14.8638 5.09575 14.8544 5.08899 14.8564C3.17564 15.4304 1.25 13.9977 1.25 12.0001C1.25 10.0025 3.17564 8.56973 5.08899 9.14373C5.09575 9.14576 5.09969 9.13632 5.09347 9.13297C3.33465 8.18591 2.98612 5.81118 4.39863 4.39867C5.81114 2.98616 8.18587 3.33469 9.13293 5.09352C9.13625 5.09968 9.14561 5.09575 9.1436 5.08905ZM9.75 12C9.75 10.7574 10.7574 9.75 12 9.75C13.2426 9.75 14.25 10.7574 14.25 12C14.25 13.2426 13.2426 14.25 12 14.25C10.7574 14.25 9.75 13.2426 9.75 12ZM12 8.25C9.92893 8.25 8.25 9.92893 8.25 12C8.25 14.0711 9.92893 15.75 12 15.75C14.0711 15.75 15.75 14.0711 15.75 12C15.75 9.92893 14.0711 8.25 12 8.25Z" fill="white"/>
</svg>
