<svg width="20" height="20" viewBox="0 0 20 20" fill="none" xmlns="http://www.w3.org/2000/svg">
<path d="M17.4868 4.96078C18.5658 3.70031 19.1054 3.07007 19.1184 2.53655C19.1297 2.07287 18.9258 1.63004 18.5662 1.33708C18.1525 1 17.3229 1 15.6636 1H5.16508C3.50581 1 2.67618 1 2.26243 1.33708C1.90284 1.63004 1.69901 2.07287 1.71031 2.53655C1.72331 3.07007 2.26284 3.70031 3.3419 4.96078L7.74284 10.1016C8.02755 10.4342 8.16991 10.6005 8.2713 10.788C8.36124 10.9544 8.42713 11.1327 8.467 11.3175C8.51194 11.5259 8.51194 11.7448 8.51194 12.1826V16.6368C8.51194 16.9523 8.51194 17.11 8.55568 17.253C8.59439 17.3796 8.65785 17.4972 8.74237 17.5991C8.83785 17.7141 8.96968 17.8008 9.23333 17.974L9.83811 18.3714C10.6441 18.901 11.0472 19.1658 11.381 19.1443C11.6719 19.1256 11.9401 18.9809 12.1154 18.7481C12.3167 18.4809 12.3167 17.9987 12.3167 17.0342V12.1826C12.3167 11.7448 12.3167 11.5259 12.3617 11.3175C12.4015 11.1327 12.4674 10.9544 12.5574 10.788C12.6588 10.6005 12.8011 10.4342 13.0858 10.1016L17.4868 4.96078Z" stroke="white" stroke-width="1.5" stroke-linecap="round" stroke-linejoin="round"/>
</svg>
