<svg width="752" height="496" viewBox="0 0 752 496" fill="none" xmlns="http://www.w3.org/2000/svg">
<g filter="url(#filter0_dd_1121_9843)">
<g clip-path="url(#clip0_1121_9843)">
<rect x="20" y="8" width="712" height="456" rx="16" fill="white"/>
<g clip-path="url(#clip1_1121_9843)">
<path d="M45.458 53V39.986H50.174C51.878 39.986 53.141 40.28 53.963 40.868C54.791 41.45 55.205 42.293 55.205 43.397C55.205 44.045 55.04 44.609 54.71 45.089C54.38 45.563 53.792 45.977 52.946 46.331C53.492 46.469 53.933 46.655 54.269 46.889C54.605 47.123 54.863 47.384 55.043 47.672C55.223 47.954 55.346 48.251 55.412 48.563C55.478 48.869 55.511 49.172 55.511 49.472C55.511 50.672 55.103 51.56 54.287 52.136C53.471 52.712 52.172 53 50.39 53H45.458ZM48.077 50.966H50.444C51.236 50.966 51.833 50.807 52.235 50.489C52.643 50.171 52.847 49.745 52.847 49.211C52.847 48.827 52.748 48.506 52.55 48.248C52.352 47.984 52.082 47.786 51.74 47.654C51.404 47.522 51.02 47.456 50.588 47.456H48.077V50.966ZM48.077 45.368H50.588C50.858 45.368 51.116 45.338 51.362 45.278C51.614 45.212 51.836 45.113 52.028 44.981C52.226 44.849 52.382 44.681 52.496 44.477C52.61 44.267 52.667 44.021 52.667 43.739C52.667 43.175 52.454 42.749 52.028 42.461C51.608 42.167 51.068 42.02 50.408 42.02H48.077V45.368ZM60.1473 53.18C59.5533 53.18 59.0193 53.069 58.5453 52.847C58.0713 52.625 57.6963 52.304 57.4203 51.884C57.1443 51.458 57.0063 50.942 57.0063 50.336C57.0063 49.316 57.3873 48.542 58.1493 48.014C58.9113 47.48 60.1143 47.204 61.7583 47.186L62.9193 47.168V46.61C62.9193 46.184 62.7933 45.857 62.5413 45.629C62.2953 45.395 61.9113 45.281 61.3893 45.287C61.0053 45.293 60.6393 45.383 60.2913 45.557C59.9493 45.731 59.7153 46.034 59.5893 46.466H57.4023C57.4383 45.794 57.6333 45.242 57.9873 44.81C58.3413 44.372 58.8213 44.048 59.4273 43.838C60.0393 43.622 60.7323 43.514 61.5063 43.514C62.4603 43.514 63.2253 43.634 63.8013 43.874C64.3773 44.108 64.7943 44.447 65.0523 44.891C65.3103 45.329 65.4393 45.851 65.4393 46.457V53H63.2433L63.0273 51.398C62.7093 52.07 62.3103 52.535 61.8303 52.793C61.3563 53.051 60.7953 53.18 60.1473 53.18ZM61.0293 51.452C61.2693 51.452 61.5003 51.41 61.7223 51.326C61.9503 51.236 62.1513 51.119 62.3253 50.975C62.5053 50.825 62.6493 50.657 62.7573 50.471C62.8653 50.285 62.9193 50.093 62.9193 49.895V48.518L61.9743 48.536C61.5363 48.542 61.1283 48.596 60.7503 48.698C60.3723 48.794 60.0663 48.953 59.8323 49.175C59.6043 49.397 59.4903 49.697 59.4903 50.075C59.4903 50.507 59.6403 50.846 59.9403 51.092C60.2403 51.332 60.6033 51.452 61.0293 51.452ZM67.7656 53V43.694H70.3486V45.008C70.4926 44.78 70.6786 44.561 70.9066 44.351C71.1406 44.135 71.4346 43.958 71.7886 43.82C72.1426 43.682 72.5626 43.613 73.0486 43.613C73.6186 43.613 74.1496 43.724 74.6416 43.946C75.1396 44.168 75.5416 44.519 75.8476 44.999C76.1536 45.473 76.3066 46.094 76.3066 46.862V53H73.6786V47.186C73.6786 46.682 73.5286 46.304 73.2286 46.052C72.9286 45.8 72.5626 45.674 72.1306 45.674C71.8426 45.674 71.5636 45.725 71.2936 45.827C71.0296 45.929 70.8136 46.082 70.6456 46.286C70.4776 46.49 70.3936 46.742 70.3936 47.042V53H67.7656ZM87.4265 53H84.8075L82.2965 48.986L81.0635 50.3V53H78.4355V39.626H81.0635V47.555L84.4835 43.694H87.3095L83.9255 47.402L87.4265 53ZM92.079 53L96.741 39.986H99.513L104.166 53H101.547L100.485 49.985H95.805L94.716 53H92.079ZM96.39 47.69H99.855L98.136 42.524L96.39 47.69ZM105.787 53V43.694H108.37V45.008C108.514 44.78 108.7 44.561 108.928 44.351C109.162 44.135 109.456 43.958 109.81 43.82C110.164 43.682 110.584 43.613 111.07 43.613C111.64 43.613 112.171 43.724 112.663 43.946C113.161 44.168 113.563 44.519 113.869 44.999C114.175 45.473 114.328 46.094 114.328 46.862V53H111.7V47.186C111.7 46.682 111.55 46.304 111.25 46.052C110.95 45.8 110.584 45.674 110.152 45.674C109.864 45.674 109.585 45.725 109.315 45.827C109.051 45.929 108.835 46.082 108.667 46.286C108.499 46.49 108.415 46.742 108.415 47.042V53H105.787ZM119.087 53.18C118.493 53.18 117.959 53.069 117.485 52.847C117.011 52.625 116.636 52.304 116.36 51.884C116.084 51.458 115.946 50.942 115.946 50.336C115.946 49.316 116.327 48.542 117.089 48.014C117.851 47.48 119.054 47.204 120.698 47.186L121.859 47.168V46.61C121.859 46.184 121.733 45.857 121.481 45.629C121.235 45.395 120.851 45.281 120.329 45.287C119.945 45.293 119.579 45.383 119.231 45.557C118.889 45.731 118.655 46.034 118.529 46.466H116.342C116.378 45.794 116.573 45.242 116.927 44.81C117.281 44.372 117.761 44.048 118.367 43.838C118.979 43.622 119.672 43.514 120.446 43.514C121.4 43.514 122.165 43.634 122.741 43.874C123.317 44.108 123.734 44.447 123.992 44.891C124.25 45.329 124.379 45.851 124.379 46.457V53H122.183L121.967 51.398C121.649 52.07 121.25 52.535 120.77 52.793C120.296 53.051 119.735 53.18 119.087 53.18ZM119.969 51.452C120.209 51.452 120.44 51.41 120.662 51.326C120.89 51.236 121.091 51.119 121.265 50.975C121.445 50.825 121.589 50.657 121.697 50.471C121.805 50.285 121.859 50.093 121.859 49.895V48.518L120.914 48.536C120.476 48.542 120.068 48.596 119.69 48.698C119.312 48.794 119.006 48.953 118.772 49.175C118.544 49.397 118.43 49.697 118.43 50.075C118.43 50.507 118.58 50.846 118.88 51.092C119.18 51.332 119.543 51.452 119.969 51.452ZM129.675 53.162C128.991 53.162 128.448 53.081 128.046 52.919C127.644 52.757 127.347 52.544 127.155 52.28C126.963 52.01 126.84 51.713 126.786 51.389C126.732 51.059 126.705 50.726 126.705 50.39V39.626H129.279V50.066C129.279 50.408 129.351 50.687 129.495 50.903C129.645 51.113 129.924 51.242 130.332 51.29L130.773 51.317V52.937C130.593 52.997 130.41 53.048 130.224 53.09C130.038 53.138 129.855 53.162 129.675 53.162ZM133.551 55.97C132.915 55.97 132.465 55.916 132.201 55.808C131.943 55.706 131.814 55.655 131.814 55.655V53.981L132.732 54.017C133.134 54.041 133.458 54.02 133.704 53.954C133.95 53.894 134.136 53.813 134.262 53.711C134.394 53.609 134.487 53.501 134.541 53.387C134.595 53.279 134.634 53.192 134.658 53.126L134.829 52.613L131.211 43.694H133.812L136.044 49.76L138.303 43.694H140.868L137.097 53.054C136.773 53.846 136.431 54.452 136.071 54.872C135.711 55.292 135.321 55.58 134.901 55.736C134.487 55.892 134.037 55.97 133.551 55.97ZM148.248 45.521H146.178L146.196 50.48C146.196 50.708 146.223 50.879 146.277 50.993C146.337 51.101 146.427 51.173 146.547 51.209C146.673 51.239 146.832 51.254 147.024 51.254H148.275V52.874C148.155 52.928 147.966 52.979 147.708 53.027C147.456 53.075 147.102 53.099 146.646 53.099C145.83 53.099 145.197 52.994 144.747 52.784C144.303 52.574 143.994 52.28 143.82 51.902C143.646 51.524 143.559 51.086 143.559 50.588V45.521H142.047V43.694H143.649L144.306 40.886H146.178V43.685H148.248V45.521ZM152.835 43.694V53H150.324V43.694H152.835ZM152.862 39.995V42.362H150.306V39.995H152.862ZM159.204 43.514C159.984 43.514 160.656 43.673 161.22 43.991C161.79 44.309 162.237 44.738 162.561 45.278C162.891 45.818 163.08 46.421 163.128 47.087H160.941C160.899 46.841 160.812 46.598 160.68 46.358C160.548 46.112 160.362 45.911 160.122 45.755C159.882 45.593 159.582 45.512 159.222 45.512C158.61 45.512 158.112 45.749 157.728 46.223C157.35 46.691 157.161 47.405 157.161 48.365C157.161 49.271 157.347 49.991 157.719 50.525C158.091 51.053 158.61 51.317 159.276 51.317C159.63 51.317 159.924 51.23 160.158 51.056C160.398 50.882 160.584 50.675 160.716 50.435C160.848 50.189 160.932 49.961 160.968 49.751H163.101C163.059 50.393 162.873 50.975 162.543 51.497C162.213 52.013 161.763 52.424 161.193 52.73C160.629 53.03 159.966 53.18 159.204 53.18C158.34 53.18 157.569 52.988 156.891 52.604C156.213 52.22 155.679 51.671 155.289 50.957C154.905 50.237 154.713 49.379 154.713 48.383C154.713 47.423 154.899 46.577 155.271 45.845C155.643 45.113 156.165 44.543 156.837 44.135C157.515 43.721 158.304 43.514 159.204 43.514ZM168.601 53.18C167.953 53.18 167.329 53.075 166.729 52.865C166.129 52.649 165.622 52.313 165.208 51.857C164.794 51.395 164.53 50.798 164.416 50.066H166.693C166.771 50.396 166.912 50.657 167.116 50.849C167.326 51.041 167.563 51.179 167.827 51.263C168.091 51.341 168.343 51.38 168.583 51.38C169.087 51.38 169.492 51.302 169.798 51.146C170.11 50.984 170.266 50.738 170.266 50.408C170.266 50.156 170.173 49.955 169.987 49.805C169.807 49.655 169.507 49.541 169.087 49.463L167.449 49.121C166.627 48.947 165.967 48.653 165.469 48.239C164.971 47.819 164.716 47.225 164.704 46.457C164.704 45.899 164.851 45.398 165.145 44.954C165.445 44.51 165.886 44.159 166.468 43.901C167.05 43.643 167.764 43.514 168.61 43.514C169.756 43.514 170.671 43.766 171.355 44.27C172.045 44.774 172.396 45.485 172.408 46.403H170.212C170.146 46.043 169.966 45.767 169.672 45.575C169.384 45.377 169.021 45.278 168.583 45.278C168.127 45.278 167.752 45.359 167.458 45.521C167.164 45.683 167.017 45.929 167.017 46.259C167.017 46.505 167.137 46.7 167.377 46.844C167.617 46.982 167.989 47.102 168.493 47.204L170.005 47.546C170.527 47.672 170.95 47.846 171.274 48.068C171.604 48.284 171.859 48.521 172.039 48.779C172.219 49.037 172.342 49.298 172.408 49.562C172.48 49.82 172.516 50.054 172.516 50.264C172.516 50.882 172.351 51.41 172.021 51.848C171.691 52.28 171.232 52.61 170.644 52.838C170.056 53.066 169.375 53.18 168.601 53.18Z" fill="#212B36"/>
<path d="M44.581 80L48.242 69.878H49.705L53.366 80H52.043L51.049 77.228H46.912L45.897 80H44.581ZM47.241 76.038H50.706L48.984 71.159L47.241 76.038ZM56.8375 80.091C56.4455 80.091 56.1281 80.0373 55.8855 79.93C55.6475 79.8227 55.4631 79.678 55.3325 79.496C55.2065 79.314 55.1201 79.1063 55.0735 78.873C55.0315 78.635 55.0105 78.39 55.0105 78.138V69.598H56.2845V78.012C56.2845 78.376 56.3545 78.649 56.4945 78.831C56.6391 79.013 56.8398 79.1133 57.0965 79.132L57.4885 79.139V79.979C57.3811 80.0117 57.2691 80.0373 57.1525 80.056C57.0358 80.0793 56.9308 80.091 56.8375 80.091ZM60.8023 80.091C60.4103 80.091 60.093 80.0373 59.8503 79.93C59.6123 79.8227 59.428 79.678 59.2973 79.496C59.1713 79.314 59.085 79.1063 59.0383 78.873C58.9963 78.635 58.9753 78.39 58.9753 78.138V69.598H60.2493V78.012C60.2493 78.376 60.3193 78.649 60.4593 78.831C60.604 79.013 60.8046 79.1133 61.0613 79.132L61.4533 79.139V79.979C61.346 80.0117 61.234 80.0373 61.1173 80.056C61.0006 80.0793 60.8956 80.091 60.8023 80.091ZM69.078 72.622C69.596 72.622 70.0627 72.7223 70.478 72.923C70.8934 73.119 71.2317 73.399 71.493 73.763C71.759 74.127 71.9247 74.5563 71.99 75.051H70.842C70.8 74.799 70.702 74.568 70.548 74.358C70.3987 74.148 70.2004 73.98 69.953 73.854C69.7057 73.728 69.4164 73.665 69.085 73.665C68.4644 73.665 67.9604 73.889 67.573 74.337C67.1857 74.785 66.992 75.471 66.992 76.395C66.992 77.2303 67.1694 77.9 67.524 78.404C67.8834 78.9033 68.4107 79.153 69.106 79.153C69.4374 79.153 69.7244 79.09 69.967 78.964C70.2144 78.8333 70.4127 78.663 70.562 78.453C70.7114 78.2383 70.807 78.0097 70.849 77.767H71.976C71.9154 78.2523 71.752 78.6723 71.486 79.027C71.22 79.3817 70.8794 79.657 70.464 79.853C70.0534 80.0443 69.5914 80.14 69.078 80.14C68.4294 80.14 67.853 79.9977 67.349 79.713C66.8497 79.4283 66.4577 79.0083 66.173 78.453C65.8884 77.8977 65.746 77.2163 65.746 76.409C65.746 75.653 65.8744 74.9927 66.131 74.428C66.3924 73.8587 66.7704 73.4153 67.265 73.098C67.7644 72.7807 68.3687 72.622 69.078 72.622ZM76.6179 80.14C75.9506 80.14 75.3673 79.9977 74.8679 79.713C74.3686 79.4237 73.9813 79.0013 73.7059 78.446C73.4306 77.8907 73.2929 77.2117 73.2929 76.409C73.2929 75.653 73.4213 74.9903 73.6779 74.421C73.9346 73.8517 74.3103 73.4107 74.8049 73.098C75.3043 72.7807 75.9086 72.622 76.6179 72.622C77.2853 72.622 77.8639 72.769 78.3539 73.063C78.8486 73.3523 79.2313 73.7793 79.5019 74.344C79.7726 74.9087 79.9079 75.597 79.9079 76.409C79.9079 77.1463 79.7819 77.795 79.5299 78.355C79.2826 78.915 78.9139 79.3537 78.4239 79.671C77.9386 79.9837 77.3366 80.14 76.6179 80.14ZM76.6179 79.118C77.0519 79.118 77.4183 79.0083 77.7169 78.789C78.0156 78.5697 78.2419 78.2547 78.3959 77.844C78.5499 77.4333 78.6269 76.9457 78.6269 76.381C78.6269 75.863 78.5593 75.3987 78.4239 74.988C78.2886 74.5727 78.0716 74.2437 77.7729 74.001C77.4789 73.7583 77.0939 73.637 76.6179 73.637C76.1793 73.637 75.8083 73.7467 75.5049 73.966C75.2016 74.1807 74.9706 74.4933 74.8119 74.904C74.6579 75.3147 74.5809 75.807 74.5809 76.381C74.5809 76.8897 74.6509 77.3517 74.7909 77.767C74.9309 78.1823 75.1503 78.5113 75.4489 78.754C75.7476 78.9967 76.1373 79.118 76.6179 79.118ZM81.6023 80V72.762H82.8553V73.812C82.9719 73.6113 83.1329 73.4223 83.3383 73.245C83.5483 73.0677 83.8003 72.9253 84.0943 72.818C84.3929 72.7107 84.7359 72.657 85.1233 72.657C85.5806 72.657 86.0006 72.748 86.3833 72.93C86.7706 73.112 87.0786 73.3967 87.3073 73.784C87.5406 74.1667 87.6573 74.6613 87.6573 75.268V80H86.3623V75.394C86.3623 74.8293 86.2129 74.4117 85.9143 74.141C85.6203 73.8657 85.2376 73.728 84.7663 73.728C84.4396 73.728 84.1339 73.7817 83.8493 73.889C83.5646 73.9917 83.3336 74.1503 83.1563 74.365C82.9789 74.575 82.8903 74.841 82.8903 75.163V80H81.6023ZM89.6823 80V72.762H90.9353V73.812C91.052 73.6113 91.213 73.4223 91.4183 73.245C91.6283 73.0677 91.8803 72.9253 92.1743 72.818C92.473 72.7107 92.816 72.657 93.2033 72.657C93.6607 72.657 94.0807 72.748 94.4633 72.93C94.8507 73.112 95.1587 73.3967 95.3873 73.784C95.6207 74.1667 95.7373 74.6613 95.7373 75.268V80H94.4423V75.394C94.4423 74.8293 94.293 74.4117 93.9943 74.141C93.7003 73.8657 93.3177 73.728 92.8463 73.728C92.5197 73.728 92.214 73.7817 91.9293 73.889C91.6447 73.9917 91.4137 74.1503 91.2363 74.365C91.059 74.575 90.9703 74.841 90.9703 75.163V80H89.6823ZM98.6864 76.682C98.6864 77.1393 98.7611 77.5547 98.9104 77.928C99.0644 78.2967 99.2954 78.5907 99.6034 78.81C99.9161 79.0293 100.306 79.139 100.772 79.139C101.234 79.139 101.631 79.0317 101.962 78.817C102.298 78.6023 102.513 78.292 102.606 77.886H103.831C103.743 78.376 103.547 78.789 103.243 79.125C102.94 79.461 102.574 79.7153 102.144 79.888C101.715 80.056 101.267 80.14 100.8 80.14C100.124 80.14 99.5287 79.993 99.0154 79.699C98.5021 79.405 98.1007 78.9827 97.8114 78.432C97.5221 77.8813 97.3774 77.221 97.3774 76.451C97.3774 75.6903 97.5081 75.023 97.7694 74.449C98.0307 73.875 98.4087 73.427 98.9034 73.105C99.4027 72.783 100.002 72.622 100.702 72.622C101.384 72.622 101.96 72.769 102.431 73.063C102.903 73.357 103.26 73.7723 103.502 74.309C103.75 74.841 103.873 75.4733 103.873 76.206V76.682H98.6864ZM98.6934 75.807H102.627C102.627 75.3917 102.557 75.0183 102.417 74.687C102.277 74.351 102.063 74.0873 101.773 73.896C101.489 73.7 101.129 73.602 100.695 73.602C100.243 73.602 99.8671 73.7117 99.5684 73.931C99.2744 74.1457 99.0527 74.4233 98.9034 74.764C98.7587 75.1 98.6887 75.4477 98.6934 75.807ZM108.535 72.622C109.053 72.622 109.52 72.7223 109.935 72.923C110.35 73.119 110.689 73.399 110.95 73.763C111.216 74.127 111.382 74.5563 111.447 75.051H110.299C110.257 74.799 110.159 74.568 110.005 74.358C109.856 74.148 109.657 73.98 109.41 73.854C109.163 73.728 108.873 73.665 108.542 73.665C107.921 73.665 107.417 73.889 107.03 74.337C106.643 74.785 106.449 75.471 106.449 76.395C106.449 77.2303 106.626 77.9 106.981 78.404C107.34 78.9033 107.868 79.153 108.563 79.153C108.894 79.153 109.181 79.09 109.424 78.964C109.671 78.8333 109.87 78.663 110.019 78.453C110.168 78.2383 110.264 78.0097 110.306 77.767H111.433C111.372 78.2523 111.209 78.6723 110.943 79.027C110.677 79.3817 110.336 79.657 109.921 79.853C109.51 80.0443 109.048 80.14 108.535 80.14C107.886 80.14 107.31 79.9977 106.806 79.713C106.307 79.4283 105.915 79.0083 105.63 78.453C105.345 77.8977 105.203 77.2163 105.203 76.409C105.203 75.653 105.331 74.9927 105.588 74.428C105.849 73.8587 106.227 73.4153 106.722 73.098C107.221 72.7807 107.826 72.622 108.535 72.622ZM116.643 73.707H115.012V78.208C115.012 78.4647 115.037 78.6537 115.089 78.775C115.145 78.8917 115.236 78.9663 115.362 78.999C115.492 79.0317 115.67 79.048 115.894 79.048H116.685V79.916C116.596 79.9487 116.461 79.9767 116.279 80C116.101 80.0233 115.88 80.035 115.614 80.035C115.114 80.035 114.727 79.9673 114.452 79.832C114.176 79.6967 113.983 79.496 113.871 79.23C113.763 78.964 113.71 78.6373 113.71 78.25V73.707H112.534V72.762H113.745L114.06 70.655H115.012V72.755H116.643V73.707ZM119.235 76.682C119.235 77.1393 119.31 77.5547 119.459 77.928C119.613 78.2967 119.844 78.5907 120.152 78.81C120.465 79.0293 120.855 79.139 121.321 79.139C121.783 79.139 122.18 79.0317 122.511 78.817C122.847 78.6023 123.062 78.292 123.155 77.886H124.38C124.292 78.376 124.096 78.789 123.792 79.125C123.489 79.461 123.123 79.7153 122.693 79.888C122.264 80.056 121.816 80.14 121.349 80.14C120.673 80.14 120.078 79.993 119.564 79.699C119.051 79.405 118.65 78.9827 118.36 78.432C118.071 77.8813 117.926 77.221 117.926 76.451C117.926 75.6903 118.057 75.023 118.318 74.449C118.58 73.875 118.958 73.427 119.452 73.105C119.952 72.783 120.551 72.622 121.251 72.622C121.933 72.622 122.509 72.769 122.98 73.063C123.452 73.357 123.809 73.7723 124.051 74.309C124.299 74.841 124.422 75.4733 124.422 76.206V76.682H119.235ZM119.242 75.807H123.176C123.176 75.3917 123.106 75.0183 122.966 74.687C122.826 74.351 122.612 74.0873 122.322 73.896C122.038 73.7 121.678 73.602 121.244 73.602C120.792 73.602 120.416 73.7117 120.117 73.931C119.823 74.1457 119.602 74.4233 119.452 74.764C119.308 75.1 119.238 75.4477 119.242 75.807ZM128.811 80.14C127.873 80.14 127.129 79.818 126.578 79.174C126.027 78.53 125.752 77.5897 125.752 76.353C125.752 75.6017 125.862 74.946 126.081 74.386C126.305 73.826 126.636 73.392 127.075 73.084C127.514 72.776 128.06 72.622 128.713 72.622C129.058 72.622 129.364 72.6663 129.63 72.755C129.901 72.8437 130.134 72.9557 130.33 73.091C130.526 73.2263 130.685 73.3663 130.806 73.511C130.932 73.6557 131.025 73.7887 131.086 73.91V69.598H132.388V80H131.401L131.261 78.516C131.214 78.656 131.14 78.8193 131.037 79.006C130.934 79.188 130.79 79.3677 130.603 79.545C130.416 79.7177 130.176 79.86 129.882 79.972C129.593 80.084 129.236 80.14 128.811 80.14ZM129.042 79.146C129.775 79.146 130.297 78.9243 130.61 78.481C130.927 78.033 131.086 77.3027 131.086 76.29C131.081 75.7253 131.009 75.2447 130.869 74.848C130.734 74.4513 130.519 74.1503 130.225 73.945C129.936 73.735 129.551 73.63 129.07 73.63C128.473 73.63 127.987 73.8423 127.614 74.267C127.241 74.6917 127.054 75.366 127.054 76.29C127.054 77.1953 127.222 77.8977 127.558 78.397C127.899 78.8963 128.393 79.146 129.042 79.146ZM141.33 80.14C140.905 80.14 140.546 80.084 140.252 79.972C139.962 79.86 139.724 79.7177 139.538 79.545C139.351 79.3677 139.206 79.188 139.104 79.006C139.001 78.8193 138.926 78.656 138.88 78.516L138.74 80H137.753V69.598H139.055V73.91C139.115 73.7887 139.206 73.6557 139.328 73.511C139.454 73.3663 139.615 73.2263 139.811 73.091C140.007 72.9557 140.238 72.8437 140.504 72.755C140.774 72.6663 141.082 72.622 141.428 72.622C142.333 72.622 143.052 72.937 143.584 73.567C144.12 74.197 144.389 75.1257 144.389 76.353C144.389 77.1137 144.274 77.7787 144.046 78.348C143.817 78.9127 143.476 79.3537 143.024 79.671C142.571 79.9837 142.006 80.14 141.33 80.14ZM141.099 79.146C141.687 79.146 142.165 78.9197 142.534 78.467C142.902 78.0097 143.087 77.284 143.087 76.29C143.087 75.4453 142.914 74.792 142.569 74.33C142.228 73.8633 141.729 73.63 141.071 73.63C140.59 73.63 140.203 73.735 139.909 73.945C139.619 74.1503 139.405 74.4513 139.265 74.848C139.129 75.2447 139.059 75.7253 139.055 76.29C139.055 77.3027 139.211 78.033 139.524 78.481C139.841 78.9243 140.366 79.146 141.099 79.146ZM147.999 80.14C147.532 80.14 147.119 80.0583 146.76 79.895C146.4 79.727 146.118 79.4867 145.913 79.174C145.712 78.8613 145.612 78.4833 145.612 78.04C145.612 77.2373 145.892 76.64 146.452 76.248C147.012 75.856 147.91 75.646 149.147 75.618L150.442 75.583V75.016C150.442 74.5727 150.309 74.2227 150.043 73.966C149.777 73.7047 149.364 73.574 148.804 73.574C148.388 73.5787 148.022 73.6767 147.705 73.868C147.392 74.0593 147.189 74.372 147.096 74.806H145.955C145.983 74.3347 146.116 73.938 146.354 73.616C146.592 73.2893 146.923 73.042 147.348 72.874C147.777 72.706 148.283 72.622 148.867 72.622C149.497 72.622 150.019 72.7107 150.435 72.888C150.855 73.0653 151.167 73.3267 151.373 73.672C151.583 74.0173 151.688 74.442 151.688 74.946V80H150.582L150.491 78.642C150.211 79.2067 149.854 79.5987 149.42 79.818C148.99 80.0327 148.517 80.14 147.999 80.14ZM148.391 79.209C148.633 79.209 148.874 79.1647 149.112 79.076C149.354 78.9873 149.576 78.8683 149.777 78.719C149.977 78.565 150.136 78.3947 150.253 78.208C150.374 78.0167 150.437 77.8207 150.442 77.62V76.381L149.364 76.402C148.813 76.4113 148.351 76.4673 147.978 76.57C147.609 76.6727 147.331 76.8337 147.145 77.053C146.963 77.2723 146.872 77.5593 146.872 77.914C146.872 78.32 147.012 78.6373 147.292 78.866C147.576 79.0947 147.943 79.209 148.391 79.209ZM153.899 80V72.762H155.152V73.812C155.269 73.6113 155.43 73.4223 155.635 73.245C155.845 73.0677 156.097 72.9253 156.391 72.818C156.69 72.7107 157.033 72.657 157.42 72.657C157.877 72.657 158.297 72.748 158.68 72.93C159.067 73.112 159.375 73.3967 159.604 73.784C159.837 74.1667 159.954 74.6613 159.954 75.268V80H158.659V75.394C158.659 74.8293 158.51 74.4117 158.211 74.141C157.917 73.8657 157.534 73.728 157.063 73.728C156.736 73.728 156.431 73.7817 156.146 73.889C155.861 73.9917 155.63 74.1503 155.453 74.365C155.276 74.575 155.187 74.841 155.187 75.163V80H153.899ZM168.335 80H166.963L164.695 76.367L163.267 77.844V80H161.979V69.598H163.267V76.381L166.669 72.762H168.153L165.542 75.52L168.335 80ZM172.286 80.14C171.782 80.14 171.313 80.063 170.879 79.909C170.45 79.7503 170.093 79.5053 169.808 79.174C169.524 78.838 169.344 78.411 169.269 77.893H170.445C170.511 78.1777 170.627 78.4157 170.795 78.607C170.968 78.7937 171.183 78.936 171.439 79.034C171.696 79.1273 171.976 79.174 172.279 79.174C172.765 79.174 173.157 79.083 173.455 78.901C173.754 78.719 173.903 78.439 173.903 78.061C173.903 77.795 173.824 77.5827 173.665 77.424C173.511 77.2607 173.271 77.1417 172.944 77.067L171.446 76.696C170.863 76.556 170.396 76.3367 170.046 76.038C169.696 75.7393 169.521 75.3217 169.521 74.785C169.517 74.3603 169.617 73.987 169.822 73.665C170.028 73.343 170.336 73.0887 170.746 72.902C171.157 72.7153 171.668 72.622 172.279 72.622C173.063 72.622 173.696 72.7993 174.176 73.154C174.662 73.504 174.914 74.0197 174.932 74.701H173.791C173.745 74.3557 173.588 74.0827 173.322 73.882C173.061 73.6767 172.709 73.574 172.265 73.574C171.803 73.574 171.428 73.6673 171.138 73.854C170.849 74.036 170.704 74.3207 170.704 74.708C170.704 74.9647 170.807 75.1677 171.012 75.317C171.218 75.4617 171.521 75.583 171.922 75.681L173.371 76.045C173.707 76.1337 173.983 76.2503 174.197 76.395C174.417 76.5397 174.589 76.7007 174.715 76.878C174.846 77.0553 174.937 77.242 174.988 77.438C175.044 77.6293 175.072 77.8137 175.072 77.991C175.072 78.4343 174.96 78.817 174.736 79.139C174.517 79.4563 174.2 79.7037 173.784 79.881C173.374 80.0537 172.874 80.14 172.286 80.14ZM182.846 69.353C182.37 70.2583 181.978 71.25 181.67 72.328C181.362 73.4013 181.208 74.491 181.208 75.597C181.208 76.647 181.339 77.6713 181.6 78.67C181.862 79.664 182.24 80.6837 182.734 81.729H181.852C181.465 81.0757 181.129 80.4293 180.844 79.79C180.564 79.1507 180.345 78.488 180.186 77.802C180.032 77.116 179.955 76.3763 179.955 75.583C179.955 74.4257 180.142 73.315 180.515 72.251C180.889 71.1823 181.369 70.2163 181.957 69.353H182.846ZM184.026 72.825C184.026 72.1717 184.184 71.6163 184.502 71.159C184.819 70.697 185.241 70.3447 185.769 70.102C186.301 69.8593 186.886 69.738 187.526 69.738C188.226 69.738 188.844 69.8407 189.381 70.046C189.917 70.2467 190.337 70.5407 190.641 70.928C190.944 71.3153 191.096 71.789 191.096 72.349C191.096 72.8483 190.937 73.301 190.62 73.707C190.302 74.1083 189.817 74.4233 189.164 74.652C189.607 74.7733 189.994 74.9507 190.326 75.184C190.657 75.4173 190.914 75.7043 191.096 76.045C191.278 76.381 191.369 76.7683 191.369 77.207C191.369 77.669 191.271 78.0843 191.075 78.453C190.883 78.817 190.613 79.1273 190.263 79.384C189.913 79.636 189.5 79.8297 189.024 79.965C188.548 80.0957 188.03 80.1587 187.47 80.154C186.774 80.1493 186.161 80.021 185.629 79.769C185.101 79.517 184.686 79.1647 184.383 78.712C184.079 78.2547 183.916 77.7133 183.893 77.088H185.188C185.286 77.718 185.542 78.201 185.958 78.537C186.373 78.873 186.893 79.041 187.519 79.041C188.013 79.041 188.445 78.964 188.814 78.81C189.182 78.6513 189.467 78.4343 189.668 78.159C189.868 77.8837 189.969 77.5617 189.969 77.193C189.969 76.787 189.857 76.444 189.633 76.164C189.409 75.884 189.103 75.6717 188.716 75.527C188.328 75.3777 187.897 75.3007 187.421 75.296L186.511 75.275V74.176L187.379 74.155C187.822 74.1457 188.219 74.0617 188.569 73.903C188.919 73.7397 189.194 73.5273 189.395 73.266C189.6 73 189.703 72.7083 189.703 72.391C189.703 72.111 189.616 71.852 189.444 71.614C189.271 71.3713 189.021 71.1777 188.695 71.033C188.373 70.8883 187.981 70.816 187.519 70.816C187.155 70.816 186.807 70.8883 186.476 71.033C186.144 71.173 185.871 71.39 185.657 71.684C185.442 71.978 185.328 72.3583 185.314 72.825H184.026ZM192.312 69.353C192.788 70.2583 193.18 71.25 193.488 72.328C193.796 73.4013 193.95 74.491 193.95 75.597C193.95 76.647 193.819 77.6713 193.558 78.67C193.297 79.664 192.919 80.6837 192.424 81.729H193.306C193.693 81.0757 194.027 80.4293 194.307 79.79C194.592 79.1507 194.811 78.488 194.965 77.802C195.124 77.116 195.203 76.3763 195.203 75.583C195.203 74.4257 195.016 73.315 194.643 72.251C194.27 71.1823 193.789 70.2163 193.201 69.353H192.312Z" fill="#637381"/>
</g>
<rect x="612" y="32" width="104" height="28" rx="6" fill="#919EAB" fill-opacity="0.08"/>
<path d="M621.225 40.878H627.847L627.84 42.32H622.954V45.232H627.266V46.653H622.954V51H621.225V40.878ZM631.186 43.762V51H629.548V43.762H631.186ZM631.207 40.885V42.495H629.52V40.885H631.207ZM633.312 51V43.762H634.943V45.33C635.059 44.9707 635.225 44.665 635.44 44.413C635.659 44.1563 635.916 43.9603 636.21 43.825C636.504 43.6897 636.823 43.622 637.169 43.622C637.253 43.622 637.334 43.6267 637.414 43.636C637.493 43.6453 637.551 43.6617 637.589 43.685V45.316C637.537 45.2927 637.47 45.2763 637.386 45.267C637.306 45.2577 637.236 45.253 637.176 45.253C636.826 45.225 636.515 45.239 636.245 45.295C635.979 45.351 635.752 45.4467 635.566 45.582C635.384 45.7127 635.246 45.8807 635.153 46.086C635.059 46.2867 635.013 46.5223 635.013 46.793V51H633.312ZM641.585 51.14C641.081 51.14 640.603 51.0607 640.15 50.902C639.702 50.7387 639.324 50.4843 639.016 50.139C638.713 49.7937 638.522 49.348 638.442 48.802H639.94C640.006 49.068 640.12 49.285 640.283 49.453C640.451 49.621 640.65 49.7447 640.878 49.824C641.107 49.8987 641.34 49.936 641.578 49.936C642.012 49.936 642.362 49.8613 642.628 49.712C642.899 49.5627 643.034 49.3317 643.034 49.019C643.034 48.7903 642.96 48.6083 642.81 48.473C642.661 48.3377 642.423 48.235 642.096 48.165L640.717 47.85C640.106 47.7147 639.614 47.4907 639.24 47.178C638.872 46.8653 638.685 46.4243 638.68 45.855C638.676 45.4257 638.783 45.043 639.002 44.707C639.222 44.371 639.548 44.1073 639.982 43.916C640.416 43.72 640.953 43.622 641.592 43.622C642.437 43.622 643.114 43.811 643.622 44.189C644.131 44.5623 644.392 45.0967 644.406 45.792H642.957C642.906 45.4793 642.759 45.2367 642.516 45.064C642.274 44.8867 641.959 44.798 641.571 44.798C641.17 44.798 640.841 44.875 640.584 45.029C640.328 45.183 640.199 45.4187 640.199 45.736C640.199 45.9553 640.297 46.128 640.493 46.254C640.689 46.38 640.983 46.4873 641.375 46.576L642.677 46.891C643.051 46.9843 643.356 47.1103 643.594 47.269C643.832 47.4277 644.019 47.6027 644.154 47.794C644.29 47.9807 644.383 48.1743 644.434 48.375C644.49 48.571 644.518 48.753 644.518 48.921C644.518 49.3877 644.397 49.7867 644.154 50.118C643.916 50.4447 643.578 50.6967 643.139 50.874C642.701 51.0513 642.183 51.14 641.585 51.14ZM650.074 44.966H648.457L648.464 49.117C648.464 49.3317 648.488 49.4903 648.534 49.593C648.586 49.691 648.665 49.7563 648.772 49.789C648.884 49.817 649.034 49.831 649.22 49.831H650.109V50.909C650.016 50.9463 649.874 50.979 649.682 51.007C649.496 51.0397 649.244 51.056 648.926 51.056C648.352 51.056 647.907 50.9813 647.589 50.832C647.277 50.678 647.06 50.461 646.938 50.181C646.817 49.901 646.756 49.5673 646.756 49.18V44.966H645.58V43.762H646.805L647.232 41.613H648.457V43.755H650.074V44.966ZM655.09 51V40.878H658.569C659.853 40.878 660.812 41.1067 661.446 41.564C662.086 42.0167 662.405 42.67 662.405 43.524C662.405 44.042 662.272 44.49 662.006 44.868C661.74 45.246 661.271 45.5657 660.599 45.827C661.01 45.925 661.348 46.0603 661.614 46.233C661.885 46.401 662.095 46.5947 662.244 46.814C662.394 47.0287 662.499 47.2597 662.559 47.507C662.62 47.7543 662.65 48.0087 662.65 48.27C662.65 49.194 662.328 49.88 661.684 50.328C661.045 50.776 660.053 51 658.709 51H655.09ZM656.791 49.642H658.73C659.449 49.642 659.993 49.5137 660.361 49.257C660.735 48.9957 660.921 48.62 660.921 48.13C660.921 47.7753 660.83 47.4837 660.648 47.255C660.466 47.0217 660.219 46.849 659.906 46.737C659.594 46.625 659.244 46.569 658.856 46.569H656.791V49.642ZM656.791 45.19H658.856C659.094 45.19 659.325 45.1643 659.549 45.113C659.773 45.0617 659.976 44.98 660.158 44.868C660.34 44.756 660.485 44.6067 660.592 44.42C660.704 44.2333 660.76 44.007 660.76 43.741C660.76 43.2323 660.567 42.8543 660.179 42.607C659.797 42.355 659.304 42.229 658.702 42.229H656.791V45.19ZM666.371 51.14C665.909 51.14 665.493 51.056 665.125 50.888C664.761 50.7153 664.474 50.4703 664.264 50.153C664.058 49.831 663.956 49.4413 663.956 48.984C663.956 48.186 664.243 47.584 664.817 47.178C665.395 46.772 666.317 46.5597 667.582 46.541L668.66 46.513V46.023C668.66 45.6403 668.545 45.3417 668.317 45.127C668.093 44.9077 667.743 44.8003 667.267 44.805C666.917 44.8097 666.595 44.8937 666.301 45.057C666.011 45.2157 665.82 45.484 665.727 45.862H664.278C664.306 45.3673 664.448 44.9543 664.705 44.623C664.966 44.287 665.323 44.0373 665.776 43.874C666.228 43.706 666.751 43.622 667.344 43.622C668.034 43.622 668.597 43.713 669.031 43.895C669.465 44.077 669.784 44.3407 669.99 44.686C670.195 45.0267 670.298 45.4397 670.298 45.925V51H668.863L668.73 49.698C668.468 50.244 668.137 50.622 667.736 50.832C667.339 51.0373 666.884 51.14 666.371 51.14ZM666.924 49.985C667.134 49.985 667.341 49.9477 667.547 49.873C667.752 49.7937 667.939 49.6887 668.107 49.558C668.275 49.4227 668.408 49.2733 668.506 49.11C668.608 48.9467 668.66 48.7763 668.66 48.599V47.458L667.771 47.472C667.332 47.4767 666.949 47.5233 666.623 47.612C666.296 47.7007 666.039 47.843 665.853 48.039C665.671 48.2303 665.58 48.487 665.58 48.809C665.58 49.1777 665.708 49.467 665.965 49.677C666.221 49.8823 666.541 49.985 666.924 49.985ZM672.29 51V43.762H673.956V44.798C674.068 44.6113 674.22 44.4317 674.411 44.259C674.607 44.0863 674.848 43.9463 675.132 43.839C675.417 43.7317 675.751 43.678 676.133 43.678C676.581 43.678 676.997 43.7667 677.379 43.944C677.767 44.1213 678.077 44.399 678.31 44.777C678.548 45.155 678.667 45.6427 678.667 46.24V51H676.959V46.443C676.959 45.967 676.829 45.6147 676.567 45.386C676.306 45.1527 675.977 45.036 675.58 45.036C675.31 45.036 675.053 45.0827 674.81 45.176C674.568 45.2647 674.369 45.4023 674.215 45.589C674.066 45.771 673.991 45.9997 673.991 46.275V51H672.29ZM687.192 51H685.463L683.363 47.647L682.187 48.879V51H680.493V40.598H682.187V47.045L685.19 43.762H687.059L684.441 46.59L687.192 51Z" fill="#212B36"/>
<path d="M704 48.334C703.845 48.3343 703.694 48.2801 703.574 48.1807L699.574 44.8474C699.29 44.6117 699.251 44.1909 699.487 43.9074C699.723 43.6238 700.143 43.585 700.427 43.8207L704 46.8074L707.574 43.9274C707.711 43.8155 707.888 43.7632 708.064 43.7819C708.241 43.8007 708.402 43.889 708.514 44.0274C708.637 44.1659 708.697 44.3497 708.679 44.5344C708.662 44.7191 708.568 44.8881 708.42 45.0007L704.42 48.2207C704.297 48.3044 704.149 48.3443 704 48.334Z" fill="#212B36"/>
<rect x="473" y="113" width="12" height="12" rx="6" fill="#5566FF"/>
<path d="M493.286 115.868V114.601H500.508V115.868H497.667V124H496.263V115.868H493.286ZM503.541 124.13C502.912 124.13 502.362 123.996 501.89 123.727C501.422 123.454 501.058 123.06 500.798 122.544C500.542 122.028 500.414 121.404 500.414 120.672C500.414 119.966 500.535 119.348 500.778 118.819C501.025 118.291 501.383 117.881 501.851 117.591C502.319 117.296 502.884 117.149 503.547 117.149C504.18 117.149 504.728 117.288 505.192 117.565C505.655 117.838 506.015 118.239 506.271 118.767C506.526 119.292 506.654 119.927 506.654 120.672C506.654 121.352 506.533 121.952 506.29 122.472C506.052 122.992 505.701 123.4 505.237 123.694C504.778 123.985 504.212 124.13 503.541 124.13ZM503.547 123.057C503.928 123.057 504.247 122.958 504.503 122.758C504.763 122.555 504.958 122.271 505.088 121.907C505.218 121.539 505.283 121.114 505.283 120.633C505.283 120.187 505.224 119.781 505.107 119.417C504.994 119.049 504.81 118.757 504.555 118.54C504.299 118.323 503.963 118.215 503.547 118.215C503.157 118.215 502.832 118.315 502.572 118.514C502.312 118.709 502.115 118.988 501.981 119.352C501.851 119.712 501.786 120.139 501.786 120.633C501.786 121.071 501.844 121.474 501.961 121.842C502.078 122.21 502.267 122.505 502.527 122.726C502.787 122.947 503.127 123.057 503.547 123.057ZM511.535 118.28H510.027L510.034 122.29C510.034 122.511 510.055 122.674 510.099 122.778C510.146 122.878 510.224 122.943 510.333 122.973C510.445 122.999 510.597 123.012 510.788 123.012H511.574V123.915C511.488 123.95 511.358 123.98 511.184 124.007C511.015 124.033 510.796 124.046 510.528 124.046C510.029 124.046 509.642 123.978 509.364 123.844C509.091 123.71 508.901 123.517 508.792 123.265C508.688 123.01 508.636 122.702 508.636 122.342V118.28H507.544V117.279H508.675L509.02 115.303H510.027V117.272H511.535V118.28ZM515.023 124.13C514.589 124.13 514.204 124.052 513.866 123.896C513.532 123.74 513.27 123.515 513.079 123.22C512.889 122.925 512.793 122.57 512.793 122.154C512.793 121.409 513.058 120.852 513.586 120.483C514.115 120.115 514.958 119.92 516.115 119.898L517.22 119.866V119.378C517.22 118.993 517.105 118.689 516.875 118.468C516.646 118.247 516.292 118.139 515.816 118.143C515.456 118.143 515.135 118.226 514.854 118.39C514.576 118.555 514.394 118.826 514.308 119.203H513.099C513.125 118.757 513.253 118.382 513.482 118.078C513.716 117.771 514.037 117.539 514.444 117.383C514.852 117.227 515.33 117.149 515.881 117.149C516.492 117.149 516.994 117.233 517.389 117.402C517.783 117.567 518.076 117.81 518.266 118.13C518.461 118.451 518.559 118.841 518.559 119.3V124H517.382L517.272 122.765C517.02 123.281 516.702 123.638 516.316 123.837C515.935 124.033 515.504 124.13 515.023 124.13ZM515.458 123.161C515.671 123.161 515.881 123.125 516.089 123.051C516.297 122.973 516.485 122.869 516.654 122.739C516.823 122.605 516.958 122.455 517.057 122.29C517.161 122.126 517.215 121.957 517.22 121.783V120.672L516.31 120.691C515.846 120.696 515.452 120.743 515.127 120.834C514.806 120.925 514.559 121.066 514.386 121.257C514.217 121.448 514.132 121.701 514.132 122.017C514.132 122.377 514.258 122.659 514.509 122.862C514.761 123.062 515.077 123.161 515.458 123.161ZM522.334 124.091C521.935 124.091 521.614 124.039 521.372 123.935C521.133 123.831 520.951 123.692 520.826 123.519C520.7 123.341 520.616 123.142 520.572 122.921C520.533 122.696 520.514 122.464 520.514 122.225V114.341H521.885V122.082C521.885 122.394 521.946 122.633 522.067 122.797C522.193 122.962 522.384 123.055 522.639 123.077L522.99 123.09V123.974C522.882 124.009 522.769 124.037 522.652 124.059C522.54 124.08 522.433 124.091 522.334 124.091ZM527.654 114.601H529.045V124H527.654V114.601ZM531.178 124V117.279H532.536V118.247C532.645 118.065 532.79 117.894 532.972 117.734C533.158 117.574 533.386 117.444 533.654 117.344C533.927 117.244 534.242 117.194 534.597 117.194C535.017 117.194 535.405 117.279 535.76 117.448C536.12 117.613 536.408 117.873 536.625 118.228C536.842 118.579 536.95 119.034 536.95 119.593V124H535.559V119.742C535.559 119.261 535.429 118.904 535.169 118.67C534.913 118.436 534.582 118.319 534.174 118.319C533.901 118.319 533.641 118.364 533.394 118.455C533.147 118.546 532.948 118.685 532.796 118.871C532.645 119.053 532.569 119.283 532.569 119.56V124H531.178ZM541.468 117.149C541.971 117.149 542.417 117.249 542.807 117.448C543.201 117.643 543.52 117.916 543.763 118.267C544.005 118.618 544.153 119.027 544.205 119.495H543.002C542.963 119.274 542.879 119.069 542.749 118.878C542.623 118.687 542.452 118.536 542.235 118.423C542.023 118.306 541.769 118.247 541.475 118.247C540.937 118.247 540.5 118.445 540.162 118.839C539.824 119.233 539.655 119.838 539.655 120.652C539.655 121.398 539.811 121.991 540.123 122.433C540.439 122.875 540.898 123.096 541.501 123.096C541.791 123.096 542.042 123.036 542.255 122.914C542.471 122.793 542.642 122.637 542.768 122.446C542.894 122.256 542.974 122.059 543.009 121.855H544.192C544.144 122.306 543.997 122.702 543.75 123.045C543.507 123.387 543.188 123.653 542.794 123.844C542.404 124.035 541.962 124.13 541.468 124.13C540.857 124.13 540.315 123.998 539.843 123.733C539.371 123.465 539 123.073 538.732 122.557C538.467 122.037 538.335 121.406 538.335 120.665C538.335 119.968 538.459 119.355 538.706 118.826C538.953 118.297 539.31 117.886 539.778 117.591C540.25 117.296 540.814 117.149 541.468 117.149ZM548.469 124.13C547.841 124.13 547.291 123.996 546.818 123.727C546.35 123.454 545.986 123.06 545.726 122.544C545.471 122.028 545.343 121.404 545.343 120.672C545.343 119.966 545.464 119.348 545.707 118.819C545.954 118.291 546.311 117.881 546.779 117.591C547.247 117.296 547.813 117.149 548.476 117.149C549.109 117.149 549.657 117.288 550.12 117.565C550.584 117.838 550.944 118.239 551.199 118.767C551.455 119.292 551.583 119.927 551.583 120.672C551.583 121.352 551.462 121.952 551.219 122.472C550.981 122.992 550.63 123.4 550.166 123.694C549.707 123.985 549.141 124.13 548.469 124.13ZM548.476 123.057C548.857 123.057 549.176 122.958 549.431 122.758C549.691 122.555 549.886 122.271 550.016 121.907C550.146 121.539 550.211 121.114 550.211 120.633C550.211 120.187 550.153 119.781 550.036 119.417C549.923 119.049 549.739 118.757 549.483 118.54C549.228 118.323 548.892 118.215 548.476 118.215C548.086 118.215 547.761 118.315 547.501 118.514C547.241 118.709 547.044 118.988 546.909 119.352C546.779 119.712 546.714 120.139 546.714 120.633C546.714 121.071 546.773 121.474 546.89 121.842C547.007 122.21 547.195 122.505 547.455 122.726C547.715 122.947 548.056 123.057 548.476 123.057ZM553.077 124V117.279H554.429V118.247C554.62 117.953 554.88 117.697 555.209 117.48C555.539 117.259 555.963 117.149 556.483 117.149C556.726 117.149 556.971 117.19 557.218 117.272C557.469 117.355 557.699 117.478 557.907 117.643C558.119 117.803 558.286 118.003 558.407 118.241C558.62 117.92 558.903 117.658 559.259 117.454C559.614 117.251 560.013 117.149 560.455 117.149C560.693 117.149 560.94 117.188 561.196 117.266C561.451 117.34 561.688 117.467 561.904 117.649C562.125 117.827 562.303 118.074 562.437 118.39C562.576 118.707 562.645 119.108 562.645 119.593V124H561.248V119.742C561.248 119.374 561.185 119.086 561.059 118.878C560.938 118.67 560.778 118.525 560.578 118.442C560.383 118.356 560.175 118.312 559.954 118.312C559.755 118.312 559.547 118.351 559.33 118.429C559.114 118.507 558.929 118.637 558.778 118.819C558.626 119.001 558.55 119.248 558.55 119.56V124H557.159V119.443C557.159 119.196 557.092 118.988 556.958 118.819C556.828 118.65 556.663 118.525 556.464 118.442C556.269 118.356 556.074 118.312 555.879 118.312C555.662 118.312 555.445 118.356 555.229 118.442C555.012 118.529 554.83 118.666 554.683 118.852C554.54 119.034 554.468 119.27 554.468 119.56V124H553.077ZM565.48 120.964C565.48 121.367 565.545 121.729 565.675 122.05C565.809 122.366 566.011 122.618 566.279 122.804C566.548 122.986 566.882 123.077 567.28 123.077C567.679 123.077 568.024 122.986 568.314 122.804C568.609 122.622 568.801 122.351 568.892 121.991H570.179C570.101 122.451 569.917 122.841 569.627 123.161C569.341 123.482 568.994 123.725 568.587 123.889C568.18 124.05 567.753 124.13 567.306 124.13C566.669 124.13 566.108 123.994 565.623 123.72C565.138 123.443 564.758 123.049 564.485 122.537C564.217 122.026 564.082 121.417 564.082 120.711C564.082 120.013 564.206 119.398 564.453 118.865C564.7 118.328 565.057 117.907 565.525 117.604C565.993 117.301 566.557 117.149 567.215 117.149C567.865 117.149 568.411 117.288 568.853 117.565C569.3 117.842 569.638 118.232 569.867 118.735C570.097 119.233 570.212 119.823 570.212 120.503V120.964H565.48ZM565.48 120.061H568.886C568.886 119.71 568.825 119.391 568.704 119.105C568.583 118.815 568.396 118.588 568.145 118.423C567.898 118.254 567.586 118.169 567.209 118.169C566.823 118.169 566.503 118.263 566.247 118.449C565.991 118.635 565.798 118.874 565.668 119.164C565.543 119.454 565.48 119.753 565.48 120.061Z" fill="#212B36"/>
<rect x="595" y="113" width="12" height="12" rx="6" fill="#FFAB00"/>
<path d="M615.286 115.868V114.601H622.508V115.868H619.667V124H618.263V115.868H615.286ZM625.541 124.13C624.912 124.13 624.362 123.996 623.89 123.727C623.422 123.454 623.058 123.06 622.798 122.544C622.542 122.028 622.414 121.404 622.414 120.672C622.414 119.966 622.535 119.348 622.778 118.819C623.025 118.291 623.383 117.881 623.851 117.591C624.319 117.296 624.884 117.149 625.547 117.149C626.18 117.149 626.728 117.288 627.192 117.565C627.655 117.838 628.015 118.239 628.271 118.767C628.526 119.292 628.654 119.927 628.654 120.672C628.654 121.352 628.533 121.952 628.29 122.472C628.052 122.992 627.701 123.4 627.237 123.694C626.778 123.985 626.212 124.13 625.541 124.13ZM625.547 123.057C625.928 123.057 626.247 122.958 626.503 122.758C626.763 122.555 626.958 122.271 627.088 121.907C627.218 121.539 627.283 121.114 627.283 120.633C627.283 120.187 627.224 119.781 627.107 119.417C626.994 119.049 626.81 118.757 626.555 118.54C626.299 118.323 625.963 118.215 625.547 118.215C625.157 118.215 624.832 118.315 624.572 118.514C624.312 118.709 624.115 118.988 623.981 119.352C623.851 119.712 623.786 120.139 623.786 120.633C623.786 121.071 623.844 121.474 623.961 121.842C624.078 122.21 624.267 122.505 624.527 122.726C624.787 122.947 625.127 123.057 625.547 123.057ZM633.535 118.28H632.027L632.034 122.29C632.034 122.511 632.055 122.674 632.099 122.778C632.146 122.878 632.224 122.943 632.333 122.973C632.445 122.999 632.597 123.012 632.788 123.012H633.574V123.915C633.488 123.95 633.358 123.98 633.184 124.007C633.015 124.033 632.796 124.046 632.528 124.046C632.029 124.046 631.642 123.978 631.364 123.844C631.091 123.71 630.901 123.517 630.792 123.265C630.688 123.01 630.636 122.702 630.636 122.342V118.28H629.544V117.279H630.675L631.02 115.303H632.027V117.272H633.535V118.28ZM637.023 124.13C636.589 124.13 636.204 124.052 635.866 123.896C635.532 123.74 635.27 123.515 635.079 123.22C634.889 122.925 634.793 122.57 634.793 122.154C634.793 121.409 635.058 120.852 635.586 120.483C636.115 120.115 636.958 119.92 638.115 119.898L639.22 119.866V119.378C639.22 118.993 639.105 118.689 638.875 118.468C638.646 118.247 638.292 118.139 637.816 118.143C637.456 118.143 637.135 118.226 636.854 118.39C636.576 118.555 636.394 118.826 636.308 119.203H635.099C635.125 118.757 635.253 118.382 635.482 118.078C635.716 117.771 636.037 117.539 636.444 117.383C636.852 117.227 637.33 117.149 637.881 117.149C638.492 117.149 638.994 117.233 639.389 117.402C639.783 117.567 640.076 117.81 640.266 118.13C640.461 118.451 640.559 118.841 640.559 119.3V124H639.382L639.272 122.765C639.02 123.281 638.702 123.638 638.316 123.837C637.935 124.033 637.504 124.13 637.023 124.13ZM637.458 123.161C637.671 123.161 637.881 123.125 638.089 123.051C638.297 122.973 638.485 122.869 638.654 122.739C638.823 122.605 638.958 122.455 639.057 122.29C639.161 122.126 639.215 121.957 639.22 121.783V120.672L638.31 120.691C637.846 120.696 637.452 120.743 637.127 120.834C636.806 120.925 636.559 121.066 636.386 121.257C636.217 121.448 636.132 121.701 636.132 122.017C636.132 122.377 636.258 122.659 636.509 122.862C636.761 123.062 637.077 123.161 637.458 123.161ZM644.334 124.091C643.935 124.091 643.614 124.039 643.372 123.935C643.133 123.831 642.951 123.692 642.826 123.519C642.7 123.341 642.616 123.142 642.572 122.921C642.533 122.696 642.514 122.464 642.514 122.225V114.341H643.885V122.082C643.885 122.394 643.946 122.633 644.067 122.797C644.193 122.962 644.384 123.055 644.639 123.077L644.99 123.09V123.974C644.882 124.009 644.769 124.037 644.652 124.059C644.54 124.08 644.433 124.091 644.334 124.091ZM649.654 124V114.601H655.725L655.719 115.81H651.052V118.663H655.218V119.853H651.045V122.771L655.836 122.778V124H649.654ZM663.528 124H662.04L660.181 121.484L658.328 124H656.827L659.414 120.503L657.041 117.279H658.536L660.181 119.508L661.832 117.279H663.333L660.941 120.503L663.528 124ZM664.819 126.093V117.279H666.21L666.223 118.397C666.306 118.25 666.412 118.104 666.542 117.961C666.672 117.814 666.826 117.68 667.003 117.558C667.185 117.433 667.391 117.333 667.621 117.259C667.855 117.186 668.113 117.149 668.394 117.149C668.923 117.149 669.389 117.272 669.792 117.519C670.199 117.762 670.516 118.137 670.741 118.644C670.971 119.147 671.085 119.786 671.085 120.561C671.085 121.341 670.971 121.996 670.741 122.524C670.516 123.053 670.193 123.454 669.772 123.727C669.352 123.996 668.854 124.13 668.277 124.13C668 124.13 667.751 124.091 667.53 124.013C667.309 123.935 667.114 123.833 666.945 123.707C666.776 123.577 666.631 123.439 666.509 123.291C666.392 123.14 666.295 122.99 666.217 122.843V126.093H664.819ZM667.985 123.07C668.501 123.07 668.923 122.871 669.252 122.472C669.586 122.069 669.753 121.441 669.753 120.587C669.753 119.855 669.599 119.277 669.291 118.852C668.988 118.423 668.553 118.208 667.985 118.208C667.4 118.208 666.958 118.432 666.659 118.878C666.36 119.32 666.21 119.89 666.21 120.587C666.21 121.042 666.275 121.458 666.405 121.835C666.54 122.208 666.739 122.507 667.003 122.732C667.268 122.958 667.595 123.07 667.985 123.07ZM673.629 120.964C673.629 121.367 673.694 121.729 673.824 122.05C673.959 122.366 674.16 122.618 674.429 122.804C674.697 122.986 675.031 123.077 675.43 123.077C675.828 123.077 676.173 122.986 676.463 122.804C676.758 122.622 676.951 122.351 677.042 121.991H678.329C678.251 122.451 678.067 122.841 677.776 123.161C677.49 123.482 677.144 123.725 676.736 123.889C676.329 124.05 675.902 124.13 675.456 124.13C674.819 124.13 674.258 123.994 673.772 123.72C673.287 123.443 672.908 123.049 672.635 122.537C672.366 122.026 672.232 121.417 672.232 120.711C672.232 120.013 672.355 119.398 672.602 118.865C672.849 118.328 673.207 117.907 673.675 117.604C674.143 117.301 674.706 117.149 675.365 117.149C676.015 117.149 676.561 117.288 677.003 117.565C677.449 117.842 677.787 118.232 678.017 118.735C678.246 119.233 678.361 119.823 678.361 120.503V120.964H673.629ZM673.629 120.061H677.035C677.035 119.71 676.975 119.391 676.853 119.105C676.732 118.815 676.546 118.588 676.294 118.423C676.047 118.254 675.735 118.169 675.358 118.169C674.973 118.169 674.652 118.263 674.396 118.449C674.141 118.635 673.948 118.874 673.818 119.164C673.692 119.454 673.629 119.753 673.629 120.061ZM679.914 124V117.279H681.273V118.247C681.381 118.065 681.526 117.894 681.708 117.734C681.895 117.574 682.122 117.444 682.391 117.344C682.664 117.244 682.978 117.194 683.333 117.194C683.754 117.194 684.141 117.279 684.497 117.448C684.856 117.613 685.145 117.873 685.361 118.228C685.578 118.579 685.686 119.034 685.686 119.593V124H684.295V119.742C684.295 119.261 684.165 118.904 683.905 118.67C683.65 118.436 683.318 118.319 682.911 118.319C682.638 118.319 682.378 118.364 682.131 118.455C681.884 118.546 681.684 118.685 681.533 118.871C681.381 119.053 681.305 119.283 681.305 119.56V124H679.914ZM689.83 124.13C689.362 124.13 688.922 124.056 688.51 123.909C688.103 123.762 687.761 123.53 687.483 123.213C687.21 122.897 687.039 122.492 686.97 121.998H688.211C688.268 122.254 688.374 122.466 688.53 122.635C688.69 122.8 688.881 122.923 689.102 123.005C689.327 123.083 689.568 123.122 689.823 123.122C690.248 123.122 690.59 123.047 690.85 122.895C691.115 122.739 691.247 122.501 691.247 122.18C691.247 121.95 691.175 121.766 691.032 121.627C690.894 121.489 690.673 121.387 690.369 121.322L689.03 121.003C688.476 120.873 688.031 120.668 687.698 120.386C687.364 120.1 687.195 119.701 687.191 119.19C687.191 118.796 687.288 118.445 687.483 118.137C687.683 117.829 687.977 117.589 688.367 117.415C688.757 117.238 689.243 117.149 689.823 117.149C690.582 117.149 691.19 117.318 691.65 117.656C692.109 117.994 692.347 118.484 692.365 119.125H691.162C691.119 118.817 690.978 118.577 690.74 118.403C690.506 118.226 690.196 118.137 689.81 118.137C689.412 118.137 689.084 118.217 688.829 118.377C688.573 118.533 688.445 118.774 688.445 119.099C688.445 119.32 688.538 119.495 688.725 119.625C688.911 119.751 689.191 119.855 689.563 119.938L690.837 120.256C691.167 120.343 691.437 120.457 691.65 120.6C691.862 120.739 692.029 120.893 692.15 121.062C692.272 121.231 692.356 121.406 692.404 121.588C692.456 121.77 692.482 121.942 692.482 122.102C692.482 122.527 692.373 122.891 692.157 123.194C691.944 123.493 691.639 123.725 691.24 123.889C690.846 124.05 690.376 124.13 689.83 124.13ZM695.11 120.964C695.11 121.367 695.175 121.729 695.305 122.05C695.439 122.366 695.641 122.618 695.909 122.804C696.178 122.986 696.512 123.077 696.91 123.077C697.309 123.077 697.653 122.986 697.944 122.804C698.238 122.622 698.431 122.351 698.522 121.991H699.809C699.731 122.451 699.547 122.841 699.257 123.161C698.971 123.482 698.624 123.725 698.217 123.889C697.809 124.05 697.383 124.13 696.936 124.13C696.299 124.13 695.738 123.994 695.253 123.72C694.767 123.443 694.388 123.049 694.115 122.537C693.847 122.026 693.712 121.417 693.712 120.711C693.712 120.013 693.836 119.398 694.083 118.865C694.33 118.328 694.687 117.907 695.155 117.604C695.623 117.301 696.187 117.149 696.845 117.149C697.495 117.149 698.041 117.288 698.483 117.565C698.93 117.842 699.268 118.232 699.497 118.735C699.727 119.233 699.842 119.823 699.842 120.503V120.964H695.11ZM695.11 120.061H698.516C698.516 119.71 698.455 119.391 698.334 119.105C698.212 118.815 698.026 118.588 697.775 118.423C697.528 118.254 697.216 118.169 696.839 118.169C696.453 118.169 696.132 118.263 695.877 118.449C695.621 118.635 695.428 118.874 695.298 119.164C695.173 119.454 695.11 119.753 695.11 120.061ZM703.82 124.13C703.352 124.13 702.912 124.056 702.501 123.909C702.093 123.762 701.751 123.53 701.474 123.213C701.201 122.897 701.029 122.492 700.96 121.998H702.202C702.258 122.254 702.364 122.466 702.52 122.635C702.68 122.8 702.871 122.923 703.092 123.005C703.317 123.083 703.558 123.122 703.814 123.122C704.238 123.122 704.581 123.047 704.841 122.895C705.105 122.739 705.237 122.501 705.237 122.18C705.237 121.95 705.166 121.766 705.023 121.627C704.884 121.489 704.663 121.387 704.36 121.322L703.021 121.003C702.466 120.873 702.022 120.668 701.688 120.386C701.354 120.1 701.185 119.701 701.181 119.19C701.181 118.796 701.279 118.445 701.474 118.137C701.673 117.829 701.968 117.589 702.358 117.415C702.748 117.238 703.233 117.149 703.814 117.149C704.572 117.149 705.181 117.318 705.64 117.656C706.099 117.994 706.338 118.484 706.355 119.125H705.153C705.109 118.817 704.968 118.577 704.73 118.403C704.496 118.226 704.186 118.137 703.801 118.137C703.402 118.137 703.075 118.217 702.819 118.377C702.563 118.533 702.436 118.774 702.436 119.099C702.436 119.32 702.529 119.495 702.715 119.625C702.901 119.751 703.181 119.855 703.554 119.938L704.828 120.256C705.157 120.343 705.428 120.457 705.64 120.6C705.852 120.739 706.019 120.893 706.141 121.062C706.262 121.231 706.346 121.406 706.394 121.588C706.446 121.77 706.472 121.942 706.472 122.102C706.472 122.527 706.364 122.891 706.147 123.194C705.935 123.493 705.629 123.725 705.231 123.889C704.836 124.05 704.366 124.13 703.82 124.13Z" fill="#212B36"/>
<path d="M46.9468 165V158.094H45.2728V157.368C45.7928 157.368 46.1968 157.33 46.4848 157.254C46.7728 157.178 46.9768 157.062 47.0968 156.906C47.2208 156.75 47.2888 156.556 47.3008 156.324H48.0928V165H46.9468ZM53.2796 156.204C54.2196 156.204 54.9676 156.582 55.5236 157.338C56.0836 158.09 56.3636 159.204 56.3636 160.68C56.3636 162.148 56.0856 163.258 55.5296 164.01C54.9736 164.758 54.2196 165.132 53.2676 165.132C52.3196 165.132 51.5676 164.76 51.0116 164.016C50.4556 163.268 50.1776 162.162 50.1776 160.698C50.1776 159.71 50.3056 158.882 50.5616 158.214C50.8176 157.546 51.1776 157.044 51.6416 156.708C52.1056 156.372 52.6516 156.204 53.2796 156.204ZM53.2796 164.172C53.8996 164.172 54.3676 163.9 54.6836 163.356C55.0036 162.808 55.1636 161.918 55.1636 160.686C55.1636 159.43 55.0016 158.526 54.6776 157.974C54.3576 157.418 53.8896 157.14 53.2736 157.14C52.6616 157.14 52.1896 157.42 51.8576 157.98C51.5296 158.536 51.3656 159.438 51.3656 160.686C51.3656 161.914 51.5296 162.802 51.8576 163.35C52.1856 163.898 52.6596 164.172 53.2796 164.172ZM60.5569 156.204C61.4969 156.204 62.2449 156.582 62.8009 157.338C63.3609 158.09 63.6409 159.204 63.6409 160.68C63.6409 162.148 63.3629 163.258 62.8069 164.01C62.2509 164.758 61.4969 165.132 60.5449 165.132C59.5969 165.132 58.8449 164.76 58.2889 164.016C57.7329 163.268 57.4549 162.162 57.4549 160.698C57.4549 159.71 57.5829 158.882 57.8389 158.214C58.0949 157.546 58.4549 157.044 58.9189 156.708C59.3829 156.372 59.9289 156.204 60.5569 156.204ZM60.5569 164.172C61.1769 164.172 61.6449 163.9 61.9609 163.356C62.2809 162.808 62.4409 161.918 62.4409 160.686C62.4409 159.43 62.2789 158.526 61.9549 157.974C61.6349 157.418 61.1669 157.14 60.5509 157.14C59.9389 157.14 59.4669 157.42 59.1349 157.98C58.8069 158.536 58.6429 159.438 58.6429 160.686C58.6429 161.914 58.8069 162.802 59.1349 163.35C59.4629 163.898 59.9369 164.172 60.5569 164.172ZM70.5926 165H69.4166L67.4726 161.886L66.2486 163.152V165H65.1446V156.084H66.2486V161.898L69.1646 158.796H70.4366L68.1986 161.16L70.5926 165Z" fill="#919EAB"/>
<path d="M50.0617 216.204C50.6177 216.204 51.1157 216.296 51.5557 216.48C51.9957 216.664 52.3437 216.932 52.5997 217.284C52.8557 217.636 52.9837 218.064 52.9837 218.568C52.9837 219.04 52.8557 219.436 52.5997 219.756C52.3477 220.076 52.0217 220.32 51.6217 220.488C51.9137 220.544 52.1917 220.68 52.4557 220.896C52.7237 221.112 52.9437 221.374 53.1157 221.682C53.2877 221.99 53.3737 222.312 53.3737 222.648C53.3737 223.148 53.2357 223.584 52.9597 223.956C52.6877 224.328 52.3037 224.618 51.8077 224.826C51.3117 225.03 50.7297 225.132 50.0617 225.132C49.3977 225.132 48.8177 225.03 48.3217 224.826C47.8257 224.618 47.4397 224.328 47.1637 223.956C46.8917 223.584 46.7557 223.148 46.7557 222.648C46.7557 222.312 46.8397 221.99 47.0077 221.682C47.1797 221.374 47.3997 221.112 47.6677 220.896C47.9357 220.68 48.2157 220.544 48.5077 220.488C48.1117 220.32 47.7837 220.076 47.5237 219.756C47.2677 219.436 47.1397 219.04 47.1397 218.568C47.1397 218.064 47.2677 217.636 47.5237 217.284C47.7797 216.932 48.1277 216.664 48.5677 216.48C49.0117 216.296 49.5097 216.204 50.0617 216.204ZM50.0617 220.02C50.5897 220.02 51.0177 219.89 51.3457 219.63C51.6777 219.37 51.8437 219.008 51.8437 218.544C51.8437 218.076 51.6777 217.708 51.3457 217.44C51.0137 217.168 50.5857 217.032 50.0617 217.032C49.5377 217.032 49.1097 217.168 48.7777 217.44C48.4457 217.712 48.2797 218.08 48.2797 218.544C48.2797 219.008 48.4457 219.37 48.7777 219.63C49.1097 219.89 49.5377 220.02 50.0617 220.02ZM50.0617 224.232C50.7057 224.232 51.2197 224.088 51.6037 223.8C51.9877 223.508 52.1797 223.122 52.1797 222.642C52.1797 222.326 52.0917 222.044 51.9157 221.796C51.7437 221.548 51.4997 221.354 51.1837 221.214C50.8677 221.07 50.4937 220.998 50.0617 220.998C49.6337 220.998 49.2617 221.07 48.9457 221.214C48.6337 221.354 48.3897 221.548 48.2137 221.796C48.0417 222.044 47.9557 222.326 47.9557 222.642C47.9557 223.122 48.1457 223.508 48.5257 223.8C48.9097 224.088 49.4217 224.232 50.0617 224.232ZM57.5569 216.204C58.4969 216.204 59.2449 216.582 59.8009 217.338C60.3609 218.09 60.6409 219.204 60.6409 220.68C60.6409 222.148 60.3629 223.258 59.8069 224.01C59.2509 224.758 58.4969 225.132 57.5449 225.132C56.5969 225.132 55.8449 224.76 55.2889 224.016C54.7329 223.268 54.4549 222.162 54.4549 220.698C54.4549 219.71 54.5829 218.882 54.8389 218.214C55.0949 217.546 55.4549 217.044 55.9189 216.708C56.3829 216.372 56.9289 216.204 57.5569 216.204ZM57.5569 224.172C58.1769 224.172 58.6449 223.9 58.9609 223.356C59.2809 222.808 59.4409 221.918 59.4409 220.686C59.4409 219.43 59.2789 218.526 58.9549 217.974C58.6349 217.418 58.1669 217.14 57.5509 217.14C56.9389 217.14 56.4669 217.42 56.1349 217.98C55.8069 218.536 55.6429 219.438 55.6429 220.686C55.6429 221.914 55.8069 222.802 56.1349 223.35C56.4629 223.898 56.9369 224.172 57.5569 224.172ZM67.5926 225H66.4166L64.4726 221.886L63.2486 223.152V225H62.1446V216.084H63.2486V221.898L66.1646 218.796H67.4366L65.1986 221.16L67.5926 225Z" fill="#919EAB"/>
<path d="M50.934 276.324H52.062V281.808H53.502V282.786H52.062V285H50.976V282.786H46.89V281.772L50.934 276.324ZM47.952 281.808H50.952V277.782L47.952 281.808ZM57.5569 276.204C58.4969 276.204 59.2449 276.582 59.8009 277.338C60.3609 278.09 60.6409 279.204 60.6409 280.68C60.6409 282.148 60.3629 283.258 59.8069 284.01C59.2509 284.758 58.4969 285.132 57.5449 285.132C56.5969 285.132 55.8449 284.76 55.2889 284.016C54.7329 283.268 54.4549 282.162 54.4549 280.698C54.4549 279.71 54.5829 278.882 54.8389 278.214C55.0949 277.546 55.4549 277.044 55.9189 276.708C56.3829 276.372 56.9289 276.204 57.5569 276.204ZM57.5569 284.172C58.1769 284.172 58.6449 283.9 58.9609 283.356C59.2809 282.808 59.4409 281.918 59.4409 280.686C59.4409 279.43 59.2789 278.526 58.9549 277.974C58.6349 277.418 58.1669 277.14 57.5509 277.14C56.9389 277.14 56.4669 277.42 56.1349 277.98C55.8069 278.536 55.6429 279.438 55.6429 280.686C55.6429 281.914 55.8069 282.802 56.1349 283.35C56.4629 283.898 56.9369 284.172 57.5569 284.172ZM67.5926 285H66.4166L64.4726 281.886L63.2486 283.152V285H62.1446V276.084H63.2486V281.898L66.1646 278.796H67.4366L65.1986 281.16L67.5926 285Z" fill="#919EAB"/>
<path d="M47.4745 345V344.322V343.968C47.4745 343.524 47.5565 343.14 47.7205 342.816C47.8885 342.492 48.1085 342.21 48.3805 341.97C48.6565 341.726 48.9565 341.508 49.2805 341.316C49.6085 341.124 49.9345 340.94 50.2585 340.764C50.5865 340.584 50.8865 340.398 51.1585 340.206C51.4305 340.01 51.6485 339.79 51.8125 339.546C51.9805 339.298 52.0645 339.006 52.0645 338.67C52.0645 338.23 51.9085 337.872 51.5965 337.596C51.2885 337.32 50.8705 337.182 50.3425 337.182C49.7745 337.182 49.3185 337.342 48.9745 337.662C48.6305 337.982 48.4365 338.408 48.3925 338.94H47.2885C47.3005 338.44 47.4245 337.984 47.6605 337.572C47.8965 337.156 48.2425 336.824 48.6985 336.576C49.1545 336.328 49.7165 336.204 50.3845 336.204C50.9645 336.204 51.4685 336.308 51.8965 336.516C52.3245 336.72 52.6545 337.008 52.8865 337.38C53.1225 337.748 53.2405 338.178 53.2405 338.67C53.2405 339.118 53.1585 339.502 52.9945 339.822C52.8305 340.142 52.6125 340.42 52.3405 340.656C52.0725 340.888 51.7785 341.096 51.4585 341.28C51.1385 341.464 50.8165 341.642 50.4925 341.814C50.1685 341.982 49.8725 342.16 49.6045 342.348C49.3365 342.532 49.1205 342.744 48.9565 342.984C48.7925 343.224 48.7105 343.51 48.7105 343.842V344.016H53.2885V345H47.4745ZM57.5569 336.204C58.4969 336.204 59.2449 336.582 59.8009 337.338C60.3609 338.09 60.6409 339.204 60.6409 340.68C60.6409 342.148 60.3629 343.258 59.8069 344.01C59.2509 344.758 58.4969 345.132 57.5449 345.132C56.5969 345.132 55.8449 344.76 55.2889 344.016C54.7329 343.268 54.4549 342.162 54.4549 340.698C54.4549 339.71 54.5829 338.882 54.8389 338.214C55.0949 337.546 55.4549 337.044 55.9189 336.708C56.3829 336.372 56.9289 336.204 57.5569 336.204ZM57.5569 344.172C58.1769 344.172 58.6449 343.9 58.9609 343.356C59.2809 342.808 59.4409 341.918 59.4409 340.686C59.4409 339.43 59.2789 338.526 58.9549 337.974C58.6349 337.418 58.1669 337.14 57.5509 337.14C56.9389 337.14 56.4669 337.42 56.1349 337.98C55.8069 338.536 55.6429 339.438 55.6429 340.686C55.6429 341.914 55.8069 342.802 56.1349 343.35C56.4629 343.898 56.9369 344.172 57.5569 344.172ZM67.5926 345H66.4166L64.4726 341.886L63.2486 343.152V345H62.1446V336.084H63.2486V341.898L66.1646 338.796H67.4366L65.1986 341.16L67.5926 345Z" fill="#919EAB"/>
<path d="M64.3303 396.204C65.2703 396.204 66.0183 396.582 66.5743 397.338C67.1343 398.09 67.4143 399.204 67.4143 400.68C67.4143 402.148 67.1363 403.258 66.5803 404.01C66.0243 404.758 65.2703 405.132 64.3183 405.132C63.3703 405.132 62.6183 404.76 62.0623 404.016C61.5063 403.268 61.2283 402.162 61.2283 400.698C61.2283 399.71 61.3563 398.882 61.6123 398.214C61.8683 397.546 62.2283 397.044 62.6923 396.708C63.1563 396.372 63.7023 396.204 64.3303 396.204ZM64.3303 404.172C64.9503 404.172 65.4183 403.9 65.7343 403.356C66.0543 402.808 66.2143 401.918 66.2143 400.686C66.2143 399.43 66.0523 398.526 65.7283 397.974C65.4083 397.418 64.9403 397.14 64.3243 397.14C63.7123 397.14 63.2403 397.42 62.9083 397.98C62.5803 398.536 62.4163 399.438 62.4163 400.686C62.4163 401.914 62.5803 402.802 62.9083 403.35C63.2363 403.898 63.7103 404.172 64.3303 404.172Z" fill="#919EAB"/>
<path d="M88 160.5H708" stroke="#919EAB" stroke-opacity="0.24" stroke-linecap="square" stroke-dasharray="2 3"/>
<path d="M88 220.5H708" stroke="#919EAB" stroke-opacity="0.24" stroke-linecap="square" stroke-dasharray="2 3"/>
<path d="M88 280.5H708" stroke="#919EAB" stroke-opacity="0.24" stroke-linecap="square" stroke-dasharray="2 3"/>
<path d="M88 340.5H708" stroke="#919EAB" stroke-opacity="0.24" stroke-linecap="square" stroke-dasharray="2 3"/>
<path d="M88 400.5H708" stroke="#919EAB" stroke-opacity="0.24" stroke-linecap="square" stroke-dasharray="2 3"/>
<path d="M92.0624 432.954C92.0624 433.414 92.0104 433.806 91.9064 434.13C91.8024 434.454 91.6164 434.7 91.3484 434.868C91.0844 435.036 90.7084 435.12 90.2204 435.12C89.9124 435.12 89.6224 435.084 89.3504 435.012C89.0824 434.94 88.9044 434.886 88.8164 434.85L88.8944 433.788C89.0184 433.832 89.1604 433.888 89.3204 433.956C89.4844 434.02 89.6864 434.052 89.9264 434.052C90.3184 434.052 90.5864 433.944 90.7304 433.728C90.8784 433.512 90.9524 433.148 90.9524 432.636V426.324H92.0624V432.954ZM95.6164 435.12C95.2164 435.12 94.8624 435.05 94.5544 434.91C94.2464 434.766 94.0044 434.56 93.8284 434.292C93.6564 434.024 93.5704 433.7 93.5704 433.32C93.5704 432.632 93.8104 432.12 94.2904 431.784C94.7704 431.448 95.5404 431.268 96.6004 431.244L97.7104 431.214V430.728C97.7104 430.348 97.5964 430.048 97.3684 429.828C97.1404 429.604 96.7864 429.492 96.3064 429.492C95.9504 429.496 95.6364 429.58 95.3644 429.744C95.0964 429.908 94.9224 430.176 94.8424 430.548H93.8644C93.8884 430.144 94.0024 429.804 94.2064 429.528C94.4104 429.248 94.6944 429.036 95.0584 428.892C95.4264 428.748 95.8604 428.676 96.3604 428.676C96.9004 428.676 97.3484 428.752 97.7044 428.904C98.0644 429.056 98.3324 429.28 98.5084 429.576C98.6884 429.872 98.7784 430.236 98.7784 430.668V435H97.8304L97.7524 433.836C97.5124 434.32 97.2064 434.656 96.8344 434.844C96.4664 435.028 96.0604 435.12 95.6164 435.12ZM95.9524 434.322C96.1604 434.322 96.3664 434.284 96.5704 434.208C96.7784 434.132 96.9684 434.03 97.1404 433.902C97.3124 433.77 97.4484 433.624 97.5484 433.464C97.6524 433.3 97.7064 433.132 97.7104 432.96V431.898L96.7864 431.916C96.3144 431.924 95.9184 431.972 95.5984 432.06C95.2824 432.148 95.0444 432.286 94.8844 432.474C94.7284 432.662 94.6504 432.908 94.6504 433.212C94.6504 433.56 94.7704 433.832 95.0104 434.028C95.2544 434.224 95.5684 434.322 95.9524 434.322ZM100.674 435V428.796H101.748V429.696C101.848 429.524 101.986 429.362 102.162 429.21C102.342 429.058 102.558 428.936 102.81 428.844C103.066 428.752 103.36 428.706 103.692 428.706C104.084 428.706 104.444 428.784 104.772 428.94C105.104 429.096 105.368 429.34 105.564 429.672C105.764 430 105.864 430.424 105.864 430.944V435H104.754V431.052C104.754 430.568 104.626 430.21 104.37 429.978C104.118 429.742 103.79 429.624 103.386 429.624C103.106 429.624 102.844 429.67 102.6 429.762C102.356 429.85 102.158 429.986 102.006 430.17C101.854 430.35 101.778 430.578 101.778 430.854V435H100.674Z" fill="#919EAB"/>
<path d="M141.677 426.324H147.083L147.077 427.296H142.817V430.164H146.645V431.124H142.817V435H141.677V426.324ZM149.19 432.156C149.19 432.548 149.254 432.904 149.382 433.224C149.514 433.54 149.712 433.792 149.976 433.98C150.244 434.168 150.578 434.262 150.978 434.262C151.374 434.262 151.714 434.17 151.998 433.986C152.286 433.802 152.47 433.536 152.55 433.188H153.6C153.524 433.608 153.356 433.962 153.096 434.25C152.836 434.538 152.522 434.756 152.154 434.904C151.786 435.048 151.402 435.12 151.002 435.12C150.422 435.12 149.912 434.994 149.472 434.742C149.032 434.49 148.688 434.128 148.44 433.656C148.192 433.184 148.068 432.618 148.068 431.958C148.068 431.306 148.18 430.734 148.404 430.242C148.628 429.75 148.952 429.366 149.376 429.09C149.804 428.814 150.318 428.676 150.918 428.676C151.502 428.676 151.996 428.802 152.4 429.054C152.804 429.306 153.11 429.662 153.318 430.122C153.53 430.578 153.636 431.12 153.636 431.748V432.156H149.19ZM149.196 431.406H152.568C152.568 431.05 152.508 430.73 152.388 430.446C152.268 430.158 152.084 429.932 151.836 429.768C151.592 429.6 151.284 429.516 150.912 429.516C150.524 429.516 150.202 429.61 149.946 429.798C149.694 429.982 149.504 430.22 149.376 430.512C149.252 430.8 149.192 431.098 149.196 431.406ZM158.226 435.12C157.862 435.12 157.554 435.072 157.302 434.976C157.054 434.88 156.85 434.758 156.69 434.61C156.53 434.458 156.406 434.304 156.318 434.148C156.23 433.988 156.166 433.848 156.126 433.728L156.006 435H155.16V426.084H156.276V429.78C156.328 429.676 156.406 429.562 156.51 429.438C156.618 429.314 156.756 429.194 156.924 429.078C157.092 428.962 157.29 428.866 157.518 428.79C157.75 428.714 158.014 428.676 158.31 428.676C159.086 428.676 159.702 428.946 160.158 429.486C160.618 430.026 160.848 430.822 160.848 431.874C160.848 432.526 160.75 433.096 160.554 433.584C160.358 434.068 160.066 434.446 159.678 434.718C159.29 434.986 158.806 435.12 158.226 435.12ZM158.028 434.268C158.532 434.268 158.942 434.074 159.258 433.686C159.574 433.294 159.732 432.672 159.732 431.82C159.732 431.096 159.584 430.536 159.288 430.14C158.996 429.74 158.568 429.54 158.004 429.54C157.592 429.54 157.26 429.63 157.008 429.81C156.76 429.986 156.576 430.244 156.456 430.584C156.34 430.924 156.28 431.336 156.276 431.82C156.276 432.688 156.41 433.314 156.678 433.698C156.95 434.078 157.4 434.268 158.028 434.268Z" fill="#919EAB"/>
<path d="M196.545 435V426.324H198.081L200.697 433.488L203.349 426.324H204.879V435H203.733V427.986L201.219 435H200.181L197.685 428.052V435H196.545ZM208.627 435.12C208.227 435.12 207.873 435.05 207.565 434.91C207.257 434.766 207.015 434.56 206.839 434.292C206.667 434.024 206.581 433.7 206.581 433.32C206.581 432.632 206.821 432.12 207.301 431.784C207.781 431.448 208.551 431.268 209.611 431.244L210.721 431.214V430.728C210.721 430.348 210.607 430.048 210.379 429.828C210.151 429.604 209.797 429.492 209.317 429.492C208.961 429.496 208.647 429.58 208.375 429.744C208.107 429.908 207.933 430.176 207.853 430.548H206.875C206.899 430.144 207.013 429.804 207.217 429.528C207.421 429.248 207.705 429.036 208.069 428.892C208.437 428.748 208.871 428.676 209.371 428.676C209.911 428.676 210.359 428.752 210.715 428.904C211.075 429.056 211.343 429.28 211.519 429.576C211.699 429.872 211.789 430.236 211.789 430.668V435H210.841L210.763 433.836C210.523 434.32 210.217 434.656 209.845 434.844C209.477 435.028 209.071 435.12 208.627 435.12ZM208.963 434.322C209.171 434.322 209.377 434.284 209.581 434.208C209.789 434.132 209.979 434.03 210.151 433.902C210.323 433.77 210.459 433.624 210.559 433.464C210.663 433.3 210.717 433.132 210.721 432.96V431.898L209.797 431.916C209.325 431.924 208.929 431.972 208.609 432.06C208.293 432.148 208.055 432.286 207.895 432.474C207.739 432.662 207.661 432.908 207.661 433.212C207.661 433.56 207.781 433.832 208.021 434.028C208.265 434.224 208.579 434.322 208.963 434.322ZM213.684 435V428.796H214.74V429.99C214.844 429.694 214.99 429.45 215.178 429.258C215.366 429.062 215.58 428.916 215.82 428.82C216.064 428.724 216.316 428.676 216.576 428.676C216.668 428.676 216.758 428.682 216.846 428.694C216.934 428.706 217.002 428.726 217.05 428.754V429.828C216.99 429.8 216.912 429.782 216.816 429.774C216.724 429.762 216.646 429.756 216.582 429.756C216.334 429.74 216.102 429.756 215.886 429.804C215.67 429.848 215.48 429.926 215.316 430.038C215.152 430.15 215.022 430.298 214.926 430.482C214.834 430.662 214.788 430.882 214.788 431.142V435H213.684Z" fill="#919EAB"/>
<path d="M252.213 435L255.351 426.324H256.605L259.743 435H258.609L257.757 432.624H254.211L253.341 435H252.213ZM254.493 431.604H257.463L255.987 427.422L254.493 431.604ZM261.153 436.932V428.796H262.257L262.269 429.876C262.341 429.748 262.433 429.614 262.545 429.474C262.661 429.334 262.801 429.204 262.965 429.084C263.133 428.964 263.327 428.866 263.547 428.79C263.771 428.714 264.025 428.676 264.309 428.676C264.805 428.676 265.241 428.79 265.617 429.018C265.997 429.242 266.293 429.586 266.505 430.05C266.717 430.514 266.823 431.102 266.823 431.814C266.823 432.526 266.719 433.128 266.511 433.62C266.307 434.108 266.011 434.48 265.623 434.736C265.235 434.992 264.767 435.12 264.219 435.12C263.943 435.12 263.697 435.08 263.481 435C263.269 434.924 263.083 434.824 262.923 434.7C262.767 434.572 262.635 434.436 262.527 434.292C262.423 434.148 262.337 434.01 262.269 433.878V436.932H261.153ZM264.009 434.256C264.521 434.256 264.939 434.062 265.263 433.674C265.587 433.282 265.749 432.674 265.749 431.85C265.749 431.142 265.601 430.58 265.305 430.164C265.009 429.748 264.577 429.54 264.009 429.54C263.433 429.54 262.997 429.754 262.701 430.182C262.405 430.606 262.257 431.162 262.257 431.85C262.257 432.294 262.323 432.698 262.455 433.062C262.587 433.426 262.783 433.716 263.043 433.932C263.303 434.148 263.625 434.256 264.009 434.256ZM268.278 435V428.796H269.334V429.99C269.438 429.694 269.584 429.45 269.772 429.258C269.96 429.062 270.174 428.916 270.414 428.82C270.658 428.724 270.91 428.676 271.17 428.676C271.262 428.676 271.352 428.682 271.44 428.694C271.528 428.706 271.596 428.726 271.644 428.754V429.828C271.584 429.8 271.506 429.782 271.41 429.774C271.318 429.762 271.24 429.756 271.176 429.756C270.928 429.74 270.696 429.756 270.48 429.804C270.264 429.848 270.074 429.926 269.91 430.038C269.746 430.15 269.616 430.298 269.52 430.482C269.428 430.662 269.382 430.882 269.382 431.142V435H268.278Z" fill="#919EAB"/>
<path d="M307.181 435V426.324H308.717L311.333 433.488L313.985 426.324H315.515V435H314.369V427.986L311.855 435H310.817L308.321 428.052V435H307.181ZM319.263 435.12C318.863 435.12 318.509 435.05 318.201 434.91C317.893 434.766 317.651 434.56 317.475 434.292C317.303 434.024 317.217 433.7 317.217 433.32C317.217 432.632 317.457 432.12 317.937 431.784C318.417 431.448 319.187 431.268 320.247 431.244L321.357 431.214V430.728C321.357 430.348 321.243 430.048 321.015 429.828C320.787 429.604 320.433 429.492 319.953 429.492C319.597 429.496 319.283 429.58 319.011 429.744C318.743 429.908 318.569 430.176 318.489 430.548H317.511C317.535 430.144 317.649 429.804 317.853 429.528C318.057 429.248 318.341 429.036 318.705 428.892C319.073 428.748 319.507 428.676 320.007 428.676C320.547 428.676 320.995 428.752 321.351 428.904C321.711 429.056 321.979 429.28 322.155 429.576C322.335 429.872 322.425 430.236 322.425 430.668V435H321.477L321.399 433.836C321.159 434.32 320.853 434.656 320.481 434.844C320.113 435.028 319.707 435.12 319.263 435.12ZM319.599 434.322C319.807 434.322 320.013 434.284 320.217 434.208C320.425 434.132 320.615 434.03 320.787 433.902C320.959 433.77 321.095 433.624 321.195 433.464C321.299 433.3 321.353 433.132 321.357 432.96V431.898L320.433 431.916C319.961 431.924 319.565 431.972 319.245 432.06C318.929 432.148 318.691 432.286 318.531 432.474C318.375 432.662 318.297 432.908 318.297 433.212C318.297 433.56 318.417 433.832 318.657 434.028C318.901 434.224 319.215 434.322 319.599 434.322ZM324.733 436.98C324.369 436.98 324.119 436.954 323.983 436.902C323.847 436.85 323.779 436.824 323.779 436.824V436.104L324.409 436.116C324.641 436.124 324.833 436.108 324.985 436.068C325.137 436.028 325.259 435.974 325.351 435.906C325.443 435.838 325.513 435.762 325.561 435.678C325.613 435.594 325.655 435.514 325.687 435.438L325.903 434.85L323.479 428.796H324.601L326.431 433.584L328.249 428.796H329.335L326.719 435.468C326.559 435.86 326.379 436.166 326.179 436.386C325.983 436.606 325.763 436.76 325.519 436.848C325.279 436.936 325.017 436.98 324.733 436.98Z" fill="#919EAB"/>
<path d="M367.253 432.954C367.253 433.414 367.201 433.806 367.097 434.13C366.993 434.454 366.807 434.7 366.539 434.868C366.275 435.036 365.899 435.12 365.411 435.12C365.103 435.12 364.813 435.084 364.541 435.012C364.273 434.94 364.095 434.886 364.007 434.85L364.085 433.788C364.209 433.832 364.351 433.888 364.511 433.956C364.675 434.02 364.877 434.052 365.117 434.052C365.509 434.052 365.777 433.944 365.921 433.728C366.069 433.512 366.143 433.148 366.143 432.636V426.324H367.253V432.954ZM371.371 435.12C371.047 435.116 370.741 435.07 370.453 434.982C370.169 434.89 369.917 434.756 369.697 434.58C369.477 434.404 369.303 434.186 369.175 433.926C369.051 433.662 368.989 433.356 368.989 433.008V428.796H370.099V432.894C370.099 433.298 370.223 433.626 370.471 433.878C370.723 434.13 371.101 434.256 371.605 434.256C372.061 434.256 372.427 434.138 372.703 433.902C372.983 433.662 373.123 433.306 373.123 432.834V428.796H374.227V435H373.345L373.231 433.812C373.155 434.124 373.025 434.376 372.841 434.568C372.661 434.76 372.443 434.902 372.187 434.994C371.935 435.082 371.663 435.124 371.371 435.12ZM376.029 435V428.796H377.103V429.696C377.203 429.524 377.341 429.362 377.517 429.21C377.697 429.058 377.913 428.936 378.165 428.844C378.421 428.752 378.715 428.706 379.047 428.706C379.439 428.706 379.799 428.784 380.127 428.94C380.459 429.096 380.723 429.34 380.919 429.672C381.119 430 381.219 430.424 381.219 430.944V435H380.109V431.052C380.109 430.568 379.981 430.21 379.725 429.978C379.473 429.742 379.145 429.624 378.741 429.624C378.461 429.624 378.199 429.67 377.955 429.762C377.711 429.85 377.513 429.986 377.361 430.17C377.209 430.35 377.133 430.578 377.133 430.854V435H376.029Z" fill="#919EAB"/>
<path d="M419.883 432.954C419.883 433.414 419.831 433.806 419.727 434.13C419.623 434.454 419.437 434.7 419.169 434.868C418.905 435.036 418.529 435.12 418.041 435.12C417.733 435.12 417.443 435.084 417.171 435.012C416.903 434.94 416.725 434.886 416.637 434.85L416.715 433.788C416.839 433.832 416.981 433.888 417.141 433.956C417.305 434.02 417.507 434.052 417.747 434.052C418.139 434.052 418.407 433.944 418.551 433.728C418.699 433.512 418.773 433.148 418.773 432.636V426.324H419.883V432.954ZM424.001 435.12C423.677 435.116 423.371 435.07 423.083 434.982C422.799 434.89 422.547 434.756 422.327 434.58C422.107 434.404 421.933 434.186 421.805 433.926C421.681 433.662 421.619 433.356 421.619 433.008V428.796H422.729V432.894C422.729 433.298 422.853 433.626 423.101 433.878C423.353 434.13 423.731 434.256 424.235 434.256C424.691 434.256 425.057 434.138 425.333 433.902C425.613 433.662 425.753 433.306 425.753 432.834V428.796H426.857V435H425.975L425.861 433.812C425.785 434.124 425.655 434.376 425.471 434.568C425.291 434.76 425.073 434.902 424.817 434.994C424.565 435.082 424.293 435.124 424.001 435.12ZM430.225 435.078C429.889 435.078 429.617 435.032 429.409 434.94C429.205 434.848 429.047 434.724 428.935 434.568C428.827 434.412 428.753 434.234 428.713 434.034C428.677 433.83 428.659 433.62 428.659 433.404V426.084H429.751V433.296C429.751 433.608 429.811 433.842 429.931 433.998C430.055 434.154 430.227 434.24 430.447 434.256L430.783 434.262V434.982C430.691 435.01 430.595 435.032 430.495 435.048C430.395 435.068 430.305 435.078 430.225 435.078Z" fill="#919EAB"/>
<path d="M465.824 435L468.962 426.324H470.216L473.354 435H472.22L471.368 432.624H467.822L466.952 435H465.824ZM468.104 431.604H471.074L469.598 427.422L468.104 431.604ZM476.938 435.12C476.614 435.116 476.308 435.07 476.02 434.982C475.736 434.89 475.484 434.756 475.264 434.58C475.044 434.404 474.87 434.186 474.742 433.926C474.618 433.662 474.556 433.356 474.556 433.008V428.796H475.666V432.894C475.666 433.298 475.79 433.626 476.038 433.878C476.29 434.13 476.668 434.256 477.172 434.256C477.628 434.256 477.994 434.138 478.27 433.902C478.55 433.662 478.69 433.306 478.69 432.834V428.796H479.794V435H478.912L478.798 433.812C478.722 434.124 478.592 434.376 478.408 434.568C478.228 434.76 478.01 434.902 477.754 434.994C477.502 435.082 477.23 435.124 476.938 435.12ZM484.118 437.052C483.142 437.052 482.382 436.91 481.838 436.626C481.298 436.346 481.028 435.944 481.028 435.42C481.028 435.196 481.08 435.006 481.184 434.85C481.288 434.69 481.412 434.558 481.556 434.454C481.7 434.35 481.834 434.268 481.958 434.208C482.082 434.144 482.162 434.098 482.198 434.07C482.13 434.03 482.044 433.98 481.94 433.92C481.84 433.86 481.752 433.78 481.676 433.68C481.6 433.58 481.562 433.45 481.562 433.29C481.562 433.094 481.654 432.914 481.838 432.75C482.022 432.586 482.294 432.464 482.654 432.384C482.29 432.2 482.006 431.956 481.802 431.652C481.598 431.348 481.496 431.018 481.496 430.662C481.496 430.262 481.604 429.914 481.82 429.618C482.04 429.322 482.352 429.096 482.756 428.94C483.16 428.78 483.64 428.7 484.196 428.7C484.6 428.7 484.94 428.748 485.216 428.844C485.492 428.936 485.748 429.068 485.984 429.24C486.048 429.212 486.148 429.17 486.284 429.114C486.424 429.054 486.578 428.99 486.746 428.922C486.914 428.854 487.07 428.79 487.214 428.73C487.362 428.666 487.48 428.618 487.568 428.586L487.562 429.612L486.476 429.816C486.536 429.944 486.584 430.084 486.62 430.236C486.66 430.388 486.68 430.53 486.68 430.662C486.68 431.026 486.584 431.356 486.392 431.652C486.204 431.948 485.918 432.184 485.534 432.36C485.15 432.536 484.67 432.624 484.094 432.624C484.046 432.624 483.984 432.624 483.908 432.624C483.836 432.62 483.774 432.616 483.722 432.612C483.298 432.624 483.006 432.672 482.846 432.756C482.686 432.836 482.606 432.926 482.606 433.026C482.606 433.142 482.696 433.222 482.876 433.266C483.056 433.31 483.362 433.348 483.794 433.38C483.95 433.388 484.142 433.398 484.37 433.41C484.602 433.422 484.858 433.438 485.138 433.458C485.79 433.498 486.292 433.664 486.644 433.956C486.996 434.248 487.172 434.642 487.172 435.138C487.172 435.702 486.92 436.162 486.416 436.518C485.912 436.874 485.146 437.052 484.118 437.052ZM484.316 436.338C484.888 436.338 485.326 436.252 485.63 436.08C485.934 435.908 486.086 435.648 486.086 435.3C486.086 435.052 485.992 434.85 485.804 434.694C485.62 434.534 485.338 434.442 484.958 434.418L483.218 434.304C483.062 434.296 482.9 434.336 482.732 434.424C482.564 434.508 482.42 434.626 482.3 434.778C482.184 434.93 482.126 435.102 482.126 435.294C482.126 435.622 482.304 435.878 482.66 436.062C483.02 436.246 483.572 436.338 484.316 436.338ZM484.124 431.91C484.572 431.91 484.932 431.806 485.204 431.598C485.48 431.39 485.618 431.082 485.618 430.674C485.618 430.254 485.48 429.934 485.204 429.714C484.932 429.494 484.572 429.384 484.124 429.384C483.672 429.384 483.306 429.496 483.026 429.72C482.75 429.94 482.612 430.258 482.612 430.674C482.612 431.066 482.744 431.37 483.008 431.586C483.272 431.802 483.644 431.91 484.124 431.91Z" fill="#919EAB"/>
<path d="M525.742 435.12C525.334 435.12 524.938 435.07 524.554 434.97C524.17 434.866 523.822 434.712 523.51 434.508C523.198 434.304 522.938 434.052 522.73 433.752C522.526 433.448 522.398 433.096 522.346 432.696H523.51C523.582 433.024 523.724 433.3 523.936 433.524C524.152 433.748 524.414 433.916 524.722 434.028C525.034 434.14 525.372 434.196 525.736 434.196C526.144 434.196 526.508 434.14 526.828 434.028C527.152 433.912 527.406 433.748 527.59 433.536C527.778 433.324 527.872 433.07 527.872 432.774C527.872 432.514 527.812 432.288 527.692 432.096C527.576 431.904 527.406 431.744 527.182 431.616C526.958 431.488 526.686 431.388 526.366 431.316L524.662 430.92C524.022 430.78 523.52 430.53 523.156 430.17C522.796 429.81 522.612 429.334 522.604 428.742C522.604 428.242 522.736 427.802 523 427.422C523.268 427.042 523.634 426.746 524.098 426.534C524.566 426.322 525.1 426.216 525.7 426.216C526.392 426.216 526.974 426.334 527.446 426.57C527.918 426.806 528.274 427.116 528.514 427.5C528.754 427.884 528.876 428.294 528.88 428.73H527.734C527.698 428.338 527.582 428.028 527.386 427.8C527.194 427.568 526.952 427.404 526.66 427.308C526.368 427.208 526.05 427.158 525.706 427.158C525.458 427.158 525.218 427.19 524.986 427.254C524.758 427.314 524.552 427.406 524.368 427.53C524.188 427.654 524.044 427.808 523.936 427.992C523.828 428.176 523.774 428.39 523.774 428.634C523.774 428.946 523.88 429.2 524.092 429.396C524.308 429.592 524.698 429.76 525.262 429.9L526.912 430.296C527.344 430.388 527.696 430.524 527.968 430.704C528.244 430.884 528.456 431.088 528.604 431.316C528.756 431.544 528.86 431.782 528.916 432.03C528.976 432.278 529.006 432.522 529.006 432.762C529.006 433.198 528.876 433.596 528.616 433.956C528.356 434.312 527.982 434.596 527.494 434.808C527.01 435.016 526.426 435.12 525.742 435.12ZM531.446 432.156C531.446 432.548 531.51 432.904 531.638 433.224C531.77 433.54 531.968 433.792 532.232 433.98C532.5 434.168 532.834 434.262 533.234 434.262C533.63 434.262 533.97 434.17 534.254 433.986C534.542 433.802 534.726 433.536 534.806 433.188H535.856C535.78 433.608 535.612 433.962 535.352 434.25C535.092 434.538 534.778 434.756 534.41 434.904C534.042 435.048 533.658 435.12 533.258 435.12C532.678 435.12 532.168 434.994 531.728 434.742C531.288 434.49 530.944 434.128 530.696 433.656C530.448 433.184 530.324 432.618 530.324 431.958C530.324 431.306 530.436 430.734 530.66 430.242C530.884 429.75 531.208 429.366 531.632 429.09C532.06 428.814 532.574 428.676 533.174 428.676C533.758 428.676 534.252 428.802 534.656 429.054C535.06 429.306 535.366 429.662 535.574 430.122C535.786 430.578 535.892 431.12 535.892 431.748V432.156H531.446ZM531.452 431.406H534.824C534.824 431.05 534.764 430.73 534.644 430.446C534.524 430.158 534.34 429.932 534.092 429.768C533.848 429.6 533.54 429.516 533.168 429.516C532.78 429.516 532.458 429.61 532.202 429.798C531.95 429.982 531.76 430.22 531.632 430.512C531.508 430.8 531.448 431.098 531.452 431.406ZM537.416 436.932V428.796H538.52L538.532 429.876C538.604 429.748 538.696 429.614 538.808 429.474C538.924 429.334 539.064 429.204 539.228 429.084C539.396 428.964 539.59 428.866 539.81 428.79C540.034 428.714 540.288 428.676 540.572 428.676C541.068 428.676 541.504 428.79 541.88 429.018C542.26 429.242 542.556 429.586 542.768 430.05C542.98 430.514 543.086 431.102 543.086 431.814C543.086 432.526 542.982 433.128 542.774 433.62C542.57 434.108 542.274 434.48 541.886 434.736C541.498 434.992 541.03 435.12 540.482 435.12C540.206 435.12 539.96 435.08 539.744 435C539.532 434.924 539.346 434.824 539.186 434.7C539.03 434.572 538.898 434.436 538.79 434.292C538.686 434.148 538.6 434.01 538.532 433.878V436.932H537.416ZM540.272 434.256C540.784 434.256 541.202 434.062 541.526 433.674C541.85 433.282 542.012 432.674 542.012 431.85C542.012 431.142 541.864 430.58 541.568 430.164C541.272 429.748 540.84 429.54 540.272 429.54C539.696 429.54 539.26 429.754 538.964 430.182C538.668 430.606 538.52 431.162 538.52 431.85C538.52 432.294 538.586 432.698 538.718 433.062C538.85 433.426 539.046 433.716 539.306 433.932C539.566 434.148 539.888 434.256 540.272 434.256Z" fill="#919EAB"/>
<path d="M581.634 435.12C580.862 435.12 580.194 434.946 579.63 434.598C579.066 434.25 578.63 433.746 578.322 433.086C578.018 432.422 577.866 431.62 577.866 430.68C577.866 429.732 578.02 428.926 578.328 428.262C578.636 427.594 579.072 427.084 579.636 426.732C580.204 426.38 580.87 426.204 581.634 426.204C582.402 426.204 583.066 426.38 583.626 426.732C584.186 427.08 584.618 427.588 584.922 428.256C585.226 428.92 585.378 429.728 585.378 430.68C585.378 431.62 585.226 432.422 584.922 433.086C584.622 433.746 584.192 434.25 583.632 434.598C583.072 434.946 582.406 435.12 581.634 435.12ZM581.634 434.154C582.17 434.154 582.626 434.032 583.002 433.788C583.378 433.544 583.664 433.166 583.86 432.654C584.06 432.142 584.16 431.488 584.16 430.692C584.16 429.884 584.06 429.22 583.86 428.7C583.66 428.18 583.372 427.796 582.996 427.548C582.62 427.296 582.166 427.17 581.634 427.17C581.106 427.17 580.652 427.296 580.272 427.548C579.892 427.8 579.6 428.186 579.396 428.706C579.192 429.226 579.09 429.888 579.09 430.692C579.09 431.488 579.192 432.142 579.396 432.654C579.6 433.166 579.892 433.544 580.272 433.788C580.652 434.032 581.106 434.154 581.634 434.154ZM589.338 428.676C589.782 428.676 590.182 428.762 590.538 428.934C590.894 429.102 591.184 429.342 591.408 429.654C591.636 429.966 591.778 430.334 591.834 430.758H590.85C590.814 430.542 590.73 430.344 590.598 430.164C590.47 429.984 590.3 429.84 590.088 429.732C589.876 429.624 589.628 429.57 589.344 429.57C588.812 429.57 588.38 429.762 588.048 430.146C587.716 430.53 587.55 431.118 587.55 431.91C587.55 432.626 587.702 433.2 588.006 433.632C588.314 434.06 588.766 434.274 589.362 434.274C589.646 434.274 589.892 434.22 590.1 434.112C590.312 434 590.482 433.854 590.61 433.674C590.738 433.49 590.82 433.294 590.856 433.086H591.822C591.77 433.502 591.63 433.862 591.402 434.166C591.174 434.47 590.882 434.706 590.526 434.874C590.174 435.038 589.778 435.12 589.338 435.12C588.782 435.12 588.288 434.998 587.856 434.754C587.428 434.51 587.092 434.15 586.848 433.674C586.604 433.198 586.482 432.614 586.482 431.922C586.482 431.274 586.592 430.708 586.812 430.224C587.036 429.736 587.36 429.356 587.784 429.084C588.212 428.812 588.73 428.676 589.338 428.676ZM596.288 429.606H594.89V433.464C594.89 433.684 594.912 433.846 594.956 433.95C595.004 434.05 595.082 434.114 595.19 434.142C595.302 434.17 595.454 434.184 595.646 434.184H596.324V434.928C596.248 434.956 596.132 434.98 595.976 435C595.824 435.02 595.634 435.03 595.406 435.03C594.978 435.03 594.646 434.972 594.41 434.856C594.174 434.74 594.008 434.568 593.912 434.34C593.82 434.112 593.774 433.832 593.774 433.5V429.606H592.766V428.796H593.804L594.074 426.99H594.89V428.79H596.288V429.606Z" fill="#919EAB"/>
<path d="M637.556 426.324H638.666V435H637.676L633.02 428.16V435H631.91V426.324H632.972L637.556 433.068V426.324ZM643.113 435.12C642.541 435.12 642.041 434.998 641.613 434.754C641.185 434.506 640.853 434.144 640.617 433.668C640.381 433.192 640.263 432.61 640.263 431.922C640.263 431.274 640.373 430.706 640.593 430.218C640.813 429.73 641.135 429.352 641.559 429.084C641.987 428.812 642.505 428.676 643.113 428.676C643.685 428.676 644.181 428.802 644.601 429.054C645.025 429.302 645.353 429.668 645.585 430.152C645.817 430.636 645.933 431.226 645.933 431.922C645.933 432.554 645.825 433.11 645.609 433.59C645.397 434.07 645.081 434.446 644.661 434.718C644.245 434.986 643.729 435.12 643.113 435.12ZM643.113 434.244C643.485 434.244 643.799 434.15 644.055 433.962C644.311 433.774 644.505 433.504 644.637 433.152C644.769 432.8 644.835 432.382 644.835 431.898C644.835 431.454 644.777 431.056 644.661 430.704C644.545 430.348 644.359 430.066 644.103 429.858C643.851 429.65 643.521 429.546 643.113 429.546C642.737 429.546 642.419 429.64 642.159 429.828C641.899 430.012 641.701 430.28 641.565 430.632C641.433 430.984 641.367 431.406 641.367 431.898C641.367 432.334 641.427 432.73 641.547 433.086C641.667 433.442 641.855 433.724 642.111 433.932C642.367 434.14 642.701 434.244 643.113 434.244ZM652.058 428.796L649.82 435H648.812L646.568 428.796H647.612L649.262 433.608H649.364L651.02 428.796H652.058Z" fill="#919EAB"/>
<path d="M687.371 426.324C687.399 426.324 687.483 426.326 687.623 426.33C687.767 426.33 687.941 426.33 688.145 426.33C688.349 426.326 688.561 426.326 688.781 426.33C689.001 426.33 689.203 426.332 689.387 426.336C690.451 426.352 691.313 426.526 691.973 426.858C692.637 427.186 693.123 427.664 693.431 428.292C693.743 428.92 693.899 429.692 693.899 430.608C693.899 431.568 693.731 432.374 693.395 433.026C693.063 433.678 692.555 434.17 691.871 434.502C691.191 434.834 690.325 435 689.273 435H687.371V426.324ZM688.511 427.278V434.046H689.273C689.989 434.046 690.605 433.936 691.121 433.716C691.637 433.492 692.033 433.13 692.309 432.63C692.589 432.13 692.729 431.462 692.729 430.626C692.729 429.79 692.593 429.128 692.321 428.64C692.053 428.152 691.665 427.804 691.157 427.596C690.649 427.384 690.037 427.278 689.321 427.278H688.511ZM696.255 432.156C696.255 432.548 696.319 432.904 696.447 433.224C696.579 433.54 696.777 433.792 697.041 433.98C697.309 434.168 697.643 434.262 698.043 434.262C698.439 434.262 698.779 434.17 699.063 433.986C699.351 433.802 699.535 433.536 699.615 433.188H700.665C700.589 433.608 700.421 433.962 700.161 434.25C699.901 434.538 699.587 434.756 699.219 434.904C698.851 435.048 698.467 435.12 698.067 435.12C697.487 435.12 696.977 434.994 696.537 434.742C696.097 434.49 695.753 434.128 695.505 433.656C695.257 433.184 695.133 432.618 695.133 431.958C695.133 431.306 695.245 430.734 695.469 430.242C695.693 429.75 696.017 429.366 696.441 429.09C696.869 428.814 697.383 428.676 697.983 428.676C698.567 428.676 699.061 428.802 699.465 429.054C699.869 429.306 700.175 429.662 700.383 430.122C700.595 430.578 700.701 431.12 700.701 431.748V432.156H696.255ZM696.261 431.406H699.633C699.633 431.05 699.573 430.73 699.453 430.446C699.333 430.158 699.149 429.932 698.901 429.768C698.657 429.6 698.349 429.516 697.977 429.516C697.589 429.516 697.267 429.61 697.011 429.798C696.759 429.982 696.569 430.22 696.441 430.512C696.317 430.8 696.257 431.098 696.261 431.406ZM704.697 428.676C705.141 428.676 705.541 428.762 705.897 428.934C706.253 429.102 706.543 429.342 706.767 429.654C706.995 429.966 707.137 430.334 707.193 430.758H706.209C706.173 430.542 706.089 430.344 705.957 430.164C705.829 429.984 705.659 429.84 705.447 429.732C705.235 429.624 704.987 429.57 704.703 429.57C704.171 429.57 703.739 429.762 703.407 430.146C703.075 430.53 702.909 431.118 702.909 431.91C702.909 432.626 703.061 433.2 703.365 433.632C703.673 434.06 704.125 434.274 704.721 434.274C705.005 434.274 705.251 434.22 705.459 434.112C705.671 434 705.841 433.854 705.969 433.674C706.097 433.49 706.179 433.294 706.215 433.086H707.181C707.129 433.502 706.989 433.862 706.761 434.166C706.533 434.47 706.241 434.706 705.885 434.874C705.533 435.038 705.137 435.12 704.697 435.12C704.141 435.12 703.647 434.998 703.215 434.754C702.787 434.51 702.451 434.15 702.207 433.674C701.963 433.198 701.841 432.614 701.841 431.922C701.841 431.274 701.951 430.708 702.171 430.224C702.395 429.736 702.719 429.356 703.143 429.084C703.571 428.812 704.089 428.676 704.697 428.676Z" fill="#919EAB"/>
<path opacity="0.16" d="M96 347.819H115.98C135.961 347.819 175.922 347.819 215.883 326.05C255.844 304.607 295.805 260.579 335.766 247.778C375.727 234.488 415.688 252.426 455.649 243.457C495.61 234.488 535.571 200.245 575.532 200C615.493 200.245 655.454 234.488 675.434 252.181L695.415 269.547V400H675.434C655.454 400 615.493 400 575.532 400C535.571 400 495.61 400 455.649 400C415.688 400 375.727 400 335.766 400C295.805 400 255.844 400 215.883 400C175.922 400 135.961 400 115.98 400H96" fill="url(#paint0_linear_1121_9843)"/>
<path d="M96 348.819H115.98C135.961 348.819 175.922 348.819 215.883 327.05C255.844 305.607 295.805 261.579 335.766 248.778C375.727 235.488 415.688 253.426 455.649 244.457C495.61 235.488 535.571 201.245 575.532 201C615.493 201.245 655.454 235.488 675.434 253.181L695.415 270.547" stroke="#5566FF" stroke-width="2"/>
<path opacity="0.16" d="M696 358.255H676.02C656.039 358.255 616.078 358.255 576.117 340.84C536.156 323.685 496.195 288.463 456.234 278.223C416.273 267.591 376.312 281.94 336.351 274.766C296.39 267.591 256.429 240.196 216.468 240C176.507 240.196 136.546 267.591 116.566 281.745L96.5854 295.638V400H116.566C136.546 400 176.507 400 216.468 400C256.429 400 296.39 400 336.351 400C376.312 400 416.273 400 456.234 400C496.195 400 536.156 400 576.117 400C616.078 400 656.039 400 676.02 400H696" fill="url(#paint1_linear_1121_9843)"/>
<path d="M696 359.055H676.02C656.039 359.055 616.078 359.055 576.117 341.64C536.156 324.485 496.195 289.263 456.234 279.022C416.273 268.391 376.312 282.74 336.351 275.565C296.39 268.391 256.429 240.995 216.468 240.8C176.507 240.995 136.546 268.391 116.566 282.545L96.5854 296.438" stroke="#FC6803" stroke-width="2"/>
</g>
<rect x="20.15" y="8.15" width="711.7" height="455.7" rx="15.85" stroke="#B2B2B2" stroke-width="0.3"/>
</g>
<defs>
<filter id="filter0_dd_1121_9843" x="0" y="0" width="752" height="496" filterUnits="userSpaceOnUse" color-interpolation-filters="sRGB">
<feFlood flood-opacity="0" result="BackgroundImageFix"/>
<feColorMatrix in="SourceAlpha" type="matrix" values="0 0 0 0 0 0 0 0 0 0 0 0 0 0 0 0 0 0 127 0" result="hardAlpha"/>
<feMorphology radius="4" operator="erode" in="SourceAlpha" result="effect1_dropShadow_1121_9843"/>
<feOffset dy="12"/>
<feGaussianBlur stdDeviation="12"/>
<feColorMatrix type="matrix" values="0 0 0 0 0.568627 0 0 0 0 0.619608 0 0 0 0 0.670588 0 0 0 0.12 0"/>
<feBlend mode="normal" in2="BackgroundImageFix" result="effect1_dropShadow_1121_9843"/>
<feColorMatrix in="SourceAlpha" type="matrix" values="0 0 0 0 0 0 0 0 0 0 0 0 0 0 0 0 0 0 127 0" result="hardAlpha"/>
<feOffset/>
<feGaussianBlur stdDeviation="1"/>
<feComposite in2="hardAlpha" operator="out"/>
<feColorMatrix type="matrix" values="0 0 0 0 0.568627 0 0 0 0 0.619608 0 0 0 0 0.670588 0 0 0 0.2 0"/>
<feBlend mode="normal" in2="effect1_dropShadow_1121_9843" result="effect2_dropShadow_1121_9843"/>
<feBlend mode="normal" in="SourceGraphic" in2="effect2_dropShadow_1121_9843" result="shape"/>
</filter>
<linearGradient id="paint0_linear_1121_9843" x1="96" y1="200" x2="96" y2="400" gradientUnits="userSpaceOnUse">
<stop offset="0.0416667" stop-color="#5E6EFF"/>
<stop offset="1" stop-color="#0012B0" stop-opacity="0.49"/>
</linearGradient>
<linearGradient id="paint1_linear_1121_9843" x1="696" y1="240" x2="696" y2="400" gradientUnits="userSpaceOnUse">
<stop stop-color="#FC6803"/>
<stop offset="1" stop-color="#FF6700" stop-opacity="0.56"/>
</linearGradient>
<clipPath id="clip0_1121_9843">
<rect x="20" y="8" width="712" height="456" rx="16" fill="white"/>
</clipPath>
<clipPath id="clip1_1121_9843">
<rect width="552" height="54" fill="white" transform="translate(44 32)"/>
</clipPath>
</defs>
</svg>
